SplineFontDB: 3.0
FontName: a
FullName: Neuton Regular
FamilyName: Neuton
Weight: Regular
Copyright: Copyright (c) 2010, 2011 Brian M Zick (http://21326.info/), \nwith Reserved Font Name 'Neuton'.\n\nThis Font Software is licensed under the SIL Open Font License, Version 1.1.This license is available with a FAQ at: http://scripts.sil.org/OFL\n   WITHOUT WARRANTIES OR CONDITIONS OF ANY KIND, either express or implied.\n   See the License for the specific language governing permissions and\n   limitations under the License.
Version: 1.43
ItalicAngle: 0
UnderlinePosition: -361
UnderlineWidth: 0
Ascent: 1638
Descent: 410
LayerCount: 2
Layer: 0 1 "Back"  1
Layer: 1 1 "Fore"  0
NeedsXUIDChange: 1
FSType: 0
OS2Version: 1
OS2_WeightWidthSlopeOnly: 0
OS2_UseTypoMetrics: 0
CreationTime: 1305772905
ModificationTime: 1320286506
PfmFamily: 17
TTFWeight: 500
TTFWidth: 5
LineGap: 0
VLineGap: 0
OS2TypoAscent: 2106
OS2TypoAOffset: 0
OS2TypoDescent: -485
OS2TypoDOffset: 0
OS2TypoLinegap: 0
OS2WinAscent: 2106
OS2WinAOffset: 0
OS2WinDescent: 485
OS2WinDOffset: 0
HheadAscent: 2106
HheadAOffset: 0
HheadDescent: -485
HheadDOffset: 0
OS2SubXSize: 1095
OS2SubYSize: 1179
OS2SubXOff: 0
OS2SubYOff: 235
OS2SupXSize: 1095
OS2SupYSize: 1179
OS2SupXOff: 0
OS2SupYOff: 809
OS2StrikeYSize: 84
OS2StrikeYPos: 436
OS2Vendor: 'PfEd'
OS2CodePages: a00000b3.00000000
Lookup: 1 0 0 "'sups' Superscript lookup 0"  {"'sups' Superscript lookup 0 subtable" ("superior" ) } ['sups' ('DFLT' <'dflt' > ) ]
Lookup: 258 0 0 "'kern' Horizontal Kerning in Latin lookup 0"  {"'kern' Horizontal Kerning in Latin lookup 0 per glyph data 0"  "'kern' Horizontal Kerning in Latin lookup 0 kerning class 1" [410,0,0] } ['kern' ('latn' <'dflt' > ) ]
MarkAttachClasses: 1
DEI: 91125
KernClass2: 89+ 74 "'kern' Horizontal Kerning in Latin lookup 0 kerning class 1" 
 9 ampersand
 8 asterisk
 2 at
 9 backslash
 5 comma
 10 exclamdown
 4 four
 8 four.osf
 27 guillemotleft guilsinglleft
 29 guillemotright guilsinglright

StartChar: .notdef
Encoding: 65536 -1 0
Width: 563
VWidth: 0
Flags: HMW
LayerCount: 2
Fore
SplineSet
96 55 m 1,0,-1
 427 55 l 1,1,-1
 427 1050 l 1,2,-1
 96 1050 l 1,3,-1
 96 55 l 1,0,-1
41 0 m 1,4,-1
 41 1105 l 1,5,-1
 482 1105 l 1,6,-1
 482 0 l 1,7,-1
 41 0 l 1,4,-1
EndSplineSet
Colour: ffffff
EndChar

StartChar: A
Encoding: 65 65 1
Width: 1278
VWidth: 1691
Flags: HMW
LayerCount: 2
Fore
SplineSet
406 534 m 1,0,-1
 758 534 l 1,1,-1
 592 1034 l 1,2,-1
 406 534 l 1,0,-1
-37 0 m 1,3,-1
 -28 74 l 1,4,-1
 121 129 l 1,5,-1
 559 1237 l 1,6,-1
 710 1268 l 1,7,-1
 1100 124 l 1,8,-1
 1237 80 l 1,9,-1
 1228 0 l 1,10,-1
 713 0 l 1,11,-1
 725 74 l 1,12,-1
 896 129 l 1,13,-1
 787 432 l 1,14,-1
 368 432 l 1,15,-1
 256 124 l 1,16,-1
 442 80 l 1,17,-1
 431 0 l 1,18,-1
 -37 0 l 1,3,-1
EndSplineSet
Colour: ffffff
EndChar

StartChar: AE
Encoding: 198 198 2
Width: 383
VWidth: 0
Flags: HMW
LayerCount: 2
Fore
SplineSet
73 92 m 0,0,1
 73 140 73 140 108 172.5 c 128,-1,2
 143 205 143 205 191 205 c 0,3,4
 241 205 241 205 277 171.5 c 128,-1,5
 313 138 313 138 313 90 c 0,6,7
 313 40 313 40 277 4.5 c 128,-1,8
 241 -31 241 -31 191 -31 c 0,9,10
 142 -31 142 -31 107.5 5 c 128,-1,11
 73 41 73 41 73 92 c 0,0,1
EndSplineSet
Colour: ffffff
EndChar

StartChar: Aacute
Encoding: 193 193 3
Width: 383
VWidth: 0
Flags: HMW
LayerCount: 2
Fore
SplineSet
73 92 m 0,0,1
 73 140 73 140 108 172.5 c 128,-1,2
 143 205 143 205 191 205 c 0,3,4
 241 205 241 205 277 171.5 c 128,-1,5
 313 138 313 138 313 90 c 0,6,7
 313 40 313 40 277 4.5 c 128,-1,8
 241 -31 241 -31 191 -31 c 0,9,10
 142 -31 142 -31 107.5 5 c 128,-1,11
 73 41 73 41 73 92 c 0,0,1
EndSplineSet
Colour: ffffff
EndChar

StartChar: Abreve
Encoding: 258 258 4
Width: 383
VWidth: 0
Flags: HMW
LayerCount: 2
Fore
SplineSet
73 92 m 0,0,1
 73 140 73 140 108 172.5 c 128,-1,2
 143 205 143 205 191 205 c 0,3,4
 241 205 241 205 277 171.5 c 128,-1,5
 313 138 313 138 313 90 c 0,6,7
 313 40 313 40 277 4.5 c 128,-1,8
 241 -31 241 -31 191 -31 c 0,9,10
 142 -31 142 -31 107.5 5 c 128,-1,11
 73 41 73 41 73 92 c 0,0,1
EndSplineSet
Colour: ffffff
EndChar

StartChar: Acaron
Encoding: 461 461 5
Width: 383
VWidth: 0
Flags: HMW
LayerCount: 2
Fore
SplineSet
73 92 m 0,0,1
 73 140 73 140 108 172.5 c 128,-1,2
 143 205 143 205 191 205 c 0,3,4
 241 205 241 205 277 171.5 c 128,-1,5
 313 138 313 138 313 90 c 0,6,7
 313 40 313 40 277 4.5 c 128,-1,8
 241 -31 241 -31 191 -31 c 0,9,10
 142 -31 142 -31 107.5 5 c 128,-1,11
 73 41 73 41 73 92 c 0,0,1
EndSplineSet
Colour: ffffff
EndChar

StartChar: Acircumflex
Encoding: 194 194 6
Width: 383
VWidth: 0
Flags: HMW
LayerCount: 2
Fore
SplineSet
73 92 m 0,0,1
 73 140 73 140 108 172.5 c 128,-1,2
 143 205 143 205 191 205 c 0,3,4
 241 205 241 205 277 171.5 c 128,-1,5
 313 138 313 138 313 90 c 0,6,7
 313 40 313 40 277 4.5 c 128,-1,8
 241 -31 241 -31 191 -31 c 0,9,10
 142 -31 142 -31 107.5 5 c 128,-1,11
 73 41 73 41 73 92 c 0,0,1
EndSplineSet
Colour: ffffff
EndChar

StartChar: Adieresis
Encoding: 196 196 7
Width: 383
VWidth: 0
Flags: HMW
LayerCount: 2
Fore
SplineSet
73 92 m 0,0,1
 73 140 73 140 108 172.5 c 128,-1,2
 143 205 143 205 191 205 c 0,3,4
 241 205 241 205 277 171.5 c 128,-1,5
 313 138 313 138 313 90 c 0,6,7
 313 40 313 40 277 4.5 c 128,-1,8
 241 -31 241 -31 191 -31 c 0,9,10
 142 -31 142 -31 107.5 5 c 128,-1,11
 73 41 73 41 73 92 c 0,0,1
EndSplineSet
Colour: ffffff
EndChar

StartChar: Agrave
Encoding: 192 192 8
Width: 383
VWidth: 0
Flags: HMW
LayerCount: 2
Fore
SplineSet
73 92 m 0,0,1
 73 140 73 140 108 172.5 c 128,-1,2
 143 205 143 205 191 205 c 0,3,4
 241 205 241 205 277 171.5 c 128,-1,5
 313 138 313 138 313 90 c 0,6,7
 313 40 313 40 277 4.5 c 128,-1,8
 241 -31 241 -31 191 -31 c 0,9,10
 142 -31 142 -31 107.5 5 c 128,-1,11
 73 41 73 41 73 92 c 0,0,1
EndSplineSet
Colour: ffffff
EndChar

StartChar: Amacron
Encoding: 256 256 9
Width: 383
VWidth: 0
Flags: HMW
LayerCount: 2
Fore
SplineSet
73 92 m 0,0,1
 73 140 73 140 108 172.5 c 128,-1,2
 143 205 143 205 191 205 c 0,3,4
 241 205 241 205 277 171.5 c 128,-1,5
 313 138 313 138 313 90 c 0,6,7
 313 40 313 40 277 4.5 c 128,-1,8
 241 -31 241 -31 191 -31 c 0,9,10
 142 -31 142 -31 107.5 5 c 128,-1,11
 73 41 73 41 73 92 c 0,0,1
EndSplineSet
Colour: ffffff
EndChar

StartChar: Aogonek
Encoding: 260 260 10
Width: 383
VWidth: 0
Flags: HMW
LayerCount: 2
Fore
SplineSet
73 92 m 0,0,1
 73 140 73 140 108 172.5 c 128,-1,2
 143 205 143 205 191 205 c 0,3,4
 241 205 241 205 277 171.5 c 128,-1,5
 313 138 313 138 313 90 c 0,6,7
 313 40 313 40 277 4.5 c 128,-1,8
 241 -31 241 -31 191 -31 c 0,9,10
 142 -31 142 -31 107.5 5 c 128,-1,11
 73 41 73 41 73 92 c 0,0,1
EndSplineSet
Colour: ffffff
EndChar

StartChar: Aring
Encoding: 197 197 11
Width: 383
VWidth: 0
Flags: HMW
LayerCount: 2
Fore
SplineSet
73 92 m 0,0,1
 73 140 73 140 108 172.5 c 128,-1,2
 143 205 143 205 191 205 c 0,3,4
 241 205 241 205 277 171.5 c 128,-1,5
 313 138 313 138 313 90 c 0,6,7
 313 40 313 40 277 4.5 c 128,-1,8
 241 -31 241 -31 191 -31 c 0,9,10
 142 -31 142 -31 107.5 5 c 128,-1,11
 73 41 73 41 73 92 c 0,0,1
EndSplineSet
Colour: ffffff
EndChar

StartChar: Atilde
Encoding: 195 195 12
Width: 383
VWidth: 0
Flags: HMW
LayerCount: 2
Fore
SplineSet
73 92 m 0,0,1
 73 140 73 140 108 172.5 c 128,-1,2
 143 205 143 205 191 205 c 0,3,4
 241 205 241 205 277 171.5 c 128,-1,5
 313 138 313 138 313 90 c 0,6,7
 313 40 313 40 277 4.5 c 128,-1,8
 241 -31 241 -31 191 -31 c 0,9,10
 142 -31 142 -31 107.5 5 c 128,-1,11
 73 41 73 41 73 92 c 0,0,1
EndSplineSet
Colour: ffffff
EndChar

StartChar: B
Encoding: 66 66 13
Width: 1127
VWidth: 1691
Flags: HMW
LayerCount: 2
Fore
SplineSet
420 688 m 1,0,-1
 678 688 l 1,1,2
 808 742 808 742 808 909 c 0,3,4
 808 959 808 959 793.5 1002.5 c 128,-1,5
 779 1046 779 1046 746 1085.5 c 128,-1,6
 713 1125 713 1125 650 1148 c 128,-1,7
 587 1171 587 1171 500 1171 c 0,8,9
 467 1171 467 1171 420 1164 c 1,10,-1
 420 688 l 1,0,-1
420 96 m 1,11,-1
 640 96 l 2,12,13
 764 96 764 96 834 169.5 c 128,-1,14
 904 243 904 243 904 347 c 0,15,16
 904 449 904 449 835 527 c 128,-1,17
 766 605 766 605 643 605 c 2,18,-1
 420 605 l 1,19,-1
 420 96 l 1,11,-1
50 0 m 1,20,-1
 61 74 l 1,21,-1
 228 121 l 1,22,-1
 228 1104 l 1,23,-1
 57 1134 l 1,24,-1
 67 1211 l 1,25,26
 385 1257 385 1257 559 1257 c 0,27,28
 671 1257 671 1257 757.5 1233 c 128,-1,29
 844 1209 844 1209 894.5 1168 c 128,-1,30
 945 1127 945 1127 970.5 1076.5 c 128,-1,31
 996 1026 996 1026 996 967 c 0,32,33
 996 910 996 910 978.5 858.5 c 128,-1,34
 961 807 961 807 912.5 756.5 c 128,-1,35
 864 706 864 706 790 679 c 1,36,-1
 790 672 l 1,37,38
 934 664 934 664 1017 576 c 128,-1,39
 1100 488 1100 488 1100 380 c 0,40,41
 1100 321 1100 321 1083.5 268 c 128,-1,42
 1067 215 1067 215 1028 165 c 128,-1,43
 989 115 989 115 929.5 79 c 128,-1,44
 870 43 870 43 777.5 21.5 c 128,-1,45
 685 0 685 0 568 0 c 2,46,-1
 50 0 l 1,20,-1
EndSplineSet
Colour: ffffff
EndChar

StartChar: C
Encoding: 67 67 14
Width: 1111
VWidth: 1691
Flags: HMW
LayerCount: 2
Fore
SplineSet
61 589 m 0,0,1
 61 681 61 681 83.5 773.5 c 128,-1,2
 106 866 106 866 156.5 956 c 128,-1,3
 207 1046 207 1046 279.5 1115 c 128,-1,4
 352 1184 352 1184 462 1226.5 c 128,-1,5
 572 1269 572 1269 704 1269 c 0,6,7
 934 1269 934 1269 1066 1169 c 1,8,-1
 1035 837 l 1,9,-1
 947 850 l 1,10,-1
 905 1070 l 1,11,12
 824 1174 824 1174 647 1174 c 0,13,14
 487 1174 487 1174 381 1034 c 128,-1,15
 275 894 275 894 275 658 c 0,16,17
 275 528 275 528 312.5 422 c 128,-1,18
 350 316 350 316 413 249 c 128,-1,19
 476 182 476 182 557 146.5 c 128,-1,20
 638 111 638 111 728 111 c 0,21,22
 822 111 822 111 914.5 153.5 c 128,-1,23
 1007 196 1007 196 1078 261 c 1,24,-1
 1113 185 l 1,25,26
 1045 102 1045 102 920 39 c 128,-1,27
 795 -24 795 -24 651 -24 c 0,28,29
 534 -24 534 -24 429 16.5 c 128,-1,30
 324 57 324 57 241.5 132 c 128,-1,31
 159 207 159 207 110 325.5 c 128,-1,32
 61 444 61 444 61 589 c 0,0,1
EndSplineSet
Colour: ffffff
EndChar

StartChar: Cacute
Encoding: 262 262 15
Width: 383
VWidth: 0
Flags: HMW
LayerCount: 2
Fore
SplineSet
73 92 m 0,0,1
 73 140 73 140 108 172.5 c 128,-1,2
 143 205 143 205 191 205 c 0,3,4
 241 205 241 205 277 171.5 c 128,-1,5
 313 138 313 138 313 90 c 0,6,7
 313 40 313 40 277 4.5 c 128,-1,8
 241 -31 241 -31 191 -31 c 0,9,10
 142 -31 142 -31 107.5 5 c 128,-1,11
 73 41 73 41 73 92 c 0,0,1
EndSplineSet
Colour: ffffff
EndChar

StartChar: Ccaron
Encoding: 268 268 16
Width: 383
VWidth: 0
Flags: HMW
LayerCount: 2
Fore
SplineSet
73 92 m 0,0,1
 73 140 73 140 108 172.5 c 128,-1,2
 143 205 143 205 191 205 c 0,3,4
 241 205 241 205 277 171.5 c 128,-1,5
 313 138 313 138 313 90 c 0,6,7
 313 40 313 40 277 4.5 c 128,-1,8
 241 -31 241 -31 191 -31 c 0,9,10
 142 -31 142 -31 107.5 5 c 128,-1,11
 73 41 73 41 73 92 c 0,0,1
EndSplineSet
Colour: ffffff
EndChar

StartChar: Ccedilla
Encoding: 199 199 17
Width: 383
VWidth: 0
Flags: HMW
LayerCount: 2
Fore
SplineSet
73 92 m 0,0,1
 73 140 73 140 108 172.5 c 128,-1,2
 143 205 143 205 191 205 c 0,3,4
 241 205 241 205 277 171.5 c 128,-1,5
 313 138 313 138 313 90 c 0,6,7
 313 40 313 40 277 4.5 c 128,-1,8
 241 -31 241 -31 191 -31 c 0,9,10
 142 -31 142 -31 107.5 5 c 128,-1,11
 73 41 73 41 73 92 c 0,0,1
EndSplineSet
Colour: ffffff
EndChar

StartChar: Cdotaccent
Encoding: 266 266 18
Width: 383
VWidth: 0
Flags: HMW
LayerCount: 2
Fore
SplineSet
73 92 m 0,0,1
 73 140 73 140 108 172.5 c 128,-1,2
 143 205 143 205 191 205 c 0,3,4
 241 205 241 205 277 171.5 c 128,-1,5
 313 138 313 138 313 90 c 0,6,7
 313 40 313 40 277 4.5 c 128,-1,8
 241 -31 241 -31 191 -31 c 0,9,10
 142 -31 142 -31 107.5 5 c 128,-1,11
 73 41 73 41 73 92 c 0,0,1
EndSplineSet
Colour: ffffff
EndChar

StartChar: D
Encoding: 68 68 19
Width: 1327
VWidth: 1691
Flags: HMW
LayerCount: 2
Fore
SplineSet
424 104 m 1,0,-1
 569 104 l 2,1,2
 698 104 698 104 800 143.5 c 128,-1,3
 902 183 902 183 965 251.5 c 128,-1,4
 1028 320 1028 320 1060.5 408 c 128,-1,5
 1093 496 1093 496 1093 598 c 0,6,7
 1093 715 1093 715 1058.5 815 c 128,-1,8
 1024 915 1024 915 958 991.5 c 128,-1,9
 892 1068 892 1068 786 1111.5 c 128,-1,10
 680 1155 680 1155 546 1155 c 0,11,12
 464 1155 464 1155 424 1151 c 1,13,-1
 424 104 l 1,0,-1
47 0 m 1,14,-1
 61 74 l 1,15,-1
 233 129 l 1,16,-1
 233 1103 l 1,17,-1
 61 1133 l 1,18,-1
 70 1209 l 1,19,20
 381 1258 381 1258 583 1258 c 0,21,22
 746 1258 746 1258 873 1224 c 128,-1,23
 1000 1190 1000 1190 1080 1134 c 128,-1,24
 1160 1078 1160 1078 1211.5 998.5 c 128,-1,25
 1263 919 1263 919 1283.5 834.5 c 128,-1,26
 1304 750 1304 750 1304 653 c 0,27,28
 1304 549 1304 549 1274.5 453.5 c 128,-1,29
 1245 358 1245 358 1182.5 275 c 128,-1,30
 1120 192 1120 192 1031 131 c 128,-1,31
 942 70 942 70 816.5 35 c 128,-1,32
 691 0 691 0 541 0 c 2,33,-1
 47 0 l 1,14,-1
EndSplineSet
Colour: ffffff
EndChar

StartChar: Dcaron
Encoding: 270 270 20
Width: 383
VWidth: 0
Flags: HMW
LayerCount: 2
Fore
SplineSet
73 92 m 0,0,1
 73 140 73 140 108 172.5 c 128,-1,2
 143 205 143 205 191 205 c 0,3,4
 241 205 241 205 277 171.5 c 128,-1,5
 313 138 313 138 313 90 c 0,6,7
 313 40 313 40 277 4.5 c 128,-1,8
 241 -31 241 -31 191 -31 c 0,9,10
 142 -31 142 -31 107.5 5 c 128,-1,11
 73 41 73 41 73 92 c 0,0,1
EndSplineSet
Colour: ffffff
EndChar

StartChar: Dcroat
Encoding: 272 272 21
Width: 383
VWidth: 0
Flags: HMW
LayerCount: 2
Fore
SplineSet
73 92 m 0,0,1
 73 140 73 140 108 172.5 c 128,-1,2
 143 205 143 205 191 205 c 0,3,4
 241 205 241 205 277 171.5 c 128,-1,5
 313 138 313 138 313 90 c 0,6,7
 313 40 313 40 277 4.5 c 128,-1,8
 241 -31 241 -31 191 -31 c 0,9,10
 142 -31 142 -31 107.5 5 c 128,-1,11
 73 41 73 41 73 92 c 0,0,1
EndSplineSet
Colour: ffffff
EndChar

StartChar: E
Encoding: 69 69 22
Width: 1075
VWidth: 1691
Flags: HMW
LayerCount: 2
Fore
SplineSet
50 1168 m 1,0,-1
 61 1244 l 1,1,-1
 1056 1244 l 1,2,-1
 1025 924 l 1,3,-1
 938 937 l 1,4,-1
 897 1152 l 1,5,-1
 426 1152 l 1,6,-1
 426 676 l 1,7,-1
 716 676 l 1,8,-1
 758 796 l 1,9,-1
 853 810 l 1,10,-1
 819 421 l 1,11,-1
 734 408 l 1,12,-1
 700 583 l 1,13,-1
 426 583 l 1,14,-1
 426 96 l 1,15,-1
 921 96 l 1,16,-1
 1019 326 l 1,17,-1
 1102 313 l 1,18,-1
 1072 0 l 1,19,-1
 57 0 l 1,20,-1
 65 74 l 1,21,-1
 232 121 l 1,22,-1
 232 1126 l 1,23,-1
 50 1168 l 1,0,-1
EndSplineSet
Colour: ffffff
EndChar

StartChar: Eacute
Encoding: 201 201 23
Width: 383
VWidth: 0
Flags: HMW
LayerCount: 2
Fore
SplineSet
73 92 m 0,0,1
 73 140 73 140 108 172.5 c 128,-1,2
 143 205 143 205 191 205 c 0,3,4
 241 205 241 205 277 171.5 c 128,-1,5
 313 138 313 138 313 90 c 0,6,7
 313 40 313 40 277 4.5 c 128,-1,8
 241 -31 241 -31 191 -31 c 0,9,10
 142 -31 142 -31 107.5 5 c 128,-1,11
 73 41 73 41 73 92 c 0,0,1
EndSplineSet
Colour: ffffff
EndChar

StartChar: Ecaron
Encoding: 282 282 24
Width: 383
VWidth: 0
Flags: HMW
LayerCount: 2
Fore
SplineSet
73 92 m 0,0,1
 73 140 73 140 108 172.5 c 128,-1,2
 143 205 143 205 191 205 c 0,3,4
 241 205 241 205 277 171.5 c 128,-1,5
 313 138 313 138 313 90 c 0,6,7
 313 40 313 40 277 4.5 c 128,-1,8
 241 -31 241 -31 191 -31 c 0,9,10
 142 -31 142 -31 107.5 5 c 128,-1,11
 73 41 73 41 73 92 c 0,0,1
EndSplineSet
Colour: ffffff
EndChar

StartChar: Ecircumflex
Encoding: 202 202 25
Width: 383
VWidth: 0
Flags: HMW
LayerCount: 2
Fore
SplineSet
73 92 m 0,0,1
 73 140 73 140 108 172.5 c 128,-1,2
 143 205 143 205 191 205 c 0,3,4
 241 205 241 205 277 171.5 c 128,-1,5
 313 138 313 138 313 90 c 0,6,7
 313 40 313 40 277 4.5 c 128,-1,8
 241 -31 241 -31 191 -31 c 0,9,10
 142 -31 142 -31 107.5 5 c 128,-1,11
 73 41 73 41 73 92 c 0,0,1
EndSplineSet
Colour: ffffff
EndChar

StartChar: Edieresis
Encoding: 203 203 26
Width: 383
VWidth: 0
Flags: HMW
LayerCount: 2
Fore
SplineSet
73 92 m 0,0,1
 73 140 73 140 108 172.5 c 128,-1,2
 143 205 143 205 191 205 c 0,3,4
 241 205 241 205 277 171.5 c 128,-1,5
 313 138 313 138 313 90 c 0,6,7
 313 40 313 40 277 4.5 c 128,-1,8
 241 -31 241 -31 191 -31 c 0,9,10
 142 -31 142 -31 107.5 5 c 128,-1,11
 73 41 73 41 73 92 c 0,0,1
EndSplineSet
Colour: ffffff
EndChar

StartChar: Edotaccent
Encoding: 278 278 27
Width: 383
VWidth: 0
Flags: HMW
LayerCount: 2
Fore
SplineSet
73 92 m 0,0,1
 73 140 73 140 108 172.5 c 128,-1,2
 143 205 143 205 191 205 c 0,3,4
 241 205 241 205 277 171.5 c 128,-1,5
 313 138 313 138 313 90 c 0,6,7
 313 40 313 40 277 4.5 c 128,-1,8
 241 -31 241 -31 191 -31 c 0,9,10
 142 -31 142 -31 107.5 5 c 128,-1,11
 73 41 73 41 73 92 c 0,0,1
EndSplineSet
Colour: ffffff
EndChar

StartChar: Egrave
Encoding: 200 200 28
Width: 383
VWidth: 0
Flags: HMW
LayerCount: 2
Fore
SplineSet
73 92 m 0,0,1
 73 140 73 140 108 172.5 c 128,-1,2
 143 205 143 205 191 205 c 0,3,4
 241 205 241 205 277 171.5 c 128,-1,5
 313 138 313 138 313 90 c 0,6,7
 313 40 313 40 277 4.5 c 128,-1,8
 241 -31 241 -31 191 -31 c 0,9,10
 142 -31 142 -31 107.5 5 c 128,-1,11
 73 41 73 41 73 92 c 0,0,1
EndSplineSet
Colour: ffffff
EndChar

StartChar: Emacron
Encoding: 274 274 29
Width: 383
VWidth: 0
Flags: HMW
LayerCount: 2
Fore
SplineSet
73 92 m 0,0,1
 73 140 73 140 108 172.5 c 128,-1,2
 143 205 143 205 191 205 c 0,3,4
 241 205 241 205 277 171.5 c 128,-1,5
 313 138 313 138 313 90 c 0,6,7
 313 40 313 40 277 4.5 c 128,-1,8
 241 -31 241 -31 191 -31 c 0,9,10
 142 -31 142 -31 107.5 5 c 128,-1,11
 73 41 73 41 73 92 c 0,0,1
EndSplineSet
Colour: ffffff
EndChar

StartChar: Eng
Encoding: 330 330 30
Width: 383
VWidth: 0
Flags: HMW
LayerCount: 2
Fore
SplineSet
73 92 m 0,0,1
 73 140 73 140 108 172.5 c 128,-1,2
 143 205 143 205 191 205 c 0,3,4
 241 205 241 205 277 171.5 c 128,-1,5
 313 138 313 138 313 90 c 0,6,7
 313 40 313 40 277 4.5 c 128,-1,8
 241 -31 241 -31 191 -31 c 0,9,10
 142 -31 142 -31 107.5 5 c 128,-1,11
 73 41 73 41 73 92 c 0,0,1
EndSplineSet
Colour: ffffff
EndChar

StartChar: Eogonek
Encoding: 280 280 31
Width: 383
VWidth: 0
Flags: HMW
LayerCount: 2
Fore
SplineSet
73 92 m 0,0,1
 73 140 73 140 108 172.5 c 128,-1,2
 143 205 143 205 191 205 c 0,3,4
 241 205 241 205 277 171.5 c 128,-1,5
 313 138 313 138 313 90 c 0,6,7
 313 40 313 40 277 4.5 c 128,-1,8
 241 -31 241 -31 191 -31 c 0,9,10
 142 -31 142 -31 107.5 5 c 128,-1,11
 73 41 73 41 73 92 c 0,0,1
EndSplineSet
Colour: ffffff
EndChar

StartChar: Eth
Encoding: 208 208 32
Width: 383
VWidth: 0
Flags: HMW
LayerCount: 2
Fore
SplineSet
73 92 m 0,0,1
 73 140 73 140 108 172.5 c 128,-1,2
 143 205 143 205 191 205 c 0,3,4
 241 205 241 205 277 171.5 c 128,-1,5
 313 138 313 138 313 90 c 0,6,7
 313 40 313 40 277 4.5 c 128,-1,8
 241 -31 241 -31 191 -31 c 0,9,10
 142 -31 142 -31 107.5 5 c 128,-1,11
 73 41 73 41 73 92 c 0,0,1
EndSplineSet
Colour: ffffff
EndChar

StartChar: Euro
Encoding: 8364 8364 33
Width: 1161
VWidth: 0
Flags: HMW
LayerCount: 2
Back
SplineSet
-43.7471 649.094 m 1,0,-1
 -41.7129 732.52 l 1,1,-1
 956.344 732.52 l 1,2,-1
 940.065 649.094 l 1,3,-1
 -43.7471 649.094 l 1,0,-1
-35.6084 868.849 m 1,4,-1
 -33.5742 951.257 l 1,5,-1
 1014.33 951.257 l 1,6,-1
 998.057 868.849 l 1,7,-1
 -35.6084 868.849 l 1,4,-1
178.043 732.52 m 0,8,9
 178.043 876.313 178.043 876.313 203.925 1003.88 c 0
 229.807 1131.46 229.807 1131.46 284.6 1240.14 c 0
 339.393 1348.82 339.393 1348.82 418.944 1427.25 c 0
 498.494 1505.68 498.494 1505.68 611.694 1549.96 c 0
 724.894 1594.25 724.894 1594.25 861.727 1594.25 c 0,10,11
 985.429 1594.25 985.429 1594.25 1069.39 1566.44 c 0
 1153.36 1538.63 1153.36 1538.63 1245.28 1469.11 c 1,12,-1
 1204.59 1045.87 l 1,13,-1
 1149.65 1056.05 l 1,14,-1
 1112 1381.61 l 1,15,16
 1072.18 1449.07 1072.18 1449.07 1014.95 1480.96 c 0
 957.733 1512.85 957.733 1512.85 856.641 1512.85 c 0,17,18
 688.496 1512.85 688.496 1512.85 569.753 1422.47 c 0
 451.009 1332.08 451.009 1332.08 391.339 1166.44 c 0
 331.669 1000.8 331.669 1000.8 331.669 772.196 c 0,19,20
 331.669 594.07 331.669 594.07 368.45 456.973 c 0
 405.232 319.876 405.232 319.876 473.868 231.767 c 0
 542.503 143.657 542.503 143.657 638.407 98.7896 c 0
 734.31 53.9219 734.31 53.9219 854.604 53.9219 c 0,21,22
 920.693 53.9219 920.693 53.9219 996.807 94.5556 c 0
 1072.92 135.189 1072.92 135.189 1131.33 215.686 c 1,23,-1
 1170 542.268 l 1,24,-1
 1225.95 549.389 l 1,25,-1
 1265.63 129.209 l 1,26,27
 1146.61 44.6586 1146.61 44.6586 1041.61 6.55975 c 0
 936.614 -31.5391 936.614 -31.5391 790.509 -31.5391 c 0,28,29
 656.96 -31.5391 656.96 -31.5391 543.488 23.1771 c 0
 430.016 77.8933 430.016 77.8933 349.412 176.469 c 0
 268.807 275.045 268.807 275.045 223.425 418.273 c 0
 178.043 561.502 178.043 561.502 178.043 732.52 c 0,8,9
EndSplineSet
Fore
SplineSet
-4 651 m 1,0,-1
 6 750 l 1,1,-1
 153 750 l 1,2,3
 167 828 167 828 199 901.5 c 128,-1,4
 231 975 231 975 283 1042 c 128,-1,5
 335 1109 335 1109 401.5 1159.5 c 128,-1,6
 468 1210 468 1210 558 1239.5 c 128,-1,7
 648 1269 648 1269 750 1269 c 0,8,9
 851 1269 851 1269 930 1246 c 128,-1,10
 1009 1223 1009 1223 1079 1169 c 1,11,-1
 1048 837 l 1,12,-1
 960 850 l 1,13,-1
 918 1070 l 1,14,15
 877 1122 877 1122 829 1148 c 128,-1,16
 781 1174 781 1174 693 1174 c 0,17,18
 544 1174 544 1174 458 1060 c 128,-1,19
 372 946 372 946 357 750 c 1,20,-1
 898 750 l 1,21,-1
 877 651 l 1,22,-1
 354 651 l 1,23,24
 355 608 355 608 359 567 c 1,25,-1
 849 567 l 1,26,-1
 828 468 l 1,27,-1
 374 468 l 1,28,29
 411 293 411 293 508.5 188 c 128,-1,30
 606 83 606 83 750 83 c 0,31,32
 801 83 801 83 851 105.5 c 128,-1,33
 901 128 901 128 934 174 c 1,34,-1
 977 401 l 1,35,-1
 1065 414 l 1,36,-1
 1096 111 l 1,37,38
 1002 37 1002 37 912.5 6.5 c 128,-1,39
 823 -24 823 -24 700 -24 c 0,40,41
 485 -24 485 -24 340.5 107.5 c 128,-1,42
 196 239 196 239 156 468 c 1,43,-1
 -14 468 l 1,44,-1
 -4 567 l 1,45,-1
 144 567 l 1,46,47
 142 601 142 601 142 636 c 0,48,49
 142 643 142 643 142 651 c 1,50,-1
 -4 651 l 1,0,-1
EndSplineSet
Colour: ffffff
EndChar

StartChar: F
Encoding: 70 70 34
Width: 1028
VWidth: 1691
Flags: HMW
LayerCount: 2
Fore
SplineSet
50 1168 m 1,0,-1
 61 1244 l 1,1,-1
 1054 1244 l 1,2,-1
 1013 922 l 1,3,-1
 925 936 l 1,4,-1
 891 1152 l 1,5,-1
 426 1152 l 1,6,-1
 426 670 l 1,7,-1
 713 670 l 1,8,-1
 755 790 l 1,9,-1
 845 804 l 1,10,-1
 818 412 l 1,11,-1
 730 398 l 1,12,-1
 700 578 l 1,13,-1
 426 578 l 1,14,-1
 423 122 l 1,15,-1
 661 83 l 1,16,-1
 648 0 l 1,17,-1
 57 0 l 1,18,-1
 65 74 l 1,19,-1
 232 121 l 1,20,-1
 232 1126 l 1,21,-1
 50 1168 l 1,0,-1
EndSplineSet
Colour: ffffff
EndChar

StartChar: G
Encoding: 71 71 35
Width: 1276
VWidth: 1691
Flags: HMW
LayerCount: 2
Fore
SplineSet
61 578 m 0,0,1
 61 703 61 703 97 813 c 128,-1,2
 133 923 133 923 196 1004 c 128,-1,3
 259 1085 259 1085 342.5 1143 c 128,-1,4
 426 1201 426 1201 521.5 1230.5 c 128,-1,5
 617 1260 617 1260 717 1260 c 0,6,7
 976 1260 976 1260 1139 1163 c 1,8,-1
 1115 841 l 1,9,-1
 1028 856 l 1,10,-1
 992 1047 l 1,11,12
 950 1089 950 1089 861.5 1125 c 128,-1,13
 773 1161 773 1161 667 1161 c 0,14,15
 590 1161 590 1161 522 1131.5 c 128,-1,16
 454 1102 454 1102 398 1042.5 c 128,-1,17
 342 983 342 983 309 881 c 128,-1,18
 276 779 276 779 276 647 c 0,19,20
 276 558 276 558 296.5 474 c 128,-1,21
 317 390 317 390 359 318 c 128,-1,22
 401 246 401 246 459.5 192 c 128,-1,23
 518 138 518 138 598 107.5 c 128,-1,24
 678 77 678 77 771 77 c 0,25,26
 870 77 870 77 943 119 c 1,27,-1
 943 434 l 1,28,-1
 707 472 l 1,29,-1
 719 555 l 1,30,-1
 1275 555 l 1,31,-1
 1263 480 l 1,32,-1
 1139 439 l 1,33,-1
 1139 79 l 1,34,35
 1042 21 1042 21 926.5 -5 c 128,-1,36
 811 -31 811 -31 658 -31 c 0,37,38
 511 -31 511 -31 395.5 16 c 128,-1,39
 280 63 280 63 208 146 c 128,-1,40
 136 229 136 229 98.5 338.5 c 128,-1,41
 61 448 61 448 61 578 c 0,0,1
EndSplineSet
Colour: ffffff
EndChar

StartChar: Gbreve
Encoding: 286 286 36
Width: 383
VWidth: 0
Flags: HMW
LayerCount: 2
Fore
SplineSet
73 92 m 0,0,1
 73 140 73 140 108 172.5 c 128,-1,2
 143 205 143 205 191 205 c 0,3,4
 241 205 241 205 277 171.5 c 128,-1,5
 313 138 313 138 313 90 c 0,6,7
 313 40 313 40 277 4.5 c 128,-1,8
 241 -31 241 -31 191 -31 c 0,9,10
 142 -31 142 -31 107.5 5 c 128,-1,11
 73 41 73 41 73 92 c 0,0,1
EndSplineSet
Colour: ffffff
EndChar

StartChar: Gcommaaccent
Encoding: 290 290 37
Width: 383
VWidth: 0
Flags: HMW
LayerCount: 2
Fore
SplineSet
73 92 m 0,0,1
 73 140 73 140 108 172.5 c 128,-1,2
 143 205 143 205 191 205 c 0,3,4
 241 205 241 205 277 171.5 c 128,-1,5
 313 138 313 138 313 90 c 0,6,7
 313 40 313 40 277 4.5 c 128,-1,8
 241 -31 241 -31 191 -31 c 0,9,10
 142 -31 142 -31 107.5 5 c 128,-1,11
 73 41 73 41 73 92 c 0,0,1
EndSplineSet
Colour: ffffff
EndChar

StartChar: Gdotaccent
Encoding: 288 288 38
Width: 383
VWidth: 0
Flags: HMW
LayerCount: 2
Fore
SplineSet
73 92 m 0,0,1
 73 140 73 140 108 172.5 c 128,-1,2
 143 205 143 205 191 205 c 0,3,4
 241 205 241 205 277 171.5 c 128,-1,5
 313 138 313 138 313 90 c 0,6,7
 313 40 313 40 277 4.5 c 128,-1,8
 241 -31 241 -31 191 -31 c 0,9,10
 142 -31 142 -31 107.5 5 c 128,-1,11
 73 41 73 41 73 92 c 0,0,1
EndSplineSet
Colour: ffffff
EndChar

StartChar: Germandbls
Encoding: 7838 7838 39
Width: 1283
VWidth: 0
Flags: HMW
LayerCount: 2
Fore
SplineSet
26 0 m 1,0,-1
 34 73 l 1,1,-1
 198 119 l 1,2,-1
 198 751 l 2,3,4
 198 1005 198 1005 327.5 1127.5 c 128,-1,5
 457 1250 457 1250 689 1250 c 0,6,7
 767 1250 767 1250 843.5 1240 c 128,-1,8
 920 1230 920 1230 997 1207.5 c 128,-1,9
 1074 1185 1074 1185 1121.5 1139.5 c 128,-1,10
 1169 1094 1169 1094 1169 1032 c 0,11,12
 1169 978 1169 978 1140 948 c 128,-1,13
 1111 918 1111 918 1049 897 c 1,14,15
 1036 933 1036 933 1030 950 c 128,-1,16
 1024 967 1024 967 1010.5 998 c 128,-1,17
 997 1029 997 1029 984.5 1044.5 c 128,-1,18
 972 1060 972 1060 953.5 1078.5 c 128,-1,19
 935 1097 935 1097 912.5 1104.5 c 128,-1,20
 890 1112 890 1112 862 1112 c 0,21,22
 797 1112 797 1112 744 1056.5 c 128,-1,23
 691 1001 691 1001 691 928 c 0,24,25
 691 869 691 869 721 822 c 128,-1,26
 751 775 751 775 798.5 742.5 c 128,-1,27
 846 710 846 710 904 680 c 128,-1,28
 962 650 962 650 1019.5 617.5 c 128,-1,29
 1077 585 1077 585 1124.5 546.5 c 128,-1,30
 1172 508 1172 508 1202 449 c 128,-1,31
 1232 390 1232 390 1232 316 c 0,32,33
 1232 207 1232 207 1176.5 128.5 c 128,-1,34
 1121 50 1121 50 1031 13 c 128,-1,35
 941 -24 941 -24 826 -24 c 0,36,37
 717 -24 717 -24 626 15 c 128,-1,38
 535 54 535 54 494 121 c 1,39,-1
 507 376 l 1,40,-1
 602 361 l 1,41,-1
 637 184 l 1,42,43
 665 139 665 139 724 107.5 c 128,-1,44
 783 76 783 76 849 76 c 0,45,46
 1050 76 1050 76 1050 250 c 0,47,48
 1050 301 1050 301 1021 342.5 c 128,-1,49
 992 384 992 384 945 413 c 128,-1,50
 898 442 898 442 842 470 c 128,-1,51
 786 498 786 498 729.5 530 c 128,-1,52
 673 562 673 562 626 600 c 128,-1,53
 579 638 579 638 550 697 c 128,-1,54
 521 756 521 756 521 829 c 0,55,56
 521 950 521 950 588 1040.5 c 128,-1,57
 655 1131 655 1131 761 1155 c 1,58,-1
 763 1158 l 1,59,60
 735 1161 735 1161 676 1161 c 0,61,62
 387 1161 387 1161 387 774 c 2,63,-1
 389 0 l 1,64,-1
 26 0 l 1,0,-1
EndSplineSet
Colour: ffffff
EndChar

StartChar: Germandbls.alt
Encoding: 65537 -1 40
Width: 1283
VWidth: 0
Flags: HMW
LayerCount: 2
Fore
SplineSet
25 0 m 1,0,-1
 33 73 l 1,1,-1
 198 119 l 1,2,-1
 198 678 l 2,3,4
 198 838 198 838 232 951 c 128,-1,5
 266 1064 266 1064 332.5 1128.5 c 128,-1,6
 399 1193 399 1193 485.5 1221.5 c 128,-1,7
 572 1250 572 1250 688 1250 c 0,8,9
 812 1250 812 1250 951.5 1238.5 c 128,-1,10
 1091 1227 1091 1227 1134 1213 c 1,11,-1
 1135 1142 l 1,12,-1
 835 751 l 1,13,14
 853 738 853 738 908.5 710 c 128,-1,15
 964 682 964 682 1013.5 651.5 c 128,-1,16
 1063 621 1063 621 1116 576.5 c 128,-1,17
 1169 532 1169 532 1200.5 469 c 128,-1,18
 1232 406 1232 406 1232 332 c 0,19,20
 1232 168 1232 168 1115.5 72 c 128,-1,21
 999 -24 999 -24 825 -24 c 0,22,23
 718 -24 718 -24 626 18.5 c 128,-1,24
 534 61 534 61 493 129 c 1,25,-1
 506 392 l 1,26,-1
 607 377 l 1,27,-1
 646 192 l 1,28,29
 676 144 676 144 730 110 c 128,-1,30
 784 76 784 76 848 76 c 0,31,32
 935 76 935 76 992 122 c 128,-1,33
 1049 168 1049 168 1049 266 c 0,34,35
 1049 306 1049 306 1026.5 345.5 c 128,-1,36
 1004 385 1004 385 972.5 415 c 128,-1,37
 941 445 941 445 889 480 c 128,-1,38
 837 515 837 515 797 537 c 128,-1,39
 757 559 757 559 697 591 c 128,-1,40
 637 623 637 623 609 639 c 1,41,-1
 586 687 l 1,42,-1
 906 1125 l 1,43,-1
 906 1130 l 1,44,45
 879 1142 879 1142 790.5 1151.5 c 128,-1,46
 702 1161 702 1161 675 1161 c 0,47,48
 574 1161 574 1161 512.5 1120 c 128,-1,49
 451 1079 451 1079 418.5 976.5 c 128,-1,50
 386 874 386 874 386 700 c 2,51,-1
 388 0 l 1,52,-1
 25 0 l 1,0,-1
EndSplineSet
Colour: ffffff
EndChar

StartChar: Germandbls.alt2
Encoding: 65538 -1 41
Width: 1283
VWidth: 0
Flags: HMW
LayerCount: 2
Fore
SplineSet
26 0 m 1,0,-1
 34 73 l 1,1,-1
 198 119 l 1,2,-1
 198 751 l 2,3,4
 198 1005 198 1005 327.5 1127.5 c 128,-1,5
 457 1250 457 1250 689 1250 c 0,6,7
 827 1250 827 1250 950.5 1223 c 128,-1,8
 1074 1196 1074 1196 1145 1151 c 1,9,-1
 1125 873 l 1,10,-1
 1028 884 l 1,11,-1
 1002 1063 l 1,12,13
 939 1113 939 1113 853 1113 c 0,14,15
 795 1113 795 1113 743 1064.5 c 128,-1,16
 691 1016 691 1016 691 945 c 0,17,18
 691 886 691 886 721 838 c 128,-1,19
 751 790 751 790 798.5 756 c 128,-1,20
 846 722 846 722 904 690.5 c 128,-1,21
 962 659 962 659 1019.5 624.5 c 128,-1,22
 1077 590 1077 590 1124.5 549.5 c 128,-1,23
 1172 509 1172 509 1202 449.5 c 128,-1,24
 1232 390 1232 390 1232 316 c 0,25,26
 1232 207 1232 207 1176.5 128.5 c 128,-1,27
 1121 50 1121 50 1031 13 c 128,-1,28
 941 -24 941 -24 826 -24 c 0,29,30
 717 -24 717 -24 626 15 c 128,-1,31
 535 54 535 54 494 121 c 1,32,-1
 507 384 l 1,33,-1
 608 369 l 1,34,-1
 647 184 l 1,35,36
 676 138 676 138 730 107 c 128,-1,37
 784 76 784 76 849 76 c 0,38,39
 1050 76 1050 76 1050 250 c 0,40,41
 1050 301 1050 301 1021 343 c 128,-1,42
 992 385 992 385 945 416 c 128,-1,43
 898 447 898 447 842 476.5 c 128,-1,44
 786 506 786 506 729.5 539.5 c 128,-1,45
 673 573 673 573 626 613 c 128,-1,46
 579 653 579 653 550 712.5 c 128,-1,47
 521 772 521 772 521 845 c 0,48,49
 521 965 521 965 587.5 1047.5 c 128,-1,50
 654 1130 654 1130 761 1155 c 1,51,-1
 763 1158 l 1,52,53
 735 1161 735 1161 676 1161 c 0,54,55
 387 1161 387 1161 387 774 c 2,56,-1
 389 0 l 1,57,-1
 26 0 l 1,0,-1
EndSplineSet
Colour: ffffff
EndChar

StartChar: H
Encoding: 72 72 42
Width: 1416
VWidth: 1691
Flags: HMW
LayerCount: 2
Fore
SplineSet
50 1168 m 1,0,-1
 61 1244 l 1,1,-1
 605 1244 l 1,2,-1
 595 1168 l 1,3,-1
 427 1130 l 1,4,-1
 427 692 l 1,5,-1
 1054 692 l 1,6,-1
 1054 1126 l 1,7,-1
 871 1168 l 1,8,-1
 882 1244 l 1,9,-1
 1428 1244 l 1,10,-1
 1416 1168 l 1,11,-1
 1249 1130 l 1,12,-1
 1249 114 l 1,13,-1
 1431 80 l 1,14,-1
 1421 0 l 1,15,-1
 878 0 l 1,16,-1
 888 74 l 1,17,-1
 1054 121 l 1,18,-1
 1054 589 l 1,19,-1
 427 589 l 1,20,-1
 427 114 l 1,21,-1
 611 80 l 1,22,-1
 598 0 l 1,23,-1
 57 0 l 1,24,-1
 65 74 l 1,25,-1
 232 121 l 1,26,-1
 232 1126 l 1,27,-1
 50 1168 l 1,0,-1
EndSplineSet
Colour: ffffff
EndChar

StartChar: Hbar
Encoding: 294 294 43
Width: 383
VWidth: 0
Flags: HMW
LayerCount: 2
Fore
SplineSet
73 92 m 0,0,1
 73 140 73 140 108 172.5 c 128,-1,2
 143 205 143 205 191 205 c 0,3,4
 241 205 241 205 277 171.5 c 128,-1,5
 313 138 313 138 313 90 c 0,6,7
 313 40 313 40 277 4.5 c 128,-1,8
 241 -31 241 -31 191 -31 c 0,9,10
 142 -31 142 -31 107.5 5 c 128,-1,11
 73 41 73 41 73 92 c 0,0,1
EndSplineSet
Colour: ffffff
EndChar

StartChar: I
Encoding: 73 73 44
Width: 601
VWidth: 1691
Flags: HMW
LayerCount: 2
Fore
SplineSet
50 1168 m 1,0,-1
 61 1244 l 1,1,-1
 605 1244 l 1,2,-1
 595 1168 l 1,3,-1
 426 1130 l 1,4,-1
 426 114 l 1,5,-1
 607 80 l 1,6,-1
 597 0 l 1,7,-1
 57 0 l 1,8,-1
 65 74 l 1,9,-1
 232 121 l 1,10,-1
 232 1126 l 1,11,-1
 50 1168 l 1,0,-1
EndSplineSet
Colour: ffffff
EndChar

StartChar: Iacute
Encoding: 205 205 45
Width: 383
VWidth: 0
Flags: HMW
LayerCount: 2
Fore
SplineSet
73 92 m 0,0,1
 73 140 73 140 108 172.5 c 128,-1,2
 143 205 143 205 191 205 c 0,3,4
 241 205 241 205 277 171.5 c 128,-1,5
 313 138 313 138 313 90 c 0,6,7
 313 40 313 40 277 4.5 c 128,-1,8
 241 -31 241 -31 191 -31 c 0,9,10
 142 -31 142 -31 107.5 5 c 128,-1,11
 73 41 73 41 73 92 c 0,0,1
EndSplineSet
Colour: ffffff
EndChar

StartChar: Icaron
Encoding: 463 463 46
Width: 383
VWidth: 0
Flags: HMW
LayerCount: 2
Fore
SplineSet
73 92 m 0,0,1
 73 140 73 140 108 172.5 c 128,-1,2
 143 205 143 205 191 205 c 0,3,4
 241 205 241 205 277 171.5 c 128,-1,5
 313 138 313 138 313 90 c 0,6,7
 313 40 313 40 277 4.5 c 128,-1,8
 241 -31 241 -31 191 -31 c 0,9,10
 142 -31 142 -31 107.5 5 c 128,-1,11
 73 41 73 41 73 92 c 0,0,1
EndSplineSet
Colour: ffffff
EndChar

StartChar: Icircumflex
Encoding: 206 206 47
Width: 383
VWidth: 0
Flags: HMW
LayerCount: 2
Fore
SplineSet
73 92 m 0,0,1
 73 140 73 140 108 172.5 c 128,-1,2
 143 205 143 205 191 205 c 0,3,4
 241 205 241 205 277 171.5 c 128,-1,5
 313 138 313 138 313 90 c 0,6,7
 313 40 313 40 277 4.5 c 128,-1,8
 241 -31 241 -31 191 -31 c 0,9,10
 142 -31 142 -31 107.5 5 c 128,-1,11
 73 41 73 41 73 92 c 0,0,1
EndSplineSet
Colour: ffffff
EndChar

StartChar: Idieresis
Encoding: 207 207 48
Width: 383
VWidth: 0
Flags: HMW
LayerCount: 2
Fore
SplineSet
73 92 m 0,0,1
 73 140 73 140 108 172.5 c 128,-1,2
 143 205 143 205 191 205 c 0,3,4
 241 205 241 205 277 171.5 c 128,-1,5
 313 138 313 138 313 90 c 0,6,7
 313 40 313 40 277 4.5 c 128,-1,8
 241 -31 241 -31 191 -31 c 0,9,10
 142 -31 142 -31 107.5 5 c 128,-1,11
 73 41 73 41 73 92 c 0,0,1
EndSplineSet
Colour: ffffff
EndChar

StartChar: Idotaccent
Encoding: 304 304 49
Width: 383
VWidth: 0
Flags: HMW
LayerCount: 2
Fore
SplineSet
73 92 m 0,0,1
 73 140 73 140 108 172.5 c 128,-1,2
 143 205 143 205 191 205 c 0,3,4
 241 205 241 205 277 171.5 c 128,-1,5
 313 138 313 138 313 90 c 0,6,7
 313 40 313 40 277 4.5 c 128,-1,8
 241 -31 241 -31 191 -31 c 0,9,10
 142 -31 142 -31 107.5 5 c 128,-1,11
 73 41 73 41 73 92 c 0,0,1
EndSplineSet
Colour: ffffff
EndChar

StartChar: Igrave
Encoding: 204 204 50
Width: 383
VWidth: 0
Flags: HMW
LayerCount: 2
Fore
SplineSet
73 92 m 0,0,1
 73 140 73 140 108 172.5 c 128,-1,2
 143 205 143 205 191 205 c 0,3,4
 241 205 241 205 277 171.5 c 128,-1,5
 313 138 313 138 313 90 c 0,6,7
 313 40 313 40 277 4.5 c 128,-1,8
 241 -31 241 -31 191 -31 c 0,9,10
 142 -31 142 -31 107.5 5 c 128,-1,11
 73 41 73 41 73 92 c 0,0,1
EndSplineSet
Colour: ffffff
EndChar

StartChar: Imacron
Encoding: 298 298 51
Width: 383
VWidth: 0
Flags: HMW
LayerCount: 2
Fore
SplineSet
73 92 m 0,0,1
 73 140 73 140 108 172.5 c 128,-1,2
 143 205 143 205 191 205 c 0,3,4
 241 205 241 205 277 171.5 c 128,-1,5
 313 138 313 138 313 90 c 0,6,7
 313 40 313 40 277 4.5 c 128,-1,8
 241 -31 241 -31 191 -31 c 0,9,10
 142 -31 142 -31 107.5 5 c 128,-1,11
 73 41 73 41 73 92 c 0,0,1
EndSplineSet
Colour: ffffff
EndChar

StartChar: Iogonek
Encoding: 302 302 52
Width: 383
VWidth: 0
Flags: HMW
LayerCount: 2
Fore
SplineSet
73 92 m 0,0,1
 73 140 73 140 108 172.5 c 128,-1,2
 143 205 143 205 191 205 c 0,3,4
 241 205 241 205 277 171.5 c 128,-1,5
 313 138 313 138 313 90 c 0,6,7
 313 40 313 40 277 4.5 c 128,-1,8
 241 -31 241 -31 191 -31 c 0,9,10
 142 -31 142 -31 107.5 5 c 128,-1,11
 73 41 73 41 73 92 c 0,0,1
EndSplineSet
Colour: ffffff
EndChar

StartChar: J
Encoding: 74 74 53
Width: 592
VWidth: 1691
Flags: HMW
LayerCount: 2
Fore
SplineSet
-4 -237 m 1,0,1
 117 -122 117 -122 174.5 -20.5 c 128,-1,2
 232 81 232 81 232 197 c 2,3,-1
 233 1126 l 1,4,-1
 52 1168 l 1,5,-1
 62 1244 l 1,6,-1
 607 1244 l 1,7,-1
 597 1168 l 1,8,-1
 427 1130 l 1,9,-1
 426 385 l 2,10,11
 426 281 426 281 418.5 203.5 c 128,-1,12
 411 126 411 126 391.5 60.5 c 128,-1,13
 372 -5 372 -5 346 -53 c 128,-1,14
 320 -101 320 -101 274.5 -149 c 128,-1,15
 229 -197 229 -197 178 -236 c 128,-1,16
 127 -275 127 -275 50 -326 c 1,17,-1
 -4 -237 l 1,0,1
EndSplineSet
Colour: ffffff
EndChar

StartChar: K
Encoding: 75 75 54
Width: 1228
VWidth: 1691
Flags: HMW
LayerCount: 2
Fore
SplineSet
453 626 m 1,0,1
 476 649 476 649 529.5 709.5 c 128,-1,2
 583 770 583 770 605 798 c 2,3,-1
 851 1121 l 1,4,-1
 696 1168 l 1,5,-1
 704 1244 l 1,6,-1
 1197 1244 l 1,7,-1
 1185 1168 l 1,8,-1
 1008 1121 l 1,9,-1
 635 653 l 1,10,-1
 862 385 l 2,11,12
 991 232 991 232 1057.5 171.5 c 128,-1,13
 1124 111 1124 111 1213 83 c 1,14,-1
 1250 70 l 1,15,-1
 1240 1 l 1,16,17
 1177 -21 1177 -21 1109 -21 c 0,18,19
 994 -21 994 -21 899 52.5 c 128,-1,20
 804 126 804 126 706 261 c 2,21,-1
 454 605 l 1,22,-1
 453 626 l 1,0,1
47 1168 m 1,23,-1
 61 1244 l 1,24,-1
 611 1244 l 1,25,-1
 601 1168 l 1,26,-1
 429 1121 l 1,27,-1
 429 124 l 1,28,-1
 618 80 l 1,29,-1
 607 0 l 1,30,-1
 54 0 l 1,31,-1
 64 74 l 1,32,-1
 236 129 l 1,33,-1
 236 1117 l 1,34,-1
 47 1168 l 1,23,-1
EndSplineSet
Colour: ffffff
EndChar

StartChar: Kcommaaccent
Encoding: 310 310 55
Width: 383
VWidth: 0
Flags: HMW
LayerCount: 2
Fore
SplineSet
73 92 m 0,0,1
 73 140 73 140 108 172.5 c 128,-1,2
 143 205 143 205 191 205 c 0,3,4
 241 205 241 205 277 171.5 c 128,-1,5
 313 138 313 138 313 90 c 0,6,7
 313 40 313 40 277 4.5 c 128,-1,8
 241 -31 241 -31 191 -31 c 0,9,10
 142 -31 142 -31 107.5 5 c 128,-1,11
 73 41 73 41 73 92 c 0,0,1
EndSplineSet
Colour: ffffff
EndChar

StartChar: L
Encoding: 76 76 56
Width: 1065
VWidth: 1691
Flags: HMW
LayerCount: 2
Fore
SplineSet
58 0 m 1,0,-1
 67 74 l 1,1,-1
 233 121 l 1,2,-1
 233 1117 l 1,3,-1
 45 1168 l 1,4,-1
 58 1244 l 1,5,-1
 608 1244 l 1,6,-1
 598 1168 l 1,7,-1
 427 1121 l 1,8,-1
 427 96 l 1,9,-1
 869 96 l 1,10,-1
 1000 344 l 1,11,-1
 1085 331 l 1,12,-1
 1048 0 l 1,13,-1
 58 0 l 1,0,-1
EndSplineSet
Colour: ffffff
EndChar

StartChar: Lacute
Encoding: 313 313 57
Width: 383
VWidth: 0
Flags: HMW
LayerCount: 2
Fore
SplineSet
73 92 m 0,0,1
 73 140 73 140 108 172.5 c 128,-1,2
 143 205 143 205 191 205 c 0,3,4
 241 205 241 205 277 171.5 c 128,-1,5
 313 138 313 138 313 90 c 0,6,7
 313 40 313 40 277 4.5 c 128,-1,8
 241 -31 241 -31 191 -31 c 0,9,10
 142 -31 142 -31 107.5 5 c 128,-1,11
 73 41 73 41 73 92 c 0,0,1
EndSplineSet
Colour: ffffff
EndChar

StartChar: Lcaron
Encoding: 317 317 58
Width: 383
VWidth: 0
Flags: HMW
LayerCount: 2
Fore
SplineSet
73 92 m 0,0,1
 73 140 73 140 108 172.5 c 128,-1,2
 143 205 143 205 191 205 c 0,3,4
 241 205 241 205 277 171.5 c 128,-1,5
 313 138 313 138 313 90 c 0,6,7
 313 40 313 40 277 4.5 c 128,-1,8
 241 -31 241 -31 191 -31 c 0,9,10
 142 -31 142 -31 107.5 5 c 128,-1,11
 73 41 73 41 73 92 c 0,0,1
EndSplineSet
Colour: ffffff
EndChar

StartChar: Lcommaaccent
Encoding: 315 315 59
Width: 383
VWidth: 0
Flags: HMW
LayerCount: 2
Fore
SplineSet
73 92 m 0,0,1
 73 140 73 140 108 172.5 c 128,-1,2
 143 205 143 205 191 205 c 0,3,4
 241 205 241 205 277 171.5 c 128,-1,5
 313 138 313 138 313 90 c 0,6,7
 313 40 313 40 277 4.5 c 128,-1,8
 241 -31 241 -31 191 -31 c 0,9,10
 142 -31 142 -31 107.5 5 c 128,-1,11
 73 41 73 41 73 92 c 0,0,1
EndSplineSet
Colour: ffffff
EndChar

StartChar: Lslash
Encoding: 321 321 60
Width: 383
VWidth: 0
Flags: HMW
LayerCount: 2
Fore
SplineSet
73 92 m 0,0,1
 73 140 73 140 108 172.5 c 128,-1,2
 143 205 143 205 191 205 c 0,3,4
 241 205 241 205 277 171.5 c 128,-1,5
 313 138 313 138 313 90 c 0,6,7
 313 40 313 40 277 4.5 c 128,-1,8
 241 -31 241 -31 191 -31 c 0,9,10
 142 -31 142 -31 107.5 5 c 128,-1,11
 73 41 73 41 73 92 c 0,0,1
EndSplineSet
Colour: ffffff
EndChar

StartChar: M
Encoding: 77 77 61
Width: 1664
VWidth: 1691
Flags: HMW
LayerCount: 2
Fore
SplineSet
24 0 m 1,0,-1
 35 74 l 1,1,-1
 202 121 l 1,2,-1
 275 1126 l 1,3,-1
 92 1168 l 1,4,-1
 102 1244 l 1,5,-1
 505 1244 l 1,6,-1
 583 1050 l 1,7,-1
 845 313 l 1,8,-1
 1152 1083 l 1,9,-1
 1223 1244 l 1,10,-1
 1618 1244 l 1,11,-1
 1608 1168 l 1,12,-1
 1440 1130 l 1,13,-1
 1492 114 l 1,14,-1
 1674 80 l 1,15,-1
 1664 0 l 1,16,-1
 1128 0 l 1,17,-1
 1139 74 l 1,18,-1
 1305 121 l 1,19,-1
 1249 1004 l 1,20,-1
 868 50 l 1,21,-1
 740 31 l 1,22,-1
 397 967 l 1,23,-1
 334 114 l 1,24,-1
 517 80 l 1,25,-1
 504 0 l 1,26,-1
 24 0 l 1,0,-1
EndSplineSet
Colour: ffffff
EndChar

StartChar: N
Encoding: 78 78 62
Width: 1337
VWidth: 1691
Flags: HMW
LayerCount: 2
Fore
SplineSet
50 1168 m 1,0,-1
 61 1244 l 1,1,-1
 411 1244 l 1,2,-1
 1054 274 l 1,3,-1
 1054 1126 l 1,4,-1
 869 1168 l 1,5,-1
 881 1244 l 1,6,-1
 1356 1244 l 1,7,-1
 1343 1168 l 1,8,-1
 1176 1130 l 1,9,-1
 1176 1 l 1,10,-1
 1023 -30 l 1,11,-1
 360 961 l 1,12,-1
 360 114 l 1,13,-1
 543 80 l 1,14,-1
 532 0 l 1,15,-1
 57 0 l 1,16,-1
 65 74 l 1,17,-1
 232 121 l 1,18,-1
 232 1117 l 1,19,-1
 50 1168 l 1,0,-1
EndSplineSet
Colour: ffffff
EndChar

StartChar: Nacute
Encoding: 323 323 63
Width: 383
VWidth: 0
Flags: HMW
LayerCount: 2
Fore
SplineSet
73 92 m 0,0,1
 73 140 73 140 108 172.5 c 128,-1,2
 143 205 143 205 191 205 c 0,3,4
 241 205 241 205 277 171.5 c 128,-1,5
 313 138 313 138 313 90 c 0,6,7
 313 40 313 40 277 4.5 c 128,-1,8
 241 -31 241 -31 191 -31 c 0,9,10
 142 -31 142 -31 107.5 5 c 128,-1,11
 73 41 73 41 73 92 c 0,0,1
EndSplineSet
Colour: ffffff
EndChar

StartChar: Ncaron
Encoding: 327 327 64
Width: 383
VWidth: 0
Flags: HMW
LayerCount: 2
Fore
SplineSet
73 92 m 0,0,1
 73 140 73 140 108 172.5 c 128,-1,2
 143 205 143 205 191 205 c 0,3,4
 241 205 241 205 277 171.5 c 128,-1,5
 313 138 313 138 313 90 c 0,6,7
 313 40 313 40 277 4.5 c 128,-1,8
 241 -31 241 -31 191 -31 c 0,9,10
 142 -31 142 -31 107.5 5 c 128,-1,11
 73 41 73 41 73 92 c 0,0,1
EndSplineSet
Colour: ffffff
EndChar

StartChar: Ncommaaccent
Encoding: 325 325 65
Width: 383
VWidth: 0
Flags: HMW
LayerCount: 2
Fore
SplineSet
73 92 m 0,0,1
 73 140 73 140 108 172.5 c 128,-1,2
 143 205 143 205 191 205 c 0,3,4
 241 205 241 205 277 171.5 c 128,-1,5
 313 138 313 138 313 90 c 0,6,7
 313 40 313 40 277 4.5 c 128,-1,8
 241 -31 241 -31 191 -31 c 0,9,10
 142 -31 142 -31 107.5 5 c 128,-1,11
 73 41 73 41 73 92 c 0,0,1
EndSplineSet
Colour: ffffff
EndChar

StartChar: Ntilde
Encoding: 209 209 66
Width: 383
VWidth: 0
Flags: HMW
LayerCount: 2
Fore
SplineSet
73 92 m 0,0,1
 73 140 73 140 108 172.5 c 128,-1,2
 143 205 143 205 191 205 c 0,3,4
 241 205 241 205 277 171.5 c 128,-1,5
 313 138 313 138 313 90 c 0,6,7
 313 40 313 40 277 4.5 c 128,-1,8
 241 -31 241 -31 191 -31 c 0,9,10
 142 -31 142 -31 107.5 5 c 128,-1,11
 73 41 73 41 73 92 c 0,0,1
EndSplineSet
Colour: ffffff
EndChar

StartChar: O
Encoding: 79 79 67
Width: 1322
VWidth: 1691
Flags: HMW
LayerCount: 2
Fore
SplineSet
283 676 m 0,0,1
 283 585 283 585 297 501 c 128,-1,2
 311 417 311 417 342.5 339.5 c 128,-1,3
 374 262 374 262 419.5 204.5 c 128,-1,4
 465 147 465 147 533.5 113 c 128,-1,5
 602 79 602 79 686 79 c 0,6,7
 774 79 774 79 841.5 107.5 c 128,-1,8
 909 136 909 136 950 182.5 c 128,-1,9
 991 229 991 229 1017 295 c 128,-1,10
 1043 361 1043 361 1052.5 428 c 128,-1,11
 1062 495 1062 495 1062 573 c 0,12,13
 1062 661 1062 661 1048 745 c 128,-1,14
 1034 829 1034 829 1002 907.5 c 128,-1,15
 970 986 970 986 924.5 1045.5 c 128,-1,16
 879 1105 879 1105 810 1140.5 c 128,-1,17
 741 1176 741 1176 658 1176 c 0,18,19
 283 1176 283 1176 283 676 c 0,0,1
61 619 m 0,20,21
 61 911 61 911 236 1091.5 c 128,-1,22
 411 1272 411 1272 706 1272 c 0,23,24
 838 1272 838 1272 948.5 1219.5 c 128,-1,25
 1059 1167 1059 1167 1131.5 1077 c 128,-1,26
 1204 987 1204 987 1244 869 c 128,-1,27
 1284 751 1284 751 1284 619 c 0,28,29
 1284 489 1284 489 1240.5 372.5 c 128,-1,30
 1197 256 1197 256 1116.5 167 c 128,-1,31
 1036 78 1036 78 911.5 25.5 c 128,-1,32
 787 -27 787 -27 636 -27 c 0,33,34
 467 -27 467 -27 335 59 c 128,-1,35
 203 145 203 145 132 292 c 128,-1,36
 61 439 61 439 61 619 c 0,20,21
EndSplineSet
Colour: ffffff
EndChar

StartChar: OE
Encoding: 338 338 68
Width: 383
VWidth: 0
Flags: HMW
LayerCount: 2
Fore
SplineSet
73 92 m 0,0,1
 73 140 73 140 108 172.5 c 128,-1,2
 143 205 143 205 191 205 c 0,3,4
 241 205 241 205 277 171.5 c 128,-1,5
 313 138 313 138 313 90 c 0,6,7
 313 40 313 40 277 4.5 c 128,-1,8
 241 -31 241 -31 191 -31 c 0,9,10
 142 -31 142 -31 107.5 5 c 128,-1,11
 73 41 73 41 73 92 c 0,0,1
EndSplineSet
Colour: ffffff
EndChar

StartChar: Oacute
Encoding: 211 211 69
Width: 383
VWidth: 0
Flags: HMW
LayerCount: 2
Fore
SplineSet
73 92 m 0,0,1
 73 140 73 140 108 172.5 c 128,-1,2
 143 205 143 205 191 205 c 0,3,4
 241 205 241 205 277 171.5 c 128,-1,5
 313 138 313 138 313 90 c 0,6,7
 313 40 313 40 277 4.5 c 128,-1,8
 241 -31 241 -31 191 -31 c 0,9,10
 142 -31 142 -31 107.5 5 c 128,-1,11
 73 41 73 41 73 92 c 0,0,1
EndSplineSet
Colour: ffffff
EndChar

StartChar: Ocaron
Encoding: 465 465 70
Width: 383
VWidth: 0
Flags: HMW
LayerCount: 2
Fore
SplineSet
73 92 m 0,0,1
 73 140 73 140 108 172.5 c 128,-1,2
 143 205 143 205 191 205 c 0,3,4
 241 205 241 205 277 171.5 c 128,-1,5
 313 138 313 138 313 90 c 0,6,7
 313 40 313 40 277 4.5 c 128,-1,8
 241 -31 241 -31 191 -31 c 0,9,10
 142 -31 142 -31 107.5 5 c 128,-1,11
 73 41 73 41 73 92 c 0,0,1
EndSplineSet
Colour: ffffff
EndChar

StartChar: Ocircumflex
Encoding: 212 212 71
Width: 383
VWidth: 0
Flags: HMW
LayerCount: 2
Fore
SplineSet
73 92 m 0,0,1
 73 140 73 140 108 172.5 c 128,-1,2
 143 205 143 205 191 205 c 0,3,4
 241 205 241 205 277 171.5 c 128,-1,5
 313 138 313 138 313 90 c 0,6,7
 313 40 313 40 277 4.5 c 128,-1,8
 241 -31 241 -31 191 -31 c 0,9,10
 142 -31 142 -31 107.5 5 c 128,-1,11
 73 41 73 41 73 92 c 0,0,1
EndSplineSet
Colour: ffffff
EndChar

StartChar: Odieresis
Encoding: 214 214 72
Width: 383
VWidth: 0
Flags: HMW
LayerCount: 2
Fore
SplineSet
73 92 m 0,0,1
 73 140 73 140 108 172.5 c 128,-1,2
 143 205 143 205 191 205 c 0,3,4
 241 205 241 205 277 171.5 c 128,-1,5
 313 138 313 138 313 90 c 0,6,7
 313 40 313 40 277 4.5 c 128,-1,8
 241 -31 241 -31 191 -31 c 0,9,10
 142 -31 142 -31 107.5 5 c 128,-1,11
 73 41 73 41 73 92 c 0,0,1
EndSplineSet
Colour: ffffff
EndChar

StartChar: Ograve
Encoding: 210 210 73
Width: 383
VWidth: 0
Flags: HMW
LayerCount: 2
Fore
SplineSet
73 92 m 0,0,1
 73 140 73 140 108 172.5 c 128,-1,2
 143 205 143 205 191 205 c 0,3,4
 241 205 241 205 277 171.5 c 128,-1,5
 313 138 313 138 313 90 c 0,6,7
 313 40 313 40 277 4.5 c 128,-1,8
 241 -31 241 -31 191 -31 c 0,9,10
 142 -31 142 -31 107.5 5 c 128,-1,11
 73 41 73 41 73 92 c 0,0,1
EndSplineSet
Colour: ffffff
EndChar

StartChar: Ohungarumlaut
Encoding: 336 336 74
Width: 383
VWidth: 0
Flags: HMW
LayerCount: 2
Fore
SplineSet
73 92 m 0,0,1
 73 140 73 140 108 172.5 c 128,-1,2
 143 205 143 205 191 205 c 0,3,4
 241 205 241 205 277 171.5 c 128,-1,5
 313 138 313 138 313 90 c 0,6,7
 313 40 313 40 277 4.5 c 128,-1,8
 241 -31 241 -31 191 -31 c 0,9,10
 142 -31 142 -31 107.5 5 c 128,-1,11
 73 41 73 41 73 92 c 0,0,1
EndSplineSet
Colour: ffffff
EndChar

StartChar: Omacron
Encoding: 332 332 75
Width: 383
VWidth: 0
Flags: HMW
LayerCount: 2
Fore
SplineSet
73 92 m 0,0,1
 73 140 73 140 108 172.5 c 128,-1,2
 143 205 143 205 191 205 c 0,3,4
 241 205 241 205 277 171.5 c 128,-1,5
 313 138 313 138 313 90 c 0,6,7
 313 40 313 40 277 4.5 c 128,-1,8
 241 -31 241 -31 191 -31 c 0,9,10
 142 -31 142 -31 107.5 5 c 128,-1,11
 73 41 73 41 73 92 c 0,0,1
EndSplineSet
Colour: ffffff
EndChar

StartChar: Oslash
Encoding: 216 216 76
Width: 383
VWidth: 0
Flags: HMW
LayerCount: 2
Fore
SplineSet
73 92 m 0,0,1
 73 140 73 140 108 172.5 c 128,-1,2
 143 205 143 205 191 205 c 0,3,4
 241 205 241 205 277 171.5 c 128,-1,5
 313 138 313 138 313 90 c 0,6,7
 313 40 313 40 277 4.5 c 128,-1,8
 241 -31 241 -31 191 -31 c 0,9,10
 142 -31 142 -31 107.5 5 c 128,-1,11
 73 41 73 41 73 92 c 0,0,1
EndSplineSet
Colour: ffffff
EndChar

StartChar: Otilde
Encoding: 213 213 77
Width: 383
VWidth: 0
Flags: HMW
LayerCount: 2
Fore
SplineSet
73 92 m 0,0,1
 73 140 73 140 108 172.5 c 128,-1,2
 143 205 143 205 191 205 c 0,3,4
 241 205 241 205 277 171.5 c 128,-1,5
 313 138 313 138 313 90 c 0,6,7
 313 40 313 40 277 4.5 c 128,-1,8
 241 -31 241 -31 191 -31 c 0,9,10
 142 -31 142 -31 107.5 5 c 128,-1,11
 73 41 73 41 73 92 c 0,0,1
EndSplineSet
Colour: ffffff
EndChar

StartChar: P
Encoding: 80 80 78
Width: 1009
VWidth: 1691
Flags: HMW
LayerCount: 2
Fore
SplineSet
50 0 m 1,0,-1
 61 74 l 1,1,-1
 228 121 l 1,2,-1
 228 1104 l 1,3,-1
 57 1134 l 1,4,-1
 67 1211 l 1,5,6
 366 1255 366 1255 543 1255 c 0,7,8
 1045 1255 1045 1255 1045 892 c 0,9,10
 1045 805 1045 805 1007 730 c 128,-1,11
 969 655 969 655 905.5 604 c 128,-1,12
 842 553 842 553 758.5 523.5 c 128,-1,13
 675 494 675 494 584 494 c 0,14,15
 577 494 577 494 484 497 c 1,16,-1
 466 580 l 1,17,-1
 519 581 l 1,18,19
 838 590 838 590 838 856 c 0,20,21
 838 995 838 995 760.5 1083.5 c 128,-1,22
 683 1172 683 1172 522 1172 c 1,23,-1
 420 1166 l 1,24,-1
 420 122 l 1,25,-1
 657 83 l 1,26,-1
 643 0 l 1,27,-1
 50 0 l 1,0,-1
EndSplineSet
Colour: ffffff
EndChar

StartChar: Q
Encoding: 81 81 79
Width: 1334
VWidth: 1691
Flags: HMW
LayerCount: 2
Fore
SplineSet
263 679 m 0,0,1
 263 615 263 615 273 551 c 128,-1,2
 283 487 283 487 304.5 418.5 c 128,-1,3
 326 350 326 350 364 290.5 c 128,-1,4
 402 231 402 231 453.5 182 c 128,-1,5
 505 133 505 133 581 102.5 c 128,-1,6
 657 72 657 72 749 67 c 1,7,8
 828 87 828 87 888 123 c 128,-1,9
 948 159 948 159 986.5 205 c 128,-1,10
 1025 251 1025 251 1049 310 c 128,-1,11
 1073 369 1073 369 1082.5 430 c 128,-1,12
 1092 491 1092 491 1092 563 c 0,13,14
 1092 674 1092 674 1061.5 781.5 c 128,-1,15
 1031 889 1031 889 977.5 975.5 c 128,-1,16
 924 1062 924 1062 842 1115 c 128,-1,17
 760 1168 760 1168 664 1168 c 0,18,19
 475 1168 475 1168 369 1039.5 c 128,-1,20
 263 911 263 911 263 679 c 0,0,1
61 608 m 0,21,22
 61 800 61 800 142.5 950.5 c 128,-1,23
 224 1101 224 1101 375 1186.5 c 128,-1,24
 526 1272 526 1272 721 1272 c 0,25,26
 895 1272 895 1272 1028 1184 c 128,-1,27
 1161 1096 1161 1096 1230 951 c 128,-1,28
 1299 806 1299 806 1299 629 c 0,29,30
 1299 481 1299 481 1243 351 c 128,-1,31
 1187 221 1187 221 1076.5 125.5 c 128,-1,32
 966 30 966 30 818 -6 c 1,33,34
 842 -61 842 -61 870.5 -99 c 128,-1,35
 899 -137 899 -137 947.5 -172.5 c 128,-1,36
 996 -208 996 -208 1070.5 -233 c 128,-1,37
 1145 -258 1145 -258 1250 -275 c 1,38,39
 1250 -324 1250 -324 1241 -351 c 1,40,41
 1171 -385 1171 -385 1065 -385 c 0,42,43
 924 -385 924 -385 820 -286 c 128,-1,44
 716 -187 716 -187 703 -21 c 1,45,46
 683 -27 683 -27 638 -27 c 0,47,48
 469 -27 469 -27 336.5 56 c 128,-1,49
 204 139 204 139 132.5 283.5 c 128,-1,50
 61 428 61 428 61 608 c 0,21,22
EndSplineSet
Colour: ffffff
EndChar

StartChar: R
Encoding: 82 82 80
Width: 1213
VWidth: 1691
Flags: HMW
LayerCount: 2
Fore
SplineSet
420 628 m 1,0,-1
 618 628 l 1,1,2
 702 656 702 656 760 722 c 128,-1,3
 818 788 818 788 818 887 c 0,4,5
 818 1013 818 1013 744 1091 c 128,-1,6
 670 1169 670 1169 540 1169 c 1,7,-1
 420 1164 l 1,8,-1
 420 628 l 1,0,-1
50 0 m 1,9,-1
 61 74 l 1,10,-1
 228 121 l 1,11,-1
 228 1100 l 1,12,-1
 57 1130 l 1,13,-1
 67 1207 l 1,14,15
 361 1253 361 1253 523 1253 c 0,16,17
 639 1253 639 1253 727.5 1237 c 128,-1,18
 816 1221 816 1221 884.5 1185.5 c 128,-1,19
 953 1150 953 1150 989 1089 c 128,-1,20
 1025 1028 1025 1028 1025 943 c 0,21,22
 1025 841 1025 841 949 744 c 128,-1,23
 873 647 873 647 738 599 c 1,24,-1
 738 598 l 1,25,-1
 918 349 l 2,26,27
 963 287 963 287 983 260.5 c 128,-1,28
 1003 234 1003 234 1035 195.5 c 128,-1,29
 1067 157 1067 157 1089.5 140 c 128,-1,30
 1112 123 1112 123 1143 105.5 c 128,-1,31
 1174 88 1174 88 1211 77 c 2,32,-1
 1244 67 l 1,33,-1
 1229 -1 l 1,34,35
 1172 -21 1172 -21 1109 -21 c 0,36,37
 998 -21 998 -21 911.5 51.5 c 128,-1,38
 825 124 825 124 753 253 c 2,39,-1
 594 537 l 1,40,-1
 420 537 l 1,41,-1
 420 126 l 1,42,-1
 608 83 l 1,43,-1
 598 0 l 1,44,-1
 50 0 l 1,9,-1
EndSplineSet
Colour: ffffff
EndChar

StartChar: Racute
Encoding: 340 340 81
Width: 383
VWidth: 0
Flags: HMW
LayerCount: 2
Fore
SplineSet
73 92 m 0,0,1
 73 140 73 140 108 172.5 c 128,-1,2
 143 205 143 205 191 205 c 0,3,4
 241 205 241 205 277 171.5 c 128,-1,5
 313 138 313 138 313 90 c 0,6,7
 313 40 313 40 277 4.5 c 128,-1,8
 241 -31 241 -31 191 -31 c 0,9,10
 142 -31 142 -31 107.5 5 c 128,-1,11
 73 41 73 41 73 92 c 0,0,1
EndSplineSet
Colour: ffffff
EndChar

StartChar: Rcaron
Encoding: 344 344 82
Width: 383
VWidth: 0
Flags: HMW
LayerCount: 2
Fore
SplineSet
73 92 m 0,0,1
 73 140 73 140 108 172.5 c 128,-1,2
 143 205 143 205 191 205 c 0,3,4
 241 205 241 205 277 171.5 c 128,-1,5
 313 138 313 138 313 90 c 0,6,7
 313 40 313 40 277 4.5 c 128,-1,8
 241 -31 241 -31 191 -31 c 0,9,10
 142 -31 142 -31 107.5 5 c 128,-1,11
 73 41 73 41 73 92 c 0,0,1
EndSplineSet
Colour: ffffff
EndChar

StartChar: Rcommaaccent
Encoding: 342 342 83
Width: 383
VWidth: 0
Flags: HMW
LayerCount: 2
Fore
SplineSet
73 92 m 0,0,1
 73 140 73 140 108 172.5 c 128,-1,2
 143 205 143 205 191 205 c 0,3,4
 241 205 241 205 277 171.5 c 128,-1,5
 313 138 313 138 313 90 c 0,6,7
 313 40 313 40 277 4.5 c 128,-1,8
 241 -31 241 -31 191 -31 c 0,9,10
 142 -31 142 -31 107.5 5 c 128,-1,11
 73 41 73 41 73 92 c 0,0,1
EndSplineSet
Colour: ffffff
EndChar

StartChar: S
Encoding: 83 83 84
Width: 863
VWidth: 1691
Flags: HMW
LayerCount: 2
Fore
SplineSet
66 122 m 1,0,-1
 79 389 l 1,1,-1
 181 375 l 1,2,-1
 220 187 l 1,3,4
 249 141 249 141 304.5 109 c 128,-1,5
 360 77 360 77 426 77 c 0,6,7
 483 77 483 77 534.5 97.5 c 128,-1,8
 586 118 586 118 624.5 167.5 c 128,-1,9
 663 217 663 217 663 287 c 0,10,11
 663 339 663 339 631.5 383.5 c 128,-1,12
 600 428 600 428 549.5 461 c 128,-1,13
 499 494 499 494 437.5 526 c 128,-1,14
 376 558 376 558 315 594.5 c 128,-1,15
 254 631 254 631 203.5 673.5 c 128,-1,16
 153 716 153 716 121.5 778.5 c 128,-1,17
 90 841 90 841 90 916 c 0,18,19
 90 1025 90 1025 147 1107 c 128,-1,20
 204 1189 204 1189 291 1229 c 128,-1,21
 378 1269 378 1269 479 1269 c 0,22,23
 641 1269 641 1269 761 1169 c 1,24,-1
 739 887 l 1,25,-1
 640 899 l 1,26,-1
 615 1090 l 1,27,28
 599 1122 599 1122 549.5 1153.5 c 128,-1,29
 500 1185 500 1185 445 1185 c 0,30,31
 365 1185 365 1185 314 1137 c 128,-1,32
 263 1089 263 1089 263 995 c 0,33,34
 263 937 263 937 295 889.5 c 128,-1,35
 327 842 327 842 378.5 807.5 c 128,-1,36
 430 773 430 773 492.5 741 c 128,-1,37
 555 709 555 709 617.5 673 c 128,-1,38
 680 637 680 637 731.5 595.5 c 128,-1,39
 783 554 783 554 815 492 c 128,-1,40
 847 430 847 430 847 354 c 0,41,42
 847 243 847 243 783 155 c 128,-1,43
 719 67 719 67 618 21.5 c 128,-1,44
 517 -24 517 -24 402 -24 c 0,45,46
 298 -24 298 -24 207.5 17.5 c 128,-1,47
 117 59 117 59 66 122 c 1,0,-1
EndSplineSet
Colour: ffffff
EndChar

StartChar: Sacute
Encoding: 346 346 85
Width: 383
VWidth: 0
Flags: HMW
LayerCount: 2
Fore
SplineSet
73 92 m 0,0,1
 73 140 73 140 108 172.5 c 128,-1,2
 143 205 143 205 191 205 c 0,3,4
 241 205 241 205 277 171.5 c 128,-1,5
 313 138 313 138 313 90 c 0,6,7
 313 40 313 40 277 4.5 c 128,-1,8
 241 -31 241 -31 191 -31 c 0,9,10
 142 -31 142 -31 107.5 5 c 128,-1,11
 73 41 73 41 73 92 c 0,0,1
EndSplineSet
Colour: ffffff
EndChar

StartChar: Scaron
Encoding: 352 352 86
Width: 383
VWidth: 0
Flags: HMW
LayerCount: 2
Fore
SplineSet
73 92 m 0,0,1
 73 140 73 140 108 172.5 c 128,-1,2
 143 205 143 205 191 205 c 0,3,4
 241 205 241 205 277 171.5 c 128,-1,5
 313 138 313 138 313 90 c 0,6,7
 313 40 313 40 277 4.5 c 128,-1,8
 241 -31 241 -31 191 -31 c 0,9,10
 142 -31 142 -31 107.5 5 c 128,-1,11
 73 41 73 41 73 92 c 0,0,1
EndSplineSet
Colour: ffffff
EndChar

StartChar: Scedilla
Encoding: 350 350 87
Width: 383
VWidth: 0
Flags: HMW
LayerCount: 2
Fore
SplineSet
73 92 m 0,0,1
 73 140 73 140 108 172.5 c 128,-1,2
 143 205 143 205 191 205 c 0,3,4
 241 205 241 205 277 171.5 c 128,-1,5
 313 138 313 138 313 90 c 0,6,7
 313 40 313 40 277 4.5 c 128,-1,8
 241 -31 241 -31 191 -31 c 0,9,10
 142 -31 142 -31 107.5 5 c 128,-1,11
 73 41 73 41 73 92 c 0,0,1
EndSplineSet
Colour: ffffff
EndChar

StartChar: Scommaaccent
Encoding: 536 536 88
Width: 383
VWidth: 0
Flags: HMW
LayerCount: 2
Fore
SplineSet
73 92 m 0,0,1
 73 140 73 140 108 172.5 c 128,-1,2
 143 205 143 205 191 205 c 0,3,4
 241 205 241 205 277 171.5 c 128,-1,5
 313 138 313 138 313 90 c 0,6,7
 313 40 313 40 277 4.5 c 128,-1,8
 241 -31 241 -31 191 -31 c 0,9,10
 142 -31 142 -31 107.5 5 c 128,-1,11
 73 41 73 41 73 92 c 0,0,1
EndSplineSet
Colour: ffffff
EndChar

StartChar: T
Encoding: 84 84 89
Width: 1119
VWidth: 1691
Flags: HMW
LayerCount: 2
Fore
SplineSet
23 1244 m 1,0,-1
 1134 1244 l 1,1,-1
 1100 906 l 1,2,-1
 1005 921 l 1,3,-1
 967 1152 l 1,4,-1
 662 1152 l 1,5,-1
 662 114 l 1,6,-1
 847 80 l 1,7,-1
 833 0 l 1,8,-1
 294 0 l 1,9,-1
 301 74 l 1,10,-1
 470 121 l 1,11,-1
 470 1152 l 1,12,-1
 175 1152 l 1,13,-1
 122 909 l 1,14,-1
 31 922 l 1,15,-1
 23 1244 l 1,0,-1
EndSplineSet
Colour: ffffff
EndChar

StartChar: Tbar
Encoding: 358 358 90
Width: 383
VWidth: 0
Flags: HMW
LayerCount: 2
Fore
SplineSet
73 92 m 0,0,1
 73 140 73 140 108 172.5 c 128,-1,2
 143 205 143 205 191 205 c 0,3,4
 241 205 241 205 277 171.5 c 128,-1,5
 313 138 313 138 313 90 c 0,6,7
 313 40 313 40 277 4.5 c 128,-1,8
 241 -31 241 -31 191 -31 c 0,9,10
 142 -31 142 -31 107.5 5 c 128,-1,11
 73 41 73 41 73 92 c 0,0,1
EndSplineSet
Colour: ffffff
EndChar

StartChar: Tcaron
Encoding: 356 356 91
Width: 383
VWidth: 0
Flags: HMW
LayerCount: 2
Fore
SplineSet
73 92 m 0,0,1
 73 140 73 140 108 172.5 c 128,-1,2
 143 205 143 205 191 205 c 0,3,4
 241 205 241 205 277 171.5 c 128,-1,5
 313 138 313 138 313 90 c 0,6,7
 313 40 313 40 277 4.5 c 128,-1,8
 241 -31 241 -31 191 -31 c 0,9,10
 142 -31 142 -31 107.5 5 c 128,-1,11
 73 41 73 41 73 92 c 0,0,1
EndSplineSet
Colour: ffffff
EndChar

StartChar: Tcedilla
Encoding: 354 354 92
Width: 383
VWidth: 0
Flags: HMW
LayerCount: 2
Fore
SplineSet
73 92 m 0,0,1
 73 140 73 140 108 172.5 c 128,-1,2
 143 205 143 205 191 205 c 0,3,4
 241 205 241 205 277 171.5 c 128,-1,5
 313 138 313 138 313 90 c 0,6,7
 313 40 313 40 277 4.5 c 128,-1,8
 241 -31 241 -31 191 -31 c 0,9,10
 142 -31 142 -31 107.5 5 c 128,-1,11
 73 41 73 41 73 92 c 0,0,1
EndSplineSet
Colour: ffffff
EndChar

StartChar: Tcommaaccent
Encoding: 538 538 93
Width: 383
VWidth: 0
Flags: HMW
LayerCount: 2
Fore
SplineSet
73 92 m 0,0,1
 73 140 73 140 108 172.5 c 128,-1,2
 143 205 143 205 191 205 c 0,3,4
 241 205 241 205 277 171.5 c 128,-1,5
 313 138 313 138 313 90 c 0,6,7
 313 40 313 40 277 4.5 c 128,-1,8
 241 -31 241 -31 191 -31 c 0,9,10
 142 -31 142 -31 107.5 5 c 128,-1,11
 73 41 73 41 73 92 c 0,0,1
EndSplineSet
Colour: ffffff
EndChar

StartChar: Thorn
Encoding: 222 222 94
Width: 383
VWidth: 0
Flags: HMW
LayerCount: 2
Fore
SplineSet
73 92 m 0,0,1
 73 140 73 140 108 172.5 c 128,-1,2
 143 205 143 205 191 205 c 0,3,4
 241 205 241 205 277 171.5 c 128,-1,5
 313 138 313 138 313 90 c 0,6,7
 313 40 313 40 277 4.5 c 128,-1,8
 241 -31 241 -31 191 -31 c 0,9,10
 142 -31 142 -31 107.5 5 c 128,-1,11
 73 41 73 41 73 92 c 0,0,1
EndSplineSet
Colour: ffffff
EndChar

StartChar: U
Encoding: 85 85 95
Width: 1369
VWidth: 1691
Flags: HMW
LayerCount: 2
Fore
SplineSet
22 1168 m 1,0,-1
 35 1244 l 1,1,-1
 577 1244 l 1,2,-1
 568 1168 l 1,3,-1
 399 1130 l 1,4,-1
 399 510 l 2,5,6
 399 304 399 304 492.5 204.5 c 128,-1,7
 586 105 586 105 747 105 c 0,8,9
 903 105 903 105 987 198 c 128,-1,10
 1071 291 1071 291 1072 482 c 2,11,-1
 1075 1126 l 1,12,-1
 892 1168 l 1,13,-1
 902 1244 l 1,14,-1
 1380 1244 l 1,15,-1
 1369 1168 l 1,16,-1
 1203 1130 l 1,17,-1
 1198 515 l 2,18,19
 1196 241 1196 241 1075 107 c 128,-1,20
 954 -27 954 -27 697 -27 c 0,21,22
 620 -27 620 -27 556.5 -16.5 c 128,-1,23
 493 -6 493 -6 425.5 26.5 c 128,-1,24
 358 59 358 59 311.5 112 c 128,-1,25
 265 165 265 165 235.5 256 c 128,-1,26
 206 347 206 347 206 469 c 2,27,-1
 206 1126 l 1,28,-1
 22 1168 l 1,0,-1
EndSplineSet
Colour: ffffff
EndChar

StartChar: Uacute
Encoding: 218 218 96
Width: 383
VWidth: 0
Flags: HMW
LayerCount: 2
Fore
SplineSet
73 92 m 0,0,1
 73 140 73 140 108 172.5 c 128,-1,2
 143 205 143 205 191 205 c 0,3,4
 241 205 241 205 277 171.5 c 128,-1,5
 313 138 313 138 313 90 c 0,6,7
 313 40 313 40 277 4.5 c 128,-1,8
 241 -31 241 -31 191 -31 c 0,9,10
 142 -31 142 -31 107.5 5 c 128,-1,11
 73 41 73 41 73 92 c 0,0,1
EndSplineSet
Colour: ffffff
EndChar

StartChar: Ucaron
Encoding: 467 467 97
Width: 383
VWidth: 0
Flags: HMW
LayerCount: 2
Fore
SplineSet
73 92 m 0,0,1
 73 140 73 140 108 172.5 c 128,-1,2
 143 205 143 205 191 205 c 0,3,4
 241 205 241 205 277 171.5 c 128,-1,5
 313 138 313 138 313 90 c 0,6,7
 313 40 313 40 277 4.5 c 128,-1,8
 241 -31 241 -31 191 -31 c 0,9,10
 142 -31 142 -31 107.5 5 c 128,-1,11
 73 41 73 41 73 92 c 0,0,1
EndSplineSet
Colour: ffffff
EndChar

StartChar: Ucircumflex
Encoding: 219 219 98
Width: 383
VWidth: 0
Flags: HMW
LayerCount: 2
Fore
SplineSet
73 92 m 0,0,1
 73 140 73 140 108 172.5 c 128,-1,2
 143 205 143 205 191 205 c 0,3,4
 241 205 241 205 277 171.5 c 128,-1,5
 313 138 313 138 313 90 c 0,6,7
 313 40 313 40 277 4.5 c 128,-1,8
 241 -31 241 -31 191 -31 c 0,9,10
 142 -31 142 -31 107.5 5 c 128,-1,11
 73 41 73 41 73 92 c 0,0,1
EndSplineSet
Colour: ffffff
EndChar

StartChar: Udieresis
Encoding: 220 220 99
Width: 383
VWidth: 0
Flags: HMW
LayerCount: 2
Fore
SplineSet
73 92 m 0,0,1
 73 140 73 140 108 172.5 c 128,-1,2
 143 205 143 205 191 205 c 0,3,4
 241 205 241 205 277 171.5 c 128,-1,5
 313 138 313 138 313 90 c 0,6,7
 313 40 313 40 277 4.5 c 128,-1,8
 241 -31 241 -31 191 -31 c 0,9,10
 142 -31 142 -31 107.5 5 c 128,-1,11
 73 41 73 41 73 92 c 0,0,1
EndSplineSet
Colour: ffffff
EndChar

StartChar: Udieresisacute
Encoding: 471 471 100
Width: 383
VWidth: 0
Flags: HMW
LayerCount: 2
Fore
SplineSet
73 92 m 0,0,1
 73 140 73 140 108 172.5 c 128,-1,2
 143 205 143 205 191 205 c 0,3,4
 241 205 241 205 277 171.5 c 128,-1,5
 313 138 313 138 313 90 c 0,6,7
 313 40 313 40 277 4.5 c 128,-1,8
 241 -31 241 -31 191 -31 c 0,9,10
 142 -31 142 -31 107.5 5 c 128,-1,11
 73 41 73 41 73 92 c 0,0,1
EndSplineSet
Colour: ffffff
EndChar

StartChar: Udieresiscaron
Encoding: 473 473 101
Width: 383
VWidth: 0
Flags: HMW
LayerCount: 2
Fore
SplineSet
73 92 m 0,0,1
 73 140 73 140 108 172.5 c 128,-1,2
 143 205 143 205 191 205 c 0,3,4
 241 205 241 205 277 171.5 c 128,-1,5
 313 138 313 138 313 90 c 0,6,7
 313 40 313 40 277 4.5 c 128,-1,8
 241 -31 241 -31 191 -31 c 0,9,10
 142 -31 142 -31 107.5 5 c 128,-1,11
 73 41 73 41 73 92 c 0,0,1
EndSplineSet
Colour: ffffff
EndChar

StartChar: Udieresisgrave
Encoding: 475 475 102
Width: 383
VWidth: 0
Flags: HMW
LayerCount: 2
Fore
SplineSet
73 92 m 0,0,1
 73 140 73 140 108 172.5 c 128,-1,2
 143 205 143 205 191 205 c 0,3,4
 241 205 241 205 277 171.5 c 128,-1,5
 313 138 313 138 313 90 c 0,6,7
 313 40 313 40 277 4.5 c 128,-1,8
 241 -31 241 -31 191 -31 c 0,9,10
 142 -31 142 -31 107.5 5 c 128,-1,11
 73 41 73 41 73 92 c 0,0,1
EndSplineSet
Colour: ffffff
EndChar

StartChar: Udieresismacron
Encoding: 469 469 103
Width: 383
VWidth: 0
Flags: HMW
LayerCount: 2
Fore
SplineSet
73 92 m 0,0,1
 73 140 73 140 108 172.5 c 128,-1,2
 143 205 143 205 191 205 c 0,3,4
 241 205 241 205 277 171.5 c 128,-1,5
 313 138 313 138 313 90 c 0,6,7
 313 40 313 40 277 4.5 c 128,-1,8
 241 -31 241 -31 191 -31 c 0,9,10
 142 -31 142 -31 107.5 5 c 128,-1,11
 73 41 73 41 73 92 c 0,0,1
EndSplineSet
Colour: ffffff
EndChar

StartChar: Ugrave
Encoding: 217 217 104
Width: 383
VWidth: 0
Flags: HMW
LayerCount: 2
Fore
SplineSet
73 92 m 0,0,1
 73 140 73 140 108 172.5 c 128,-1,2
 143 205 143 205 191 205 c 0,3,4
 241 205 241 205 277 171.5 c 128,-1,5
 313 138 313 138 313 90 c 0,6,7
 313 40 313 40 277 4.5 c 128,-1,8
 241 -31 241 -31 191 -31 c 0,9,10
 142 -31 142 -31 107.5 5 c 128,-1,11
 73 41 73 41 73 92 c 0,0,1
EndSplineSet
Colour: ffffff
EndChar

StartChar: Uhungarumlaut
Encoding: 368 368 105
Width: 383
VWidth: 0
Flags: HMW
LayerCount: 2
Fore
SplineSet
73 92 m 0,0,1
 73 140 73 140 108 172.5 c 128,-1,2
 143 205 143 205 191 205 c 0,3,4
 241 205 241 205 277 171.5 c 128,-1,5
 313 138 313 138 313 90 c 0,6,7
 313 40 313 40 277 4.5 c 128,-1,8
 241 -31 241 -31 191 -31 c 0,9,10
 142 -31 142 -31 107.5 5 c 128,-1,11
 73 41 73 41 73 92 c 0,0,1
EndSplineSet
Colour: ffffff
EndChar

StartChar: Umacron
Encoding: 362 362 106
Width: 383
VWidth: 0
Flags: HMW
LayerCount: 2
Fore
SplineSet
73 92 m 0,0,1
 73 140 73 140 108 172.5 c 128,-1,2
 143 205 143 205 191 205 c 0,3,4
 241 205 241 205 277 171.5 c 128,-1,5
 313 138 313 138 313 90 c 0,6,7
 313 40 313 40 277 4.5 c 128,-1,8
 241 -31 241 -31 191 -31 c 0,9,10
 142 -31 142 -31 107.5 5 c 128,-1,11
 73 41 73 41 73 92 c 0,0,1
EndSplineSet
Colour: ffffff
EndChar

StartChar: Uogonek
Encoding: 370 370 107
Width: 383
VWidth: 0
Flags: HMW
LayerCount: 2
Fore
SplineSet
73 92 m 0,0,1
 73 140 73 140 108 172.5 c 128,-1,2
 143 205 143 205 191 205 c 0,3,4
 241 205 241 205 277 171.5 c 128,-1,5
 313 138 313 138 313 90 c 0,6,7
 313 40 313 40 277 4.5 c 128,-1,8
 241 -31 241 -31 191 -31 c 0,9,10
 142 -31 142 -31 107.5 5 c 128,-1,11
 73 41 73 41 73 92 c 0,0,1
EndSplineSet
Colour: ffffff
EndChar

StartChar: Uring
Encoding: 366 366 108
Width: 383
VWidth: 0
Flags: HMW
LayerCount: 2
Fore
SplineSet
73 92 m 0,0,1
 73 140 73 140 108 172.5 c 128,-1,2
 143 205 143 205 191 205 c 0,3,4
 241 205 241 205 277 171.5 c 128,-1,5
 313 138 313 138 313 90 c 0,6,7
 313 40 313 40 277 4.5 c 128,-1,8
 241 -31 241 -31 191 -31 c 0,9,10
 142 -31 142 -31 107.5 5 c 128,-1,11
 73 41 73 41 73 92 c 0,0,1
EndSplineSet
Colour: ffffff
EndChar

StartChar: V
Encoding: 86 86 109
Width: 1284
VWidth: 1691
Flags: HMW
LayerCount: 2
Fore
SplineSet
-21 1168 m 1,0,-1
 -11 1244 l 1,1,-1
 527 1244 l 1,2,-1
 517 1168 l 1,3,-1
 347 1130 l 1,4,-1
 660 251 l 1,5,-1
 980 1126 l 1,6,-1
 798 1168 l 1,7,-1
 805 1244 l 1,8,-1
 1260 1244 l 1,9,-1
 1253 1168 l 1,10,-1
 1121 1130 l 1,11,-1
 696 4 l 1,12,-1
 544 -24 l 1,13,-1
 126 1126 l 1,14,-1
 -21 1168 l 1,0,-1
EndSplineSet
Colour: ffffff
EndChar

StartChar: W
Encoding: 87 87 110
Width: 1844
VWidth: 1691
Flags: HMW
LayerCount: 2
Fore
SplineSet
-11 1168 m 1,0,-1
 -2 1244 l 1,1,-1
 512 1244 l 1,2,-1
 497 1168 l 1,3,-1
 330 1130 l 1,4,-1
 572 271 l 1,5,-1
 853 1194 l 1,6,-1
 1029 1219 l 1,7,-1
 1277 287 l 1,8,-1
 1538 1126 l 1,9,-1
 1357 1168 l 1,10,-1
 1368 1244 l 1,11,-1
 1817 1244 l 1,12,-1
 1806 1168 l 1,13,-1
 1683 1130 l 1,14,-1
 1318 4 l 1,15,-1
 1164 -24 l 1,16,-1
 902 951 l 1,17,-1
 617 4 l 1,18,-1
 454 -24 l 1,19,-1
 129 1126 l 1,20,-1
 -11 1168 l 1,0,-1
EndSplineSet
Colour: ffffff
EndChar

StartChar: Wacute
Encoding: 7810 7810 111
Width: 1789
VWidth: 0
Flags: HMW
LayerCount: 2
Fore
SplineSet
902 1385 m 1,0,-1
 1025 1710 l 1,1,-1
 1136 1670 l 1,2,-1
 953 1354 l 1,3,-1
 902 1385 l 1,0,-1
-11 1168 m 1,4,-1
 -2 1244 l 1,5,-1
 512 1244 l 1,6,-1
 497 1168 l 1,7,-1
 330 1130 l 1,8,-1
 572 271 l 1,9,-1
 853 1194 l 1,10,-1
 1029 1219 l 1,11,-1
 1277 287 l 1,12,-1
 1538 1126 l 1,13,-1
 1357 1168 l 1,14,-1
 1368 1244 l 1,15,-1
 1817 1244 l 1,16,-1
 1806 1168 l 1,17,-1
 1683 1130 l 1,18,-1
 1318 4 l 1,19,-1
 1164 -24 l 1,20,-1
 902 951 l 1,21,-1
 617 4 l 1,22,-1
 454 -24 l 1,23,-1
 129 1126 l 1,24,-1
 -11 1168 l 1,4,-1
EndSplineSet
Colour: ffffff
EndChar

StartChar: Wcircumflex
Encoding: 372 372 112
Width: 383
VWidth: 0
Flags: HMW
LayerCount: 2
Fore
SplineSet
73 92 m 0,0,1
 73 140 73 140 108 172.5 c 128,-1,2
 143 205 143 205 191 205 c 0,3,4
 241 205 241 205 277 171.5 c 128,-1,5
 313 138 313 138 313 90 c 0,6,7
 313 40 313 40 277 4.5 c 128,-1,8
 241 -31 241 -31 191 -31 c 0,9,10
 142 -31 142 -31 107.5 5 c 128,-1,11
 73 41 73 41 73 92 c 0,0,1
EndSplineSet
Colour: ffffff
EndChar

StartChar: Wdieresis
Encoding: 7812 7812 113
Width: 1789
VWidth: 0
Flags: HMW
LayerCount: 2
Fore
SplineSet
989 1453 m 0,0,1
 989 1486 989 1486 1016 1508 c 128,-1,2
 1043 1530 1043 1530 1075 1530 c 0,3,4
 1110 1530 1110 1530 1136.5 1508 c 128,-1,5
 1163 1486 1163 1486 1163 1453 c 0,6,7
 1163 1418 1163 1418 1136.5 1395.5 c 128,-1,8
 1110 1373 1110 1373 1075 1373 c 0,9,10
 1041 1373 1041 1373 1015 1395.5 c 128,-1,11
 989 1418 989 1418 989 1453 c 0,0,1
722 1453 m 0,12,13
 722 1486 722 1486 748.5 1508 c 128,-1,14
 775 1530 775 1530 807 1530 c 0,15,16
 841 1530 841 1530 866.5 1508 c 128,-1,17
 892 1486 892 1486 892 1453 c 0,18,19
 892 1418 892 1418 866.5 1395.5 c 128,-1,20
 841 1373 841 1373 807 1373 c 128,-1,21
 773 1373 773 1373 747.5 1395.5 c 128,-1,22
 722 1418 722 1418 722 1453 c 0,12,13
-11 1168 m 1,23,-1
 -2 1244 l 1,24,-1
 512 1244 l 1,25,-1
 497 1168 l 1,26,-1
 330 1130 l 1,27,-1
 572 271 l 1,28,-1
 853 1194 l 1,29,-1
 1029 1219 l 1,30,-1
 1277 287 l 1,31,-1
 1538 1126 l 1,32,-1
 1357 1168 l 1,33,-1
 1368 1244 l 1,34,-1
 1817 1244 l 1,35,-1
 1806 1168 l 1,36,-1
 1683 1130 l 1,37,-1
 1318 4 l 1,38,-1
 1164 -24 l 1,39,-1
 902 951 l 1,40,-1
 617 4 l 1,41,-1
 454 -24 l 1,42,-1
 129 1126 l 1,43,-1
 -11 1168 l 1,23,-1
EndSplineSet
Colour: ffffff
EndChar

StartChar: Wgrave
Encoding: 7808 7808 114
Width: 1789
VWidth: 0
Flags: HMW
LayerCount: 2
Fore
SplineSet
721 1664 m 1,0,-1
 836 1702 l 1,1,-1
 968 1368 l 1,2,-1
 910 1334 l 1,3,-1
 721 1664 l 1,0,-1
-11 1168 m 1,4,-1
 -2 1244 l 1,5,-1
 512 1244 l 1,6,-1
 497 1168 l 1,7,-1
 330 1130 l 1,8,-1
 572 271 l 1,9,-1
 853 1194 l 1,10,-1
 1029 1219 l 1,11,-1
 1277 287 l 1,12,-1
 1538 1126 l 1,13,-1
 1357 1168 l 1,14,-1
 1368 1244 l 1,15,-1
 1817 1244 l 1,16,-1
 1806 1168 l 1,17,-1
 1683 1130 l 1,18,-1
 1318 4 l 1,19,-1
 1164 -24 l 1,20,-1
 902 951 l 1,21,-1
 617 4 l 1,22,-1
 454 -24 l 1,23,-1
 129 1126 l 1,24,-1
 -11 1168 l 1,4,-1
EndSplineSet
Colour: ffffff
EndChar

StartChar: X
Encoding: 88 88 115
Width: 1202
VWidth: 1691
Flags: HMW
LayerCount: 2
Fore
SplineSet
-1 0 m 1,0,-1
 11 76 l 1,1,-1
 138 121 l 1,2,-1
 504 615 l 1,3,-1
 165 1123 l 1,4,-1
 28 1166 l 1,5,-1
 40 1244 l 1,6,-1
 553 1244 l 1,7,-1
 543 1166 l 1,8,-1
 386 1121 l 1,9,-1
 633 750 l 1,10,-1
 904 1126 l 1,11,-1
 734 1166 l 1,12,-1
 747 1244 l 1,13,-1
 1182 1244 l 1,14,-1
 1174 1168 l 1,15,-1
 1047 1130 l 1,16,-1
 709 657 l 1,17,-1
 1050 114 l 1,18,-1
 1185 80 l 1,19,-1
 1172 0 l 1,20,-1
 669 0 l 1,21,-1
 682 74 l 1,22,-1
 842 121 l 1,23,-1
 580 529 l 1,24,-1
 288 117 l 1,25,-1
 454 83 l 1,26,-1
 439 0 l 1,27,-1
 -1 0 l 1,0,-1
EndSplineSet
Colour: ffffff
EndChar

StartChar: Y
Encoding: 89 89 116
Width: 1210
VWidth: 1691
Flags: HMW
LayerCount: 2
Fore
SplineSet
-21 1168 m 1,0,-1
 -8 1244 l 1,1,-1
 500 1244 l 1,2,-1
 488 1168 l 1,3,-1
 330 1130 l 1,4,-1
 607 640 l 1,5,-1
 871 1126 l 1,6,-1
 688 1168 l 1,7,-1
 698 1244 l 1,8,-1
 1143 1244 l 1,9,-1
 1133 1168 l 1,10,-1
 1008 1130 l 1,11,-1
 663 529 l 1,12,-1
 663 114 l 1,13,-1
 826 80 l 1,14,-1
 816 0 l 1,15,-1
 310 0 l 1,16,-1
 320 74 l 1,17,-1
 470 121 l 1,18,-1
 470 504 l 1,19,-1
 117 1126 l 1,20,-1
 -21 1168 l 1,0,-1
EndSplineSet
Colour: ffffff
EndChar

StartChar: Yacute
Encoding: 221 221 117
Width: 383
VWidth: 0
Flags: HMW
LayerCount: 2
Fore
SplineSet
73 92 m 0,0,1
 73 140 73 140 108 172.5 c 128,-1,2
 143 205 143 205 191 205 c 0,3,4
 241 205 241 205 277 171.5 c 128,-1,5
 313 138 313 138 313 90 c 0,6,7
 313 40 313 40 277 4.5 c 128,-1,8
 241 -31 241 -31 191 -31 c 0,9,10
 142 -31 142 -31 107.5 5 c 128,-1,11
 73 41 73 41 73 92 c 0,0,1
EndSplineSet
Colour: ffffff
EndChar

StartChar: Ycircumflex
Encoding: 374 374 118
Width: 383
VWidth: 0
Flags: HMW
LayerCount: 2
Fore
SplineSet
73 92 m 0,0,1
 73 140 73 140 108 172.5 c 128,-1,2
 143 205 143 205 191 205 c 0,3,4
 241 205 241 205 277 171.5 c 128,-1,5
 313 138 313 138 313 90 c 0,6,7
 313 40 313 40 277 4.5 c 128,-1,8
 241 -31 241 -31 191 -31 c 0,9,10
 142 -31 142 -31 107.5 5 c 128,-1,11
 73 41 73 41 73 92 c 0,0,1
EndSplineSet
Colour: ffffff
EndChar

StartChar: Ydieresis
Encoding: 376 376 119
Width: 383
VWidth: 0
Flags: HMW
LayerCount: 2
Fore
SplineSet
73 92 m 0,0,1
 73 140 73 140 108 172.5 c 128,-1,2
 143 205 143 205 191 205 c 0,3,4
 241 205 241 205 277 171.5 c 128,-1,5
 313 138 313 138 313 90 c 0,6,7
 313 40 313 40 277 4.5 c 128,-1,8
 241 -31 241 -31 191 -31 c 0,9,10
 142 -31 142 -31 107.5 5 c 128,-1,11
 73 41 73 41 73 92 c 0,0,1
EndSplineSet
Colour: ffffff
EndChar

StartChar: Ygrave
Encoding: 7922 7922 120
Width: 1123
VWidth: 0
Flags: HMW
LayerCount: 2
Fore
SplineSet
297 1659 m 1,0,-1
 412 1697 l 1,1,-1
 544 1364 l 1,2,-1
 488 1329 l 1,3,-1
 297 1659 l 1,0,-1
-73 1168 m 1,4,-1
 -60 1244 l 1,5,-1
 448 1244 l 1,6,-1
 436 1168 l 1,7,-1
 278 1130 l 1,8,-1
 555 640 l 1,9,-1
 819 1126 l 1,10,-1
 636 1168 l 1,11,-1
 646 1244 l 1,12,-1
 1091 1244 l 1,13,-1
 1081 1168 l 1,14,-1
 956 1130 l 1,15,-1
 611 529 l 1,16,-1
 611 114 l 1,17,-1
 774 80 l 1,18,-1
 764 0 l 1,19,-1
 258 0 l 1,20,-1
 268 74 l 1,21,-1
 418 121 l 1,22,-1
 418 504 l 1,23,-1
 65 1126 l 1,24,-1
 -73 1168 l 1,4,-1
EndSplineSet
Colour: ffffff
EndChar

StartChar: Z
Encoding: 90 90 121
Width: 1009
VWidth: 1691
Flags: HMW
LayerCount: 2
Fore
SplineSet
47 104 m 1,0,-1
 792 1149 l 1,1,-1
 255 1149 l 1,2,-1
 178 903 l 1,3,-1
 88 921 l 1,4,-1
 98 1244 l 1,5,-1
 1026 1244 l 1,6,-1
 1026 1168 l 1,7,-1
 262 100 l 1,8,-1
 832 100 l 1,9,-1
 955 351 l 1,10,-1
 1048 335 l 1,11,-1
 991 0 l 1,12,-1
 55 0 l 1,13,-1
 47 104 l 1,0,-1
EndSplineSet
Colour: ffffff
EndChar

StartChar: Zacute
Encoding: 377 377 122
Width: 383
VWidth: 0
Flags: HMW
LayerCount: 2
Fore
SplineSet
73 92 m 0,0,1
 73 140 73 140 108 172.5 c 128,-1,2
 143 205 143 205 191 205 c 0,3,4
 241 205 241 205 277 171.5 c 128,-1,5
 313 138 313 138 313 90 c 0,6,7
 313 40 313 40 277 4.5 c 128,-1,8
 241 -31 241 -31 191 -31 c 0,9,10
 142 -31 142 -31 107.5 5 c 128,-1,11
 73 41 73 41 73 92 c 0,0,1
EndSplineSet
Colour: ffffff
EndChar

StartChar: Zcaron
Encoding: 381 381 123
Width: 383
VWidth: 0
Flags: HMW
LayerCount: 2
Fore
SplineSet
73 92 m 0,0,1
 73 140 73 140 108 172.5 c 128,-1,2
 143 205 143 205 191 205 c 0,3,4
 241 205 241 205 277 171.5 c 128,-1,5
 313 138 313 138 313 90 c 0,6,7
 313 40 313 40 277 4.5 c 128,-1,8
 241 -31 241 -31 191 -31 c 0,9,10
 142 -31 142 -31 107.5 5 c 128,-1,11
 73 41 73 41 73 92 c 0,0,1
EndSplineSet
Colour: ffffff
EndChar

StartChar: Zdotaccent
Encoding: 379 379 124
Width: 383
VWidth: 0
Flags: HMW
LayerCount: 2
Fore
SplineSet
73 92 m 0,0,1
 73 140 73 140 108 172.5 c 128,-1,2
 143 205 143 205 191 205 c 0,3,4
 241 205 241 205 277 171.5 c 128,-1,5
 313 138 313 138 313 90 c 0,6,7
 313 40 313 40 277 4.5 c 128,-1,8
 241 -31 241 -31 191 -31 c 0,9,10
 142 -31 142 -31 107.5 5 c 128,-1,11
 73 41 73 41 73 92 c 0,0,1
EndSplineSet
Colour: ffffff
EndChar

StartChar: a
Encoding: 97 97 125
Width: 830
VWidth: 0
Flags: HMW
LayerCount: 2
Fore
SplineSet
222 215 m 0,0,1
 222 173 222 173 252.5 136 c 128,-1,2
 283 99 283 99 334 99 c 0,3,4
 382 99 382 99 430 127 c 128,-1,5
 478 155 478 155 508 188 c 1,6,-1
 508 428 l 1,7,8
 352 397 352 397 287 344.5 c 128,-1,9
 222 292 222 292 222 215 c 0,0,1
47 168 m 0,10,11
 47 225 47 225 74 276.5 c 128,-1,12
 101 328 101 328 154.5 372.5 c 128,-1,13
 208 417 208 417 299 447 c 128,-1,14
 390 477 390 477 508 485 c 1,15,-1
 508 540 l 2,16,17
 508 594 508 594 499.5 639 c 128,-1,18
 491 684 491 684 471.5 723.5 c 128,-1,19
 452 763 452 763 416.5 785 c 128,-1,20
 381 807 381 807 331 807 c 0,21,22
 303 807 303 807 285 801 c 128,-1,23
 267 795 267 795 256 781 c 128,-1,24
 245 767 245 767 239 743.5 c 128,-1,25
 233 720 233 720 229 687 c 128,-1,26
 225 654 225 654 221 608 c 0,27,28
 220 597 220 597 220 592 c 1,29,30
 199 592 199 592 184.5 593 c 128,-1,31
 170 594 170 594 148.5 600 c 128,-1,32
 127 606 127 606 114 616 c 128,-1,33
 101 626 101 626 91 646.5 c 128,-1,34
 81 667 81 667 81 695 c 0,35,36
 81 747 81 747 138 795.5 c 128,-1,37
 195 844 195 844 274 872 c 128,-1,38
 353 900 353 900 423 900 c 0,39,40
 555 900 555 900 612.5 826.5 c 128,-1,41
 670 753 670 753 670 593 c 2,42,-1
 670 230 l 2,43,44
 670 160 670 160 691.5 133.5 c 128,-1,45
 713 107 713 107 782 96 c 1,46,-1
 832 87 l 1,47,-1
 819 1 l 1,48,49
 811 0 811 0 764.5 -9 c 128,-1,50
 718 -18 718 -18 683 -18 c 0,51,52
 604 -18 604 -18 566 23 c 128,-1,53
 528 64 528 64 528 116 c 2,54,-1
 528 131 l 1,55,-1
 517 131 l 1,56,57
 505 107 505 107 485 83.5 c 128,-1,58
 465 60 465 60 432.5 34 c 128,-1,59
 400 8 400 8 350.5 -8 c 128,-1,60
 301 -24 301 -24 243 -24 c 0,61,62
 161 -24 161 -24 104 28 c 128,-1,63
 47 80 47 80 47 168 c 0,10,11
EndSplineSet
Colour: ffffff
EndChar

StartChar: aacute
Encoding: 225 225 126
Width: 383
VWidth: 0
Flags: HMW
LayerCount: 2
Fore
SplineSet
73 92 m 0,0,1
 73 140 73 140 108 172.5 c 128,-1,2
 143 205 143 205 191 205 c 0,3,4
 241 205 241 205 277 171.5 c 128,-1,5
 313 138 313 138 313 90 c 0,6,7
 313 40 313 40 277 4.5 c 128,-1,8
 241 -31 241 -31 191 -31 c 0,9,10
 142 -31 142 -31 107.5 5 c 128,-1,11
 73 41 73 41 73 92 c 0,0,1
EndSplineSet
Colour: ffffff
EndChar

StartChar: abreve
Encoding: 259 259 127
Width: 383
VWidth: 0
Flags: HMW
LayerCount: 2
Fore
SplineSet
73 92 m 0,0,1
 73 140 73 140 108 172.5 c 128,-1,2
 143 205 143 205 191 205 c 0,3,4
 241 205 241 205 277 171.5 c 128,-1,5
 313 138 313 138 313 90 c 0,6,7
 313 40 313 40 277 4.5 c 128,-1,8
 241 -31 241 -31 191 -31 c 0,9,10
 142 -31 142 -31 107.5 5 c 128,-1,11
 73 41 73 41 73 92 c 0,0,1
EndSplineSet
Colour: ffffff
EndChar

StartChar: acaron
Encoding: 462 462 128
Width: 383
VWidth: 0
Flags: HMW
LayerCount: 2
Fore
SplineSet
73 92 m 0,0,1
 73 140 73 140 108 172.5 c 128,-1,2
 143 205 143 205 191 205 c 0,3,4
 241 205 241 205 277 171.5 c 128,-1,5
 313 138 313 138 313 90 c 0,6,7
 313 40 313 40 277 4.5 c 128,-1,8
 241 -31 241 -31 191 -31 c 0,9,10
 142 -31 142 -31 107.5 5 c 128,-1,11
 73 41 73 41 73 92 c 0,0,1
EndSplineSet
Colour: ffffff
EndChar

StartChar: acircumflex
Encoding: 226 226 129
Width: 383
VWidth: 0
Flags: HMW
LayerCount: 2
Fore
SplineSet
73 92 m 0,0,1
 73 140 73 140 108 172.5 c 128,-1,2
 143 205 143 205 191 205 c 0,3,4
 241 205 241 205 277 171.5 c 128,-1,5
 313 138 313 138 313 90 c 0,6,7
 313 40 313 40 277 4.5 c 128,-1,8
 241 -31 241 -31 191 -31 c 0,9,10
 142 -31 142 -31 107.5 5 c 128,-1,11
 73 41 73 41 73 92 c 0,0,1
EndSplineSet
Colour: ffffff
EndChar

StartChar: acute
Encoding: 180 180 130
Width: 383
VWidth: 0
Flags: HMW
LayerCount: 2
Fore
SplineSet
73 92 m 0,0,1
 73 140 73 140 108 172.5 c 128,-1,2
 143 205 143 205 191 205 c 0,3,4
 241 205 241 205 277 171.5 c 128,-1,5
 313 138 313 138 313 90 c 0,6,7
 313 40 313 40 277 4.5 c 128,-1,8
 241 -31 241 -31 191 -31 c 0,9,10
 142 -31 142 -31 107.5 5 c 128,-1,11
 73 41 73 41 73 92 c 0,0,1
EndSplineSet
Colour: ffffff
EndChar

StartChar: adieresis
Encoding: 228 228 131
Width: 383
VWidth: 0
Flags: HMW
LayerCount: 2
Fore
SplineSet
73 92 m 0,0,1
 73 140 73 140 108 172.5 c 128,-1,2
 143 205 143 205 191 205 c 0,3,4
 241 205 241 205 277 171.5 c 128,-1,5
 313 138 313 138 313 90 c 0,6,7
 313 40 313 40 277 4.5 c 128,-1,8
 241 -31 241 -31 191 -31 c 0,9,10
 142 -31 142 -31 107.5 5 c 128,-1,11
 73 41 73 41 73 92 c 0,0,1
EndSplineSet
Colour: ffffff
EndChar

StartChar: ae
Encoding: 230 230 132
Width: 383
VWidth: 0
Flags: HMW
LayerCount: 2
Fore
SplineSet
73 92 m 0,0,1
 73 140 73 140 108 172.5 c 128,-1,2
 143 205 143 205 191 205 c 0,3,4
 241 205 241 205 277 171.5 c 128,-1,5
 313 138 313 138 313 90 c 0,6,7
 313 40 313 40 277 4.5 c 128,-1,8
 241 -31 241 -31 191 -31 c 0,9,10
 142 -31 142 -31 107.5 5 c 128,-1,11
 73 41 73 41 73 92 c 0,0,1
EndSplineSet
Colour: ffffff
EndChar

StartChar: agrave
Encoding: 224 224 133
Width: 383
VWidth: 0
Flags: HMW
LayerCount: 2
Fore
SplineSet
73 92 m 0,0,1
 73 140 73 140 108 172.5 c 128,-1,2
 143 205 143 205 191 205 c 0,3,4
 241 205 241 205 277 171.5 c 128,-1,5
 313 138 313 138 313 90 c 0,6,7
 313 40 313 40 277 4.5 c 128,-1,8
 241 -31 241 -31 191 -31 c 0,9,10
 142 -31 142 -31 107.5 5 c 128,-1,11
 73 41 73 41 73 92 c 0,0,1
EndSplineSet
Colour: ffffff
EndChar

StartChar: amacron
Encoding: 257 257 134
Width: 383
VWidth: 0
Flags: HMW
LayerCount: 2
Fore
SplineSet
73 92 m 0,0,1
 73 140 73 140 108 172.5 c 128,-1,2
 143 205 143 205 191 205 c 0,3,4
 241 205 241 205 277 171.5 c 128,-1,5
 313 138 313 138 313 90 c 0,6,7
 313 40 313 40 277 4.5 c 128,-1,8
 241 -31 241 -31 191 -31 c 0,9,10
 142 -31 142 -31 107.5 5 c 128,-1,11
 73 41 73 41 73 92 c 0,0,1
EndSplineSet
Colour: ffffff
EndChar

StartChar: ampersand
Encoding: 38 38 135
Width: 1281
VWidth: 0
Flags: HMW
LayerCount: 2
Back
SplineSet
1232 723 m 1,0,-1
 966 353 l 1,1,2
 1156 108 1156 108 1250 79 c 2,3,-1
 1282 69 l 1,4,-1
 1255 0 l 1,5,6
 1195 -20 1195 -20 1131 -20 c 0,7,8
 1055 -20 1055 -20 984 42 c 0
 913 104 913 104 826 218 c 1,9,10
 787 173 787 173 751.5 140 c 0
 716 107 716 107 658.5 66 c 0
 601 25 601 25 529 2.5 c 0
 457 -20 457 -20 378 -20 c 0,11,12
 217 -20 217 -20 131.5 78 c 0
 46 176 46 176 68 314 c 0,13,14
 104 539 104 539 419 702 c 1,15,16
 371 749 371 749 338 821.5 c 0
 305 894 305 894 317 974 c 0,17,18
 335 1088 335 1088 444 1180 c 0
 553 1272 553 1272 680 1272 c 0,19,20
 744 1272 744 1272 796 1258.5 c 0
 848 1245 848 1245 890 1216 c 0
 932 1187 932 1187 950.5 1134.5 c 0
 969 1082 969 1082 958 1011 c 0,21,22
 934 862 934 862 672 717 c 1,23,-1
 670 705 l 1,24,-1
 907 423 l 1,25,-1
 1121 720 l 1,26,-1
 960 761 l 1,27,-1
 981 837 l 1,28,-1
 1430 837 l 1,29,-1
 1409 761 l 1,30,-1
 1232 723 l 1,0,-1
472 629 m 1,31,-1
 457 631 l 1,32,33
 389 589 389 589 335 527.5 c 0
 281 466 281 466 269 393 c 1,34,35
 252 280 252 280 301 193 c 0
 350 106 350 106 457 106 c 0,36,37
 509 106 509 106 563.5 127.5 c 0
 618 149 618 149 658.5 180.5 c 0
 699 212 699 212 726 238 c 0
 753 264 753 264 765 282 c 1,38,-1
 472 629 l 1,31,-1
613 773 m 1,39,40
 694 822 694 822 733.5 870 c 0
 773 918 773 918 784 988 c 0,41,42
 797 1071 797 1071 760.5 1129 c 0
 724 1187 724 1187 647 1187 c 0,43,44
 583 1187 583 1187 539.5 1137 c 0
 496 1087 496 1087 486 1024 c 0,45,46
 476 960 476 960 517 892.5 c 0
 558 825 558 825 613 773 c 1,39,40
EndSplineSet
Fore
SplineSet
338 1024 m 0,0,1
 338 956 338 956 385 886 c 128,-1,2
 432 816 432 816 488 773 c 1,3,4
 533 803 533 803 557.5 827 c 128,-1,5
 582 851 582 851 599 891.5 c 128,-1,6
 616 932 616 932 616 988 c 0,7,8
 616 1078 616 1078 582 1133 c 128,-1,9
 548 1188 548 1188 474 1188 c 0,10,11
 413 1188 413 1188 375.5 1139 c 128,-1,12
 338 1090 338 1090 338 1024 c 0,0,1
221 393 m 0,13,14
 221 270 221 270 276.5 187.5 c 128,-1,15
 332 105 332 105 439 105 c 0,16,17
 519 105 519 105 584.5 159 c 128,-1,18
 650 213 650 213 685 282 c 1,19,-1
 372 629 l 1,20,-1
 355 632 l 1,21,22
 297 592 297 592 259 531 c 128,-1,23
 221 470 221 470 221 393 c 0,13,14
33 313 m 0,24,25
 33 544 33 544 310 701 c 1,26,27
 256 746 256 746 217 820 c 128,-1,28
 178 894 178 894 178 974 c 0,29,30
 178 1090 178 1090 275.5 1180.5 c 128,-1,31
 373 1271 373 1271 494 1271 c 0,32,33
 634 1271 634 1271 710 1207 c 128,-1,34
 786 1143 786 1143 786 1011 c 0,35,36
 786 856 786 856 556 716 c 1,37,-1
 556 705 l 1,38,-1
 787 449 l 1,39,-1
 964 719 l 1,40,-1
 813 761 l 1,41,-1
 823 837 l 1,42,-1
 1255 837 l 1,43,-1
 1245 761 l 1,44,-1
 1075 722 l 1,45,-1
 859 380 l 1,46,47
 1113 106 1113 106 1202 79 c 1,48,-1
 1235 70 l 1,49,-1
 1220 0 l 1,50,51
 1166 -19 1166 -19 1100 -19 c 0,52,53
 1061 -19 1061 -19 1023 -6 c 128,-1,54
 985 7 985 7 951 32.5 c 128,-1,55
 917 58 917 58 895 78 c 128,-1,56
 873 98 873 98 844 128 c 2,57,-1
 756 218 l 1,58,59
 717 161 717 161 684 123 c 128,-1,60
 651 85 651 85 605.5 50 c 128,-1,61
 560 15 560 15 504 -2 c 128,-1,62
 448 -19 448 -19 380 -19 c 0,63,64
 225 -19 225 -19 129 72 c 128,-1,65
 33 163 33 163 33 313 c 0,24,25
EndSplineSet
Colour: ffffff
EndChar

StartChar: aogonek
Encoding: 261 261 136
Width: 383
VWidth: 0
Flags: HMW
LayerCount: 2
Fore
SplineSet
73 92 m 0,0,1
 73 140 73 140 108 172.5 c 128,-1,2
 143 205 143 205 191 205 c 0,3,4
 241 205 241 205 277 171.5 c 128,-1,5
 313 138 313 138 313 90 c 0,6,7
 313 40 313 40 277 4.5 c 128,-1,8
 241 -31 241 -31 191 -31 c 0,9,10
 142 -31 142 -31 107.5 5 c 128,-1,11
 73 41 73 41 73 92 c 0,0,1
EndSplineSet
Colour: ffffff
EndChar

StartChar: approxequal
Encoding: 8776 8776 137
Width: 921
VWidth: 0
Flags: HMW
LayerCount: 2
Back
SplineSet
3.39062 725 m 5,0,1
 -3.45327 787.217 -3.45327 787.217 3.39061 845.048 c 0
 10.2345 902.879 10.2345 902.879 32.6706 955.304 c 0
 55.1068 1007.73 55.1068 1007.73 95.5507 1040.94 c 0
 135.995 1074.14 135.995 1074.14 196.351 1087.11 c 0
 256.707 1100.08 256.707 1100.08 339.391 1079 c 2,2,-1
 681.391 996 l 2,3,4
 700.711 991.52 700.711 991.52 718.736 999.039 c 0
 736.761 1006.56 736.761 1006.56 748.686 1020.49 c 0
 760.611 1034.42 760.611 1034.42 769.776 1048.99 c 0
 778.941 1063.56 778.941 1063.56 783.166 1074.28 c 2
 787.391 1085 l 1,5,-1
 961.391 1067 l 1,6,7
 959.887 858.008 959.887 858.008 865.3 774.56 c 0
 770.713 691.112 770.713 691.112 587.391 739 c 2,8,-1
 272.391 821 l 2,9,10
 249.151 827.16 249.151 827.16 231.229 818.508 c 0
 213.307 809.856 213.307 809.856 204.329 793.108 c 0
 195.351 776.36 195.351 776.36 189.693 758.732 c 0
 184.035 741.104 184.035 741.104 182.713 728.052 c 2
 181.391 715 l 1,11,-1
 3.39062 725 l 5,0,1
3.39062 322 m 5,12,13
 -3.45327 384.217 -3.45327 384.217 3.39061 442.048 c 0
 10.2345 499.879 10.2345 499.879 32.6706 552.304 c 0
 55.1068 604.729 55.1068 604.729 95.5507 637.936 c 0
 135.995 671.143 135.995 671.143 196.351 684.112 c 0
 256.707 697.081 256.707 697.081 339.391 676 c 2,14,-1
 681.391 593 l 2,15,16
 700.711 588.52 700.711 588.52 718.736 596.039 c 0
 736.761 603.558 736.761 603.558 748.686 617.489 c 0
 760.611 631.42 760.611 631.42 769.776 645.991 c 0
 778.941 660.562 778.941 660.562 783.166 671.281 c 2
 787.391 682 l 1,17,-1
 961.391 664 l 1,18,19
 959.887 455.008 959.887 455.008 865.3 371.56 c 0
 770.713 288.112 770.713 288.112 587.391 336 c 2,20,-1
 272.391 418 l 2,21,22
 249.151 424.16 249.151 424.16 231.229 415.508 c 0
 213.307 406.856 213.307 406.856 204.329 390.108 c 0
 195.351 373.36 195.351 373.36 189.693 355.732 c 0
 184.035 338.104 184.035 338.104 182.713 325.052 c 2
 181.391 312 l 1,23,-1
 3.39062 322 l 5,12,13
EndSplineSet
Fore
SplineSet
70 700 m 1,0,1
 65 787 65 787 115.5 847 c 128,-1,2
 166 907 166 907 260 898 c 2,3,-1
 709 854 l 2,4,5
 774 847 774 847 792 915 c 1,6,-1
 856 913 l 1,7,8
 860 816 860 816 811 759 c 128,-1,9
 762 702 762 702 658 712 c 2,10,-1
 208 756 l 2,11,12
 178 759 178 759 158 741.5 c 128,-1,13
 138 724 138 724 132 706 c 2,14,-1
 126 687 l 1,15,-1
 70 700 l 1,0,1
70 383 m 1,16,17
 68 416 68 416 79.5 452 c 128,-1,18
 91 488 91 488 113.5 519.5 c 128,-1,19
 136 551 136 551 175 569 c 128,-1,20
 214 587 214 587 260 582 c 2,21,-1
 709 538 l 2,22,23
 738 535 738 535 760.5 550 c 128,-1,24
 783 565 783 565 792 598 c 1,25,-1
 856 597 l 1,26,27
 858 505 858 505 804.5 445.5 c 128,-1,28
 751 386 751 386 658 395 c 2,29,-1
 208 440 l 2,30,31
 176 443 176 443 155 418.5 c 128,-1,32
 134 394 134 394 126 370 c 1,33,-1
 70 383 l 1,16,17
EndSplineSet
Colour: ffffff
EndChar

StartChar: aring
Encoding: 229 229 138
Width: 383
VWidth: 0
Flags: HMW
LayerCount: 2
Fore
SplineSet
73 92 m 0,0,1
 73 140 73 140 108 172.5 c 128,-1,2
 143 205 143 205 191 205 c 0,3,4
 241 205 241 205 277 171.5 c 128,-1,5
 313 138 313 138 313 90 c 0,6,7
 313 40 313 40 277 4.5 c 128,-1,8
 241 -31 241 -31 191 -31 c 0,9,10
 142 -31 142 -31 107.5 5 c 128,-1,11
 73 41 73 41 73 92 c 0,0,1
EndSplineSet
Colour: ffffff
EndChar

StartChar: asciicircum
Encoding: 94 94 139
Width: 720
VWidth: 0
Flags: HMW
LayerCount: 2
Fore
SplineSet
42 826 m 1,0,-1
 331 1237 l 1,1,-1
 386 1250 l 1,2,-1
 681 824 l 1,3,-1
 624 787 l 1,4,-1
 353 1073 l 1,5,-1
 343 1073 l 1,6,-1
 92 793 l 1,7,-1
 42 826 l 1,0,-1
EndSplineSet
Colour: ffffff
EndChar

StartChar: asciitilde
Encoding: 126 126 140
Width: 947
VWidth: 0
Flags: HMW
LayerCount: 2
Fore
SplineSet
83 412 m 1,0,1
 85 421 85 421 90 435 c 128,-1,2
 95 449 95 449 112.5 485 c 128,-1,3
 130 521 130 521 150 547.5 c 128,-1,4
 170 574 170 574 203.5 594.5 c 128,-1,5
 237 615 237 615 274 611 c 2,6,-1
 724 566 l 2,7,8
 740 565 740 565 761 580.5 c 128,-1,9
 782 596 782 596 794 612 c 2,10,-1
 806 628 l 1,11,-1
 870 626 l 1,12,13
 867 617 867 617 862 602.5 c 128,-1,14
 857 588 857 588 839 551.5 c 128,-1,15
 821 515 821 515 800.5 488 c 128,-1,16
 780 461 780 461 745 440.5 c 128,-1,17
 710 420 710 420 672 424 c 2,18,-1
 222 469 l 2,19,20
 204 471 204 471 183 453.5 c 128,-1,21
 162 436 162 436 150 418 c 2,22,-1
 138 399 l 1,23,-1
 83 412 l 1,0,1
EndSplineSet
Colour: ffffff
EndChar

StartChar: asterisk
Encoding: 42 42 141
Width: 808
VWidth: 0
Flags: HMW
LayerCount: 2
Fore
SplineSet
328 1292 m 1,0,-1
 464 1279 l 1,1,-1
 438 988 l 1,2,-1
 727 1119 l 1,3,-1
 756 989 l 1,4,-1
 471 921 l 1,5,-1
 690 692 l 1,6,-1
 572 623 l 1,7,-1
 419 870 l 1,8,-1
 264 593 l 1,9,-1
 162 685 l 1,10,-1
 355 904 l 1,11,-1
 43 964 l 1,12,-1
 98 1091 l 1,13,-1
 365 977 l 1,14,-1
 328 1292 l 1,0,-1
EndSplineSet
Colour: ffffff
EndChar

StartChar: at
Encoding: 64 64 142
Width: 1367
VWidth: 0
Flags: HMW
LayerCount: 2
Fore
SplineSet
516 368 m 0,0,1
 516 262 516 262 538 221.5 c 128,-1,2
 560 181 560 181 601 181 c 0,3,4
 677 181 677 181 739 254 c 1,5,-1
 792 692 l 1,6,7
 740 703 740 703 704 703 c 0,8,9
 649 703 649 703 604.5 651 c 128,-1,10
 560 599 560 599 538 523 c 128,-1,11
 516 447 516 447 516 368 c 0,0,1
54 325 m 0,12,13
 54 523 54 523 146.5 687 c 128,-1,14
 239 851 239 851 407.5 947.5 c 128,-1,15
 576 1044 576 1044 787 1044 c 0,16,17
 927 1044 927 1044 1045 988.5 c 128,-1,18
 1163 933 1163 933 1234.5 827.5 c 128,-1,19
 1306 722 1306 722 1306 589 c 0,20,21
 1306 454 1306 454 1245.5 335.5 c 128,-1,22
 1185 217 1185 217 1075 143.5 c 128,-1,23
 965 70 965 70 832 70 c 0,24,25
 783 70 783 70 759.5 101.5 c 128,-1,26
 736 133 736 133 738 187 c 1,27,-1
 728 187 l 1,28,29
 693 135 693 135 643 97 c 128,-1,30
 593 59 593 59 541 59 c 0,31,32
 460 59 460 59 410 130 c 128,-1,33
 360 201 360 201 360 326 c 0,34,35
 360 428 360 428 398.5 517.5 c 128,-1,36
 437 607 437 607 496.5 665 c 128,-1,37
 556 723 556 723 625 756 c 128,-1,38
 694 789 694 789 758 789 c 0,39,40
 854 789 854 789 924 773 c 1,41,-1
 943 751 l 1,42,-1
 902 385 l 2,43,44
 901 372 901 372 897.5 347 c 128,-1,45
 894 322 894 322 892 304.5 c 128,-1,46
 890 287 890 287 888 264.5 c 128,-1,47
 886 242 886 242 886.5 226.5 c 128,-1,48
 887 211 887 211 889 196.5 c 128,-1,49
 891 182 891 182 897.5 175 c 128,-1,50
 904 168 904 168 914 168 c 0,51,52
 1025 168 1025 168 1099 280.5 c 128,-1,53
 1173 393 1173 393 1173 549 c 0,54,55
 1173 739 1173 739 1053.5 847 c 128,-1,56
 934 955 934 955 751 955 c 0,57,58
 631 955 631 955 528 905 c 128,-1,59
 425 855 425 855 356 771 c 128,-1,60
 287 687 287 687 248 578 c 128,-1,61
 209 469 209 469 209 351 c 0,62,63
 209 127 209 127 346 -4 c 128,-1,64
 483 -135 483 -135 727 -135 c 0,65,66
 828 -135 828 -135 931.5 -96 c 128,-1,67
 1035 -57 1035 -57 1079 -19 c 1,68,-1
 1115 -83 l 1,69,70
 1111 -85 1111 -85 1069 -111 c 128,-1,71
 1027 -137 1027 -137 1011.5 -145.5 c 128,-1,72
 996 -154 996 -154 952 -174.5 c 128,-1,73
 908 -195 908 -195 875.5 -203.5 c 128,-1,74
 843 -212 843 -212 793 -220 c 128,-1,75
 743 -228 743 -228 691 -228 c 0,76,77
 596 -228 596 -228 507.5 -209.5 c 128,-1,78
 419 -191 419 -191 335.5 -148.5 c 128,-1,79
 252 -106 252 -106 190.5 -43.5 c 128,-1,80
 129 19 129 19 91.5 114 c 128,-1,81
 54 209 54 209 54 325 c 0,12,13
EndSplineSet
Colour: ffffff
EndChar

StartChar: atilde
Encoding: 227 227 143
Width: 383
VWidth: 0
Flags: HMW
LayerCount: 2
Fore
SplineSet
73 92 m 0,0,1
 73 140 73 140 108 172.5 c 128,-1,2
 143 205 143 205 191 205 c 0,3,4
 241 205 241 205 277 171.5 c 128,-1,5
 313 138 313 138 313 90 c 0,6,7
 313 40 313 40 277 4.5 c 128,-1,8
 241 -31 241 -31 191 -31 c 0,9,10
 142 -31 142 -31 107.5 5 c 128,-1,11
 73 41 73 41 73 92 c 0,0,1
EndSplineSet
Colour: ffffff
EndChar

StartChar: b
Encoding: 98 98 144
Width: 955
VWidth: 0
Flags: HMW
LayerCount: 2
Fore
SplineSet
299 155 m 1,0,1
 329 125 329 125 387 106 c 128,-1,2
 445 87 445 87 510 87 c 0,3,4
 602 87 602 87 663.5 168.5 c 128,-1,5
 725 250 725 250 725 408 c 0,6,7
 725 456 725 456 719.5 502.5 c 128,-1,8
 714 549 714 549 699.5 598.5 c 128,-1,9
 685 648 685 648 662 684.5 c 128,-1,10
 639 721 639 721 600.5 744.5 c 128,-1,11
 562 768 562 768 513 768 c 0,12,13
 390 768 390 768 299 672 c 1,14,-1
 299 155 l 1,0,1
-15 1161 m 1,15,-1
 -2 1237 l 1,16,-1
 275 1258 l 1,17,-1
 299 1235 l 1,18,-1
 299 849 l 1,19,-1
 285 744 l 1,20,-1
 296 744 l 1,21,22
 434 899 434 899 581 899 c 0,23,24
 726 899 726 899 815 780.5 c 128,-1,25
 904 662 904 662 904 472 c 0,26,27
 904 319 904 319 834.5 204.5 c 128,-1,28
 765 90 765 90 654 33.5 c 128,-1,29
 543 -23 543 -23 411 -23 c 0,30,31
 251 -23 251 -23 136 49 c 1,32,-1
 136 1108 l 1,33,-1
 -15 1161 l 1,15,-1
EndSplineSet
Colour: ffffff
EndChar

StartChar: backslash
Encoding: 92 92 145
Width: 677
VWidth: 0
Flags: HMW
LayerCount: 2
Fore
SplineSet
37 1274 m 1,0,-1
 171 1266 l 1,1,-1
 632 -376 l 1,2,-1
 504 -368 l 1,3,-1
 37 1274 l 1,0,-1
EndSplineSet
Colour: ffffff
EndChar

StartChar: bar
Encoding: 124 124 146
Width: 331
VWidth: 0
Flags: HMW
LayerCount: 2
Fore
SplineSet
109 -366 m 1,0,-1
 109 1260 l 1,1,-1
 224 1248 l 1,2,-1
 224 -380 l 1,3,-1
 109 -366 l 1,0,-1
EndSplineSet
Colour: ffffff
EndChar

StartChar: braceleft
Encoding: 123 123 147
Width: 551
VWidth: 0
Flags: HMW
LayerCount: 2
Fore
SplineSet
4 389 m 1,0,-1
 4 488 l 1,1,-1
 53 497 l 2,2,3
 112 507 112 507 143.5 554.5 c 128,-1,4
 175 602 175 602 183.5 669.5 c 128,-1,5
 192 737 192 737 193 816 c 128,-1,6
 194 895 194 895 200 972.5 c 128,-1,7
 206 1050 206 1050 224 1113.5 c 128,-1,8
 242 1177 242 1177 292.5 1216 c 128,-1,9
 343 1255 343 1255 426 1255 c 2,10,-1
 527 1255 l 1,11,-1
 518 1155 l 1,12,-1
 436 1149 l 2,13,14
 390 1145 390 1145 377 1089.5 c 128,-1,15
 364 1034 364 1034 364 921 c 2,16,-1
 364 862 l 2,17,18
 364 797 364 797 362 754.5 c 128,-1,19
 360 712 360 712 350.5 654.5 c 128,-1,20
 341 597 341 597 324 560 c 128,-1,21
 307 523 307 523 274 490.5 c 128,-1,22
 241 458 241 458 194 445 c 1,23,-1
 194 438 l 1,24,25
 254 421 254 421 291.5 372.5 c 128,-1,26
 329 324 329 324 343 261.5 c 128,-1,27
 357 199 357 199 361.5 127 c 128,-1,28
 366 55 366 55 365.5 -14 c 128,-1,29
 365 -83 365 -83 369.5 -140 c 128,-1,30
 374 -197 374 -197 393 -233 c 128,-1,31
 412 -269 412 -269 449 -271 c 2,32,-1
 523 -277 l 1,33,-1
 531 -378 l 1,34,-1
 429 -378 l 2,35,36
 345 -378 345 -378 293.5 -338.5 c 128,-1,37
 242 -299 242 -299 223.5 -235.5 c 128,-1,38
 205 -172 205 -172 199 -94 c 128,-1,39
 193 -16 193 -16 192 63.5 c 128,-1,40
 191 143 191 143 183.5 210.5 c 128,-1,41
 176 278 176 278 145 325 c 128,-1,42
 114 372 114 372 56 381 c 2,43,-1
 4 389 l 1,0,-1
EndSplineSet
Colour: ffffff
EndChar

StartChar: braceright
Encoding: 125 125 148
Width: 553
VWidth: 0
Flags: HMW
LayerCount: 2
Fore
SplineSet
22 -378 m 1,0,-1
 31 -277 l 1,1,-1
 105 -271 l 2,2,3
 142 -269 142 -269 161 -233 c 128,-1,4
 180 -197 180 -197 184.5 -140 c 128,-1,5
 189 -83 189 -83 188.5 -14 c 128,-1,6
 188 55 188 55 192.5 127 c 128,-1,7
 197 199 197 199 211 261.5 c 128,-1,8
 225 324 225 324 262.5 372.5 c 128,-1,9
 300 421 300 421 360 438 c 1,10,-1
 360 445 l 1,11,12
 300 459 300 459 262.5 505 c 128,-1,13
 225 551 225 551 212 613 c 128,-1,14
 199 675 199 675 195 746.5 c 128,-1,15
 191 818 191 818 192 887.5 c 128,-1,16
 193 957 193 957 190 1014.5 c 128,-1,17
 187 1072 187 1072 169.5 1109 c 128,-1,18
 152 1146 152 1146 117 1149 c 2,19,-1
 35 1155 l 1,20,-1
 28 1255 l 1,21,-1
 129 1255 l 2,22,23
 194 1255 194 1255 239.5 1230.5 c 128,-1,24
 285 1206 285 1206 307.5 1165 c 128,-1,25
 330 1124 330 1124 342 1070 c 128,-1,26
 354 1016 354 1016 356.5 955.5 c 128,-1,27
 359 895 359 895 359.5 834 c 128,-1,28
 360 773 360 773 365 716 c 128,-1,29
 370 659 370 659 382.5 613 c 128,-1,30
 395 567 395 567 424.5 536 c 128,-1,31
 454 505 454 505 500 497 c 2,32,-1
 549 488 l 1,33,-1
 549 389 l 1,34,-1
 497 381 l 2,35,36
 439 372 439 372 408.5 325 c 128,-1,37
 378 278 378 278 370 210.5 c 128,-1,38
 362 143 362 143 361.5 63.5 c 128,-1,39
 361 -16 361 -16 355.5 -94 c 128,-1,40
 350 -172 350 -172 331.5 -235.5 c 128,-1,41
 313 -299 313 -299 261.5 -338.5 c 128,-1,42
 210 -378 210 -378 126 -378 c 2,43,-1
 22 -378 l 1,0,-1
EndSplineSet
Colour: ffffff
EndChar

StartChar: bracketleft
Encoding: 91 91 149
Width: 474
VWidth: 0
Flags: HMW
LayerCount: 2
Fore
SplineSet
109 -376 m 1,0,-1
 109 1255 l 1,1,-1
 463 1255 l 1,2,-1
 474 1166 l 1,3,-1
 260 1146 l 1,4,-1
 260 -260 l 1,5,-1
 476 -279 l 1,6,-1
 466 -375 l 1,7,-1
 109 -376 l 1,0,-1
EndSplineSet
Colour: ffffff
EndChar

StartChar: bracketright
Encoding: 93 93 150
Width: 474
VWidth: 0
Flags: HMW
LayerCount: 2
Fore
SplineSet
0 -279 m 1,0,-1
 217 -260 l 1,1,-1
 217 1146 l 1,2,-1
 1 1166 l 1,3,-1
 13 1255 l 1,4,-1
 366 1255 l 1,5,-1
 368 -376 l 1,6,-1
 10 -375 l 1,7,-1
 0 -279 l 1,0,-1
EndSplineSet
Colour: ffffff
EndChar

StartChar: breve
Encoding: 728 728 151
Width: 383
VWidth: 0
Flags: HMW
LayerCount: 2
Fore
SplineSet
73 92 m 0,0,1
 73 140 73 140 108 172.5 c 128,-1,2
 143 205 143 205 191 205 c 0,3,4
 241 205 241 205 277 171.5 c 128,-1,5
 313 138 313 138 313 90 c 0,6,7
 313 40 313 40 277 4.5 c 128,-1,8
 241 -31 241 -31 191 -31 c 0,9,10
 142 -31 142 -31 107.5 5 c 128,-1,11
 73 41 73 41 73 92 c 0,0,1
EndSplineSet
Colour: ffffff
EndChar

StartChar: brokenbar
Encoding: 166 166 152
Width: 383
VWidth: 0
Flags: HMW
LayerCount: 2
Back
SplineSet
177 -350 m 1,0,-1
 301 431 l 1,1,-1
 410 419 l 1,2,-1
 286 -363 l 1,3,-1
 177 -350 l 1,0,-1
319 540 m 1,4,-1
 431 1255 l 1,5,-1
 540 1244 l 1,6,-1
 423 528 l 1,7,-1
 319 540 l 1,4,-1
EndSplineSet
Fore
SplineSet
73 92 m 0,0,1
 73 140 73 140 108 172.5 c 128,-1,2
 143 205 143 205 191 205 c 0,3,4
 241 205 241 205 277 171.5 c 128,-1,5
 313 138 313 138 313 90 c 0,6,7
 313 40 313 40 277 4.5 c 128,-1,8
 241 -31 241 -31 191 -31 c 0,9,10
 142 -31 142 -31 107.5 5 c 128,-1,11
 73 41 73 41 73 92 c 0,0,1
EndSplineSet
Colour: ffffff
EndChar

StartChar: bullet
Encoding: 8226 8226 153
Width: 494
VWidth: 0
Flags: HMW
LayerCount: 2
Fore
SplineSet
71 575 m 0,0,1
 71 644 71 644 123 692.5 c 128,-1,2
 175 741 175 741 246 741 c 0,3,4
 318 741 318 741 370.5 691.5 c 128,-1,5
 423 642 423 642 423 573 c 0,6,7
 423 499 423 499 370.5 447 c 128,-1,8
 318 395 318 395 246 395 c 128,-1,9
 174 395 174 395 122.5 448 c 128,-1,10
 71 501 71 501 71 575 c 0,0,1
EndSplineSet
Colour: ffffff
EndChar

StartChar: c
Encoding: 99 99 154
Width: 778
VWidth: 0
Flags: HMW
LayerCount: 2
Fore
SplineSet
50 415 m 0,0,1
 50 523 50 523 86 615.5 c 128,-1,2
 122 708 122 708 181.5 769.5 c 128,-1,3
 241 831 241 831 317 865.5 c 128,-1,4
 393 900 393 900 475 900 c 0,5,6
 593 900 593 900 654.5 855.5 c 128,-1,7
 716 811 716 811 716 747 c 0,8,9
 716 702 716 702 683 674 c 128,-1,10
 650 646 650 646 589 642 c 1,11,12
 576 674 576 674 563.5 697 c 128,-1,13
 551 720 551 720 531 748 c 128,-1,14
 511 776 511 776 485 791 c 128,-1,15
 459 806 459 806 428 806 c 0,16,17
 339 806 339 806 285 724.5 c 128,-1,18
 231 643 231 643 231 507 c 0,19,20
 231 441 231 441 249 371 c 128,-1,21
 267 301 267 301 301 236.5 c 128,-1,22
 335 172 335 172 394.5 131 c 128,-1,23
 454 90 454 90 528 90 c 0,24,25
 595 90 595 90 640 106 c 128,-1,26
 685 122 685 122 730 151 c 1,27,-1
 755 93 l 1,28,29
 713 43 713 43 625.5 6.5 c 128,-1,30
 538 -30 538 -30 445 -30 c 0,31,32
 270 -30 270 -30 160 100 c 128,-1,33
 50 230 50 230 50 415 c 0,0,1
EndSplineSet
Colour: ffffff
EndChar

StartChar: cacute
Encoding: 263 263 155
Width: 383
VWidth: 0
Flags: HMW
LayerCount: 2
Fore
SplineSet
73 92 m 0,0,1
 73 140 73 140 108 172.5 c 128,-1,2
 143 205 143 205 191 205 c 0,3,4
 241 205 241 205 277 171.5 c 128,-1,5
 313 138 313 138 313 90 c 0,6,7
 313 40 313 40 277 4.5 c 128,-1,8
 241 -31 241 -31 191 -31 c 0,9,10
 142 -31 142 -31 107.5 5 c 128,-1,11
 73 41 73 41 73 92 c 0,0,1
EndSplineSet
Colour: ffffff
EndChar

StartChar: caron
Encoding: 711 711 156
Width: 383
VWidth: 0
Flags: HMW
LayerCount: 2
Fore
SplineSet
73 92 m 0,0,1
 73 140 73 140 108 172.5 c 128,-1,2
 143 205 143 205 191 205 c 0,3,4
 241 205 241 205 277 171.5 c 128,-1,5
 313 138 313 138 313 90 c 0,6,7
 313 40 313 40 277 4.5 c 128,-1,8
 241 -31 241 -31 191 -31 c 0,9,10
 142 -31 142 -31 107.5 5 c 128,-1,11
 73 41 73 41 73 92 c 0,0,1
EndSplineSet
Colour: ffffff
EndChar

StartChar: ccaron
Encoding: 269 269 157
Width: 383
VWidth: 0
Flags: HMW
LayerCount: 2
Fore
SplineSet
73 92 m 0,0,1
 73 140 73 140 108 172.5 c 128,-1,2
 143 205 143 205 191 205 c 0,3,4
 241 205 241 205 277 171.5 c 128,-1,5
 313 138 313 138 313 90 c 0,6,7
 313 40 313 40 277 4.5 c 128,-1,8
 241 -31 241 -31 191 -31 c 0,9,10
 142 -31 142 -31 107.5 5 c 128,-1,11
 73 41 73 41 73 92 c 0,0,1
EndSplineSet
Colour: ffffff
EndChar

StartChar: ccedilla
Encoding: 231 231 158
Width: 383
VWidth: 0
Flags: HMW
LayerCount: 2
Fore
SplineSet
73 92 m 0,0,1
 73 140 73 140 108 172.5 c 128,-1,2
 143 205 143 205 191 205 c 0,3,4
 241 205 241 205 277 171.5 c 128,-1,5
 313 138 313 138 313 90 c 0,6,7
 313 40 313 40 277 4.5 c 128,-1,8
 241 -31 241 -31 191 -31 c 0,9,10
 142 -31 142 -31 107.5 5 c 128,-1,11
 73 41 73 41 73 92 c 0,0,1
EndSplineSet
Colour: ffffff
EndChar

StartChar: cdotaccent
Encoding: 267 267 159
Width: 383
VWidth: 0
Flags: HMW
LayerCount: 2
Fore
SplineSet
73 92 m 0,0,1
 73 140 73 140 108 172.5 c 128,-1,2
 143 205 143 205 191 205 c 0,3,4
 241 205 241 205 277 171.5 c 128,-1,5
 313 138 313 138 313 90 c 0,6,7
 313 40 313 40 277 4.5 c 128,-1,8
 241 -31 241 -31 191 -31 c 0,9,10
 142 -31 142 -31 107.5 5 c 128,-1,11
 73 41 73 41 73 92 c 0,0,1
EndSplineSet
Colour: ffffff
EndChar

StartChar: cedilla
Encoding: 184 184 160
Width: 383
VWidth: 0
Flags: HMW
LayerCount: 2
Fore
SplineSet
73 92 m 0,0,1
 73 140 73 140 108 172.5 c 128,-1,2
 143 205 143 205 191 205 c 0,3,4
 241 205 241 205 277 171.5 c 128,-1,5
 313 138 313 138 313 90 c 0,6,7
 313 40 313 40 277 4.5 c 128,-1,8
 241 -31 241 -31 191 -31 c 0,9,10
 142 -31 142 -31 107.5 5 c 128,-1,11
 73 41 73 41 73 92 c 0,0,1
EndSplineSet
Colour: ffffff
EndChar

StartChar: cent
Encoding: 162 162 161
Width: 383
VWidth: 0
Flags: HMW
LayerCount: 2
Fore
SplineSet
73 92 m 0,0,1
 73 140 73 140 108 172.5 c 128,-1,2
 143 205 143 205 191 205 c 0,3,4
 241 205 241 205 277 171.5 c 128,-1,5
 313 138 313 138 313 90 c 0,6,7
 313 40 313 40 277 4.5 c 128,-1,8
 241 -31 241 -31 191 -31 c 0,9,10
 142 -31 142 -31 107.5 5 c 128,-1,11
 73 41 73 41 73 92 c 0,0,1
EndSplineSet
Colour: ffffff
EndChar

StartChar: circumflex
Encoding: 710 710 162
Width: 383
VWidth: 0
Flags: HMW
LayerCount: 2
Fore
SplineSet
73 92 m 0,0,1
 73 140 73 140 108 172.5 c 128,-1,2
 143 205 143 205 191 205 c 0,3,4
 241 205 241 205 277 171.5 c 128,-1,5
 313 138 313 138 313 90 c 0,6,7
 313 40 313 40 277 4.5 c 128,-1,8
 241 -31 241 -31 191 -31 c 0,9,10
 142 -31 142 -31 107.5 5 c 128,-1,11
 73 41 73 41 73 92 c 0,0,1
EndSplineSet
Colour: ffffff
EndChar

StartChar: colon
Encoding: 58 58 163
Width: 422
VWidth: 0
Flags: HMW
LayerCount: 2
Back
SplineSet
439 1235 m 21,0,-1
 571 1244 l 1,1,-1
 106 -355 l 1,2,-1
 -23 -363 l 1,3,-1
 439 1235 l 21,0,-1
EndSplineSet
Fore
SplineSet
99 747 m 0,0,1
 99 792 99 792 132.5 822.5 c 128,-1,2
 166 853 166 853 212 853 c 128,-1,3
 258 853 258 853 291.5 821 c 128,-1,4
 325 789 325 789 325 744 c 0,5,6
 325 696 325 696 291.5 662.5 c 128,-1,7
 258 629 258 629 212 629 c 128,-1,8
 166 629 166 629 132.5 664 c 128,-1,9
 99 699 99 699 99 747 c 0,0,1
99 119 m 0,10,11
 99 163 99 163 132.5 193.5 c 128,-1,12
 166 224 166 224 212 224 c 128,-1,13
 258 224 258 224 291.5 192.5 c 128,-1,14
 325 161 325 161 325 117 c 0,15,16
 325 69 325 69 291.5 35 c 128,-1,17
 258 1 258 1 212 1 c 128,-1,18
 166 1 166 1 132.5 36 c 128,-1,19
 99 71 99 71 99 119 c 0,10,11
EndSplineSet
Colour: ffffff
EndChar

StartChar: comma
Encoding: 44 44 164
Width: 434
VWidth: 0
Flags: HMW
LayerCount: 2
Back
SplineSet
-18 -244 m 1,0,1
 78 -219 78 -219 135 -165.5 c 0
 192 -112 192 -112 192 -61 c 0,2,3
 192 -18 192 -18 167 9 c 0
 142 36 142 36 91 36 c 0,4,5
 85 36 85 36 61 30 c 1,6,7
 54 59 54 59 54 84 c 0,8,9
 54 141 54 141 103.5 179.5 c 0
 153 218 153 218 198 218 c 0,10,11
 260 218 260 218 302.5 176.5 c 0
 345 135 345 135 345 31 c 0,12,13
 345 -9 345 -9 327.5 -54.5 c 0
 310 -100 310 -100 272.5 -150.5 c 0
 235 -201 235 -201 162.5 -245.5 c 0
 90 -290 90 -290 -7 -314 c 1,14,-1
 -18 -244 l 1,0,1
EndSplineSet
Fore
SplineSet
54 -244 m 1,0,1
 146 -220 146 -220 191 -171.5 c 128,-1,2
 236 -123 236 -123 236 -70 c 0,3,4
 236 -27 236 -27 203.5 4.5 c 128,-1,5
 171 36 171 36 120 36 c 0,6,7
 110 36 110 36 90 34 c 1,8,9
 76 71 76 71 76 97 c 0,10,11
 76 152 76 152 115.5 185 c 128,-1,12
 155 218 155 218 198 218 c 0,13,14
 226 218 226 218 255 206 c 128,-1,15
 284 194 284 194 311 171 c 128,-1,16
 338 148 338 148 355 106 c 128,-1,17
 372 64 372 64 372 10 c 0,18,19
 372 -234 372 -234 77 -313 c 1,20,-1
 54 -244 l 1,0,1
EndSplineSet
Colour: ffffff
EndChar

StartChar: commaaccent
Encoding: 806 806 165
Width: 383
VWidth: 0
Flags: HMW
LayerCount: 2
Fore
SplineSet
73 92 m 0,0,1
 73 140 73 140 108 172.5 c 128,-1,2
 143 205 143 205 191 205 c 0,3,4
 241 205 241 205 277 171.5 c 128,-1,5
 313 138 313 138 313 90 c 0,6,7
 313 40 313 40 277 4.5 c 128,-1,8
 241 -31 241 -31 191 -31 c 0,9,10
 142 -31 142 -31 107.5 5 c 128,-1,11
 73 41 73 41 73 92 c 0,0,1
EndSplineSet
Colour: ffffff
EndChar

StartChar: copyright
Encoding: 169 169 166
Width: 383
VWidth: 0
Flags: HMW
LayerCount: 2
Back
SplineSet
874 1191 m 0,0,1
 758 1191 758 1191 650 1145 c 0
 542 1099 542 1099 456.5 1015.5 c 0
 371 932 371 932 319.5 800 c 0
 268 668 268 668 268 509 c 0,2,3
 268 417 268 417 292 340 c 0
 316 263 316 263 365.5 200.5 c 0
 415 138 415 138 499 103 c 0
 583 68 583 68 694 68 c 0,4,5
 813 68 813 68 923 113.5 c 0
 1033 159 1033 159 1120 242 c 0
 1207 325 1207 325 1259 455.5 c 0
 1311 586 1311 586 1311 743 c 0,6,7
 1311 813 1311 813 1296 877 c 0
 1281 941 1281 941 1247 999 c 0
 1213 1057 1213 1057 1163 1099 c 0
 1113 1141 1113 1141 1039 1166 c 0
 965 1191 965 1191 874 1191 c 0,0,1
1425 765 m 0,8,9
 1425 614 1425 614 1383.5 484.5 c 0
 1342 355 1342 355 1270 262.5 c 0
 1198 170 1198 170 1102 104 c 0
 1006 38 1006 38 896.5 6 c 0
 787 -26 787 -26 670 -26 c 0,10,11
 538 -26 538 -26 436 17.5 c 0
 334 61 334 61 273.5 135 c 0
 213 209 213 209 182.5 299.5 c 0
 152 390 152 390 152 492 c 0,12,13
 152 633 152 633 192.5 759 c 0
 233 885 233 885 304 979 c 0
 375 1073 375 1073 468 1142 c 0
 561 1211 561 1211 669 1246.5 c 0
 777 1282 777 1282 888 1282 c 0,14,15
 998 1282 998 1282 1088.5 1253 c 0
 1179 1224 1179 1224 1240.5 1174.5 c 0
 1302 1125 1302 1125 1344.5 1058.5 c 0
 1387 992 1387 992 1406 918 c 0
 1425 844 1425 844 1425 765 c 0,8,9
EndSplineSet
Fore
SplineSet
73 92 m 0,0,1
 73 140 73 140 108 172.5 c 128,-1,2
 143 205 143 205 191 205 c 0,3,4
 241 205 241 205 277 171.5 c 128,-1,5
 313 138 313 138 313 90 c 0,6,7
 313 40 313 40 277 4.5 c 128,-1,8
 241 -31 241 -31 191 -31 c 0,9,10
 142 -31 142 -31 107.5 5 c 128,-1,11
 73 41 73 41 73 92 c 0,0,1
EndSplineSet
Colour: ffffff
EndChar

StartChar: currency
Encoding: 164 164 167
Width: 383
VWidth: 0
Flags: HMW
LayerCount: 2
Fore
SplineSet
73 92 m 0,0,1
 73 140 73 140 108 172.5 c 128,-1,2
 143 205 143 205 191 205 c 0,3,4
 241 205 241 205 277 171.5 c 128,-1,5
 313 138 313 138 313 90 c 0,6,7
 313 40 313 40 277 4.5 c 128,-1,8
 241 -31 241 -31 191 -31 c 0,9,10
 142 -31 142 -31 107.5 5 c 128,-1,11
 73 41 73 41 73 92 c 0,0,1
EndSplineSet
Colour: ffffff
EndChar

StartChar: d
Encoding: 100 100 168
Width: 987
VWidth: 0
Flags: HMW
LayerCount: 2
Fore
SplineSet
230 462 m 0,0,1
 230 290 230 290 291.5 197.5 c 128,-1,2
 353 105 353 105 451 105 c 0,3,4
 509 105 509 105 568.5 134 c 128,-1,5
 628 163 628 163 657 197 c 1,6,-1
 657 666 l 1,7,8
 619 728 619 728 557.5 765 c 128,-1,9
 496 802 496 802 443 802 c 0,10,11
 332 802 332 802 281 709.5 c 128,-1,12
 230 617 230 617 230 462 c 0,0,1
54 399 m 0,13,14
 54 504 54 504 93.5 599.5 c 128,-1,15
 133 695 133 695 195.5 759.5 c 128,-1,16
 258 824 258 824 336 862 c 128,-1,17
 414 900 414 900 491 900 c 0,18,19
 540 900 540 900 589 887 c 128,-1,20
 638 874 638 874 663 856 c 1,21,-1
 670 856 l 1,22,-1
 658 984 l 1,23,-1
 658 1111 l 1,24,-1
 506 1166 l 1,25,-1
 520 1241 l 1,26,-1
 798 1265 l 1,27,-1
 819 1241 l 1,28,-1
 819 215 l 2,29,30
 819 178 819 178 824.5 155.5 c 128,-1,31
 830 133 830 133 848.5 119.5 c 128,-1,32
 867 106 867 106 877.5 102 c 128,-1,33
 888 98 888 98 921 91 c 0,34,35
 926 90 926 90 928 89 c 2,36,-1
 973 79 l 1,37,-1
 962 -4 l 1,38,39
 887 -23 887 -23 815 -23 c 128,-1,40
 743 -23 743 -23 704.5 18 c 128,-1,41
 666 59 666 59 666 124 c 2,42,-1
 666 131 l 1,43,-1
 657 131 l 1,44,45
 546 -21 546 -21 380 -21 c 0,46,47
 240 -21 240 -21 147 90 c 128,-1,48
 54 201 54 201 54 399 c 0,13,14
EndSplineSet
Colour: ffffff
EndChar

StartChar: dagger
Encoding: 8224 8224 169
Width: 797
VWidth: 0
Flags: HMW
LayerCount: 2
Fore
SplineSet
37 712 m 1,0,-1
 45 827 l 1,1,-1
 342 819 l 1,2,-1
 334 1255 l 1,3,-1
 467 1244 l 1,4,-1
 458 819 l 1,5,-1
 764 827 l 1,6,-1
 756 705 l 1,7,-1
 458 716 l 1,8,-1
 473 -363 l 1,9,-1
 328 -351 l 1,10,-1
 342 718 l 1,11,-1
 37 712 l 1,0,-1
EndSplineSet
Colour: ffffff
EndChar

StartChar: daggerdbl
Encoding: 8225 8225 170
Width: 829
VWidth: 0
Flags: HMW
LayerCount: 2
Fore
SplineSet
52 712 m 1,0,-1
 59 827 l 1,1,-1
 354 819 l 1,2,-1
 347 1255 l 1,3,-1
 480 1244 l 1,4,-1
 470 819 l 1,5,-1
 774 827 l 1,6,-1
 768 705 l 1,7,-1
 470 716 l 1,8,-1
 461 429 l 1,9,-1
 464 174 l 1,10,-1
 777 181 l 1,11,-1
 771 64 l 1,12,-1
 464 73 l 1,13,-1
 473 -363 l 1,14,-1
 340 -352 l 1,15,-1
 350 73 l 1,16,-1
 62 64 l 1,17,-1
 70 187 l 1,18,-1
 350 175 l 1,19,-1
 357 498 l 1,20,-1
 354 718 l 1,21,-1
 52 712 l 1,0,-1
EndSplineSet
Colour: ffffff
EndChar

StartChar: dcaron
Encoding: 271 271 171
Width: 383
VWidth: 0
Flags: HMW
LayerCount: 2
Fore
SplineSet
73 92 m 0,0,1
 73 140 73 140 108 172.5 c 128,-1,2
 143 205 143 205 191 205 c 0,3,4
 241 205 241 205 277 171.5 c 128,-1,5
 313 138 313 138 313 90 c 0,6,7
 313 40 313 40 277 4.5 c 128,-1,8
 241 -31 241 -31 191 -31 c 0,9,10
 142 -31 142 -31 107.5 5 c 128,-1,11
 73 41 73 41 73 92 c 0,0,1
EndSplineSet
Colour: ffffff
EndChar

StartChar: dcroat
Encoding: 273 273 172
Width: 383
VWidth: 0
Flags: HMW
LayerCount: 2
Fore
SplineSet
73 92 m 0,0,1
 73 140 73 140 108 172.5 c 128,-1,2
 143 205 143 205 191 205 c 0,3,4
 241 205 241 205 277 171.5 c 128,-1,5
 313 138 313 138 313 90 c 0,6,7
 313 40 313 40 277 4.5 c 128,-1,8
 241 -31 241 -31 191 -31 c 0,9,10
 142 -31 142 -31 107.5 5 c 128,-1,11
 73 41 73 41 73 92 c 0,0,1
EndSplineSet
Colour: ffffff
EndChar

StartChar: degree
Encoding: 176 176 173
Width: 383
VWidth: 0
Flags: HMW
LayerCount: 2
Fore
SplineSet
73 92 m 0,0,1
 73 140 73 140 108 172.5 c 128,-1,2
 143 205 143 205 191 205 c 0,3,4
 241 205 241 205 277 171.5 c 128,-1,5
 313 138 313 138 313 90 c 0,6,7
 313 40 313 40 277 4.5 c 128,-1,8
 241 -31 241 -31 191 -31 c 0,9,10
 142 -31 142 -31 107.5 5 c 128,-1,11
 73 41 73 41 73 92 c 0,0,1
EndSplineSet
Colour: ffffff
EndChar

StartChar: dieresis
Encoding: 168 168 174
Width: 383
VWidth: 0
Flags: HMW
LayerCount: 2
Back
SplineSet
720 1542 m 0,0,1
 755 1542 755 1542 777 1520.5 c 0
 799 1499 799 1499 794 1465 c 0,2,3
 788 1429 788 1429 759 1406.5 c 0
 730 1384 730 1384 695 1384 c 0,4,5
 661 1384 661 1384 639 1406.5 c 0
 617 1429 617 1429 623 1465 c 0,6,7
 629 1499 629 1499 658 1520.5 c 0
 687 1542 687 1542 720 1542 c 0,0,1
453 1542 m 0,8,9
 488 1542 488 1542 509 1520.5 c 0
 530 1499 530 1499 525 1465 c 0,10,11
 519 1429 519 1429 491 1406.5 c 0
 463 1384 463 1384 428 1384 c 0,12,13
 394 1384 394 1384 371.5 1406.5 c 0
 349 1429 349 1429 355 1465 c 0,14,15
 361 1499 361 1499 390.5 1520.5 c 0
 420 1542 420 1542 453 1542 c 0,8,9
540 1255 m 0
EndSplineSet
Fore
SplineSet
73 92 m 0,0,1
 73 140 73 140 108 172.5 c 128,-1,2
 143 205 143 205 191 205 c 0,3,4
 241 205 241 205 277 171.5 c 128,-1,5
 313 138 313 138 313 90 c 0,6,7
 313 40 313 40 277 4.5 c 128,-1,8
 241 -31 241 -31 191 -31 c 0,9,10
 142 -31 142 -31 107.5 5 c 128,-1,11
 73 41 73 41 73 92 c 0,0,1
EndSplineSet
Colour: ffffff
EndChar

StartChar: dieresiscomb
Encoding: 776 776 175
Width: 383
VWidth: 0
Flags: HMW
LayerCount: 2
Fore
SplineSet
73 92 m 0,0,1
 73 140 73 140 108 172.5 c 128,-1,2
 143 205 143 205 191 205 c 0,3,4
 241 205 241 205 277 171.5 c 128,-1,5
 313 138 313 138 313 90 c 0,6,7
 313 40 313 40 277 4.5 c 128,-1,8
 241 -31 241 -31 191 -31 c 0,9,10
 142 -31 142 -31 107.5 5 c 128,-1,11
 73 41 73 41 73 92 c 0,0,1
EndSplineSet
Colour: ffffff
EndChar

StartChar: divide
Encoding: 247 247 176
Width: 383
VWidth: 0
Flags: HMW
LayerCount: 2
Fore
SplineSet
73 92 m 0,0,1
 73 140 73 140 108 172.5 c 128,-1,2
 143 205 143 205 191 205 c 0,3,4
 241 205 241 205 277 171.5 c 128,-1,5
 313 138 313 138 313 90 c 0,6,7
 313 40 313 40 277 4.5 c 128,-1,8
 241 -31 241 -31 191 -31 c 0,9,10
 142 -31 142 -31 107.5 5 c 128,-1,11
 73 41 73 41 73 92 c 0,0,1
EndSplineSet
Colour: ffffff
EndChar

StartChar: dollar
Encoding: 36 36 177
Width: 859
VWidth: 0
Flags: HMW
LayerCount: 2
Back
SplineSet
888 885 m 1,0,-1
 814 902 l 1,1,-1
 796 1093 l 2,2,3
 794 1107 794 1107 765 1132 c 0
 736 1157 736 1157 697 1171 c 1,4,-1
 628 730 l 1,5,6
 752.391 648.8 752.391 648.8 792.202 614.997 c 0
 918.16 508.049 918.16 508.049 910.035 380.038 c 0
 909.189 366.72 909.189 366.72 907 353 c 0,7,8
 885 209 885 209 768 111 c 0
 651 13 651 13 495 -15 c 1,9,-1
 479 -111 l 1,10,-1
 380 -111 l 1,11,-1
 395 -25 l 1,12,-1
 390 -25 l 2,13,14
 283 -25 283 -25 201.5 13.5 c 0
 120 52 120 52 71 122 c 1,15,-1
 126 390 l 1,16,-1
 206 377 l 1,17,-1
 228 187 l 1,18,19
 255 138 255 138 304 107 c 0
 353 76 353 76 411 74 c 1,20,-1
 484 527 l 1,21,22
 423 565 423 565 380.5 600 c 0
 338 635 338 635 297 685 c 0
 256 735 256 735 240 796.5 c 0
 224 858 224 858 235 930 c 0,23,24
 251 1031 251 1031 308 1105.5 c 0
 365 1180 365 1180 442 1218.5 c 0
 519 1257 519 1257 611 1267 c 1,25,-1
 624 1343 l 1,26,-1
 723 1343 l 1,27,-1
 712 1268 l 1,28,29
 867 1254 867 1254 951 1166 c 1,30,31
 888 885 l 1,0,-1
537 781 m 1,32,-1
 599 1182 l 1,33,34
 456 1165 456 1165 431 1002 c 0,35,36
 420 932 420 932 447.5 873.5 c 0
 475 815 475 815 537 781 c 1,32,-1
576 494 m 1,37,-1
 512 86 l 1,38,39
 586 104 586 104 640 154.5 c 0
 694 205 694 205 708 291 c 0,40,41
 724 395 724 395 576 494 c 1,37,-1
EndSplineSet
Fore
SplineSet
66 122 m 1,0,-1
 79 389 l 1,1,-1
 181 375 l 1,2,-1
 220 187 l 1,3,4
 248 143 248 143 300.5 111.5 c 128,-1,5
 353 80 353 80 416 77 c 1,6,-1
 416 538 l 1,7,8
 381 557 381 557 363.5 566.5 c 128,-1,9
 346 576 346 576 313 595.5 c 128,-1,10
 280 615 280 615 262 628 c 128,-1,11
 244 641 244 641 216.5 662.5 c 128,-1,12
 189 684 189 684 174 702.5 c 128,-1,13
 159 721 159 721 140.5 746 c 128,-1,14
 122 771 122 771 112.5 796 c 128,-1,15
 103 821 103 821 96.5 852 c 128,-1,16
 90 883 90 883 90 916 c 0,17,18
 90 985 90 985 113.5 1044.5 c 128,-1,19
 137 1104 137 1104 177.5 1146.5 c 128,-1,20
 218 1189 218 1189 270.5 1217.5 c 128,-1,21
 323 1246 323 1246 383 1259 c 1,22,-1
 370 1394 l 1,23,-1
 535 1409 l 1,24,-1
 521 1267 l 1,25,26
 658 1255 658 1255 761 1169 c 1,27,-1
 739 887 l 1,28,-1
 640 899 l 1,29,-1
 615 1090 l 1,30,31
 602 1115 602 1115 565 1143 c 128,-1,32
 528 1171 528 1171 483 1181 c 1,33,-1
 483 746 l 1,34,35
 497 739 497 739 526 723 c 0,36,37
 561 705 561 705 578.5 695.5 c 128,-1,38
 596 686 596 686 628 667.5 c 128,-1,39
 660 649 660 649 678 636 c 128,-1,40
 696 623 696 623 723 602 c 128,-1,41
 750 581 750 581 765 563.5 c 128,-1,42
 780 546 780 546 798 521 c 128,-1,43
 816 496 816 496 825 471.5 c 128,-1,44
 834 447 834 447 840.5 417 c 128,-1,45
 847 387 847 387 847 354 c 0,46,47
 847 219 847 219 757 122.5 c 128,-1,48
 667 26 667 26 529 -9 c 1,49,-1
 540 -164 l 1,50,-1
 367 -179 l 1,51,-1
 377 -23 l 1,52,53
 281 -18 281 -18 197 22.5 c 128,-1,54
 113 63 113 63 66 122 c 1,0,-1
421 781 m 1,55,-1
 421 1184 l 1,56,57
 350 1177 350 1177 306.5 1129 c 128,-1,58
 263 1081 263 1081 263 995 c 0,59,60
 263 927 263 927 304 877 c 128,-1,61
 345 827 345 827 421 781 c 1,55,-1
486 500 m 1,62,-1
 486 84 l 1,63,64
 561 100 561 100 612 151.5 c 128,-1,65
 663 203 663 203 663 287 c 0,66,67
 663 353 663 353 617.5 402 c 128,-1,68
 572 451 572 451 486 500 c 1,62,-1
EndSplineSet
Colour: ffffff
EndChar

StartChar: dotaccent
Encoding: 729 729 178
Width: 383
VWidth: 0
Flags: HMW
LayerCount: 2
Fore
SplineSet
73 92 m 0,0,1
 73 140 73 140 108 172.5 c 128,-1,2
 143 205 143 205 191 205 c 0,3,4
 241 205 241 205 277 171.5 c 128,-1,5
 313 138 313 138 313 90 c 0,6,7
 313 40 313 40 277 4.5 c 128,-1,8
 241 -31 241 -31 191 -31 c 0,9,10
 142 -31 142 -31 107.5 5 c 128,-1,11
 73 41 73 41 73 92 c 0,0,1
EndSplineSet
Colour: ffffff
EndChar

StartChar: dotaccentcomb
Encoding: 775 775 179
Width: 383
VWidth: 0
Flags: HMW
LayerCount: 2
Fore
SplineSet
73 92 m 0,0,1
 73 140 73 140 108 172.5 c 128,-1,2
 143 205 143 205 191 205 c 0,3,4
 241 205 241 205 277 171.5 c 128,-1,5
 313 138 313 138 313 90 c 0,6,7
 313 40 313 40 277 4.5 c 128,-1,8
 241 -31 241 -31 191 -31 c 0,9,10
 142 -31 142 -31 107.5 5 c 128,-1,11
 73 41 73 41 73 92 c 0,0,1
EndSplineSet
Colour: ffffff
EndChar

StartChar: dotbelowcomb
Encoding: 803 803 180
Width: 383
VWidth: 0
Flags: HMW
LayerCount: 2
Fore
SplineSet
73 92 m 0,0,1
 73 140 73 140 108 172.5 c 128,-1,2
 143 205 143 205 191 205 c 0,3,4
 241 205 241 205 277 171.5 c 128,-1,5
 313 138 313 138 313 90 c 0,6,7
 313 40 313 40 277 4.5 c 128,-1,8
 241 -31 241 -31 191 -31 c 0,9,10
 142 -31 142 -31 107.5 5 c 128,-1,11
 73 41 73 41 73 92 c 0,0,1
EndSplineSet
Colour: ffffff
EndChar

StartChar: dotlessi
Encoding: 305 305 181
Width: 383
VWidth: 0
Flags: HMW
LayerCount: 2
Fore
SplineSet
73 92 m 0,0,1
 73 140 73 140 108 172.5 c 128,-1,2
 143 205 143 205 191 205 c 0,3,4
 241 205 241 205 277 171.5 c 128,-1,5
 313 138 313 138 313 90 c 0,6,7
 313 40 313 40 277 4.5 c 128,-1,8
 241 -31 241 -31 191 -31 c 0,9,10
 142 -31 142 -31 107.5 5 c 128,-1,11
 73 41 73 41 73 92 c 0,0,1
EndSplineSet
Colour: ffffff
EndChar

StartChar: e
Encoding: 101 101 182
Width: 802
VWidth: 0
Flags: HMW
LayerCount: 2
Fore
SplineSet
233 523 m 1,0,-1
 547 546 l 1,1,2
 553 570 553 570 553 615 c 0,3,4
 553 801 553 801 415 801 c 0,5,6
 348 801 348 801 294 729.5 c 128,-1,7
 240 658 240 658 233 523 c 1,0,-1
53 428 m 0,8,9
 53 536 53 536 90 627.5 c 128,-1,10
 127 719 127 719 186 777 c 128,-1,11
 245 835 245 835 317.5 867 c 128,-1,12
 390 899 390 899 464 899 c 0,13,14
 579 899 579 899 655 816 c 128,-1,15
 731 733 731 733 731 581 c 0,16,17
 731 519 731 519 715 451 c 1,18,-1
 231 445 l 1,19,20
 233 396 233 396 244.5 349 c 128,-1,21
 256 302 256 302 279 256.5 c 128,-1,22
 302 211 302 211 333 177 c 128,-1,23
 364 143 364 143 410 122.5 c 128,-1,24
 456 102 456 102 510 102 c 0,25,26
 557 102 557 102 580.5 104 c 128,-1,27
 604 106 604 106 646 118.5 c 128,-1,28
 688 131 688 131 737 157 c 1,29,-1
 758 104 l 1,30,31
 698 41 698 41 612.5 5.5 c 128,-1,32
 527 -30 527 -30 429 -30 c 0,33,34
 357 -30 357 -30 290.5 -0.5 c 128,-1,35
 224 29 224 29 170.5 84.5 c 128,-1,36
 117 140 117 140 85 229 c 128,-1,37
 53 318 53 318 53 428 c 0,8,9
EndSplineSet
Colour: ffffff
EndChar

StartChar: eacute
Encoding: 233 233 183
Width: 383
VWidth: 0
Flags: HMW
LayerCount: 2
Fore
SplineSet
73 92 m 0,0,1
 73 140 73 140 108 172.5 c 128,-1,2
 143 205 143 205 191 205 c 0,3,4
 241 205 241 205 277 171.5 c 128,-1,5
 313 138 313 138 313 90 c 0,6,7
 313 40 313 40 277 4.5 c 128,-1,8
 241 -31 241 -31 191 -31 c 0,9,10
 142 -31 142 -31 107.5 5 c 128,-1,11
 73 41 73 41 73 92 c 0,0,1
EndSplineSet
Colour: ffffff
EndChar

StartChar: ecaron
Encoding: 283 283 184
Width: 383
VWidth: 0
Flags: HMW
LayerCount: 2
Fore
SplineSet
73 92 m 0,0,1
 73 140 73 140 108 172.5 c 128,-1,2
 143 205 143 205 191 205 c 0,3,4
 241 205 241 205 277 171.5 c 128,-1,5
 313 138 313 138 313 90 c 0,6,7
 313 40 313 40 277 4.5 c 128,-1,8
 241 -31 241 -31 191 -31 c 0,9,10
 142 -31 142 -31 107.5 5 c 128,-1,11
 73 41 73 41 73 92 c 0,0,1
EndSplineSet
Colour: ffffff
EndChar

StartChar: ecircumflex
Encoding: 234 234 185
Width: 383
VWidth: 0
Flags: HMW
LayerCount: 2
Fore
SplineSet
73 92 m 0,0,1
 73 140 73 140 108 172.5 c 128,-1,2
 143 205 143 205 191 205 c 0,3,4
 241 205 241 205 277 171.5 c 128,-1,5
 313 138 313 138 313 90 c 0,6,7
 313 40 313 40 277 4.5 c 128,-1,8
 241 -31 241 -31 191 -31 c 0,9,10
 142 -31 142 -31 107.5 5 c 128,-1,11
 73 41 73 41 73 92 c 0,0,1
EndSplineSet
Colour: ffffff
EndChar

StartChar: edieresis
Encoding: 235 235 186
Width: 383
VWidth: 0
Flags: HMW
LayerCount: 2
Fore
SplineSet
73 92 m 0,0,1
 73 140 73 140 108 172.5 c 128,-1,2
 143 205 143 205 191 205 c 0,3,4
 241 205 241 205 277 171.5 c 128,-1,5
 313 138 313 138 313 90 c 0,6,7
 313 40 313 40 277 4.5 c 128,-1,8
 241 -31 241 -31 191 -31 c 0,9,10
 142 -31 142 -31 107.5 5 c 128,-1,11
 73 41 73 41 73 92 c 0,0,1
EndSplineSet
Colour: ffffff
EndChar

StartChar: edotaccent
Encoding: 279 279 187
Width: 383
VWidth: 0
Flags: HMW
LayerCount: 2
Fore
SplineSet
73 92 m 0,0,1
 73 140 73 140 108 172.5 c 128,-1,2
 143 205 143 205 191 205 c 0,3,4
 241 205 241 205 277 171.5 c 128,-1,5
 313 138 313 138 313 90 c 0,6,7
 313 40 313 40 277 4.5 c 128,-1,8
 241 -31 241 -31 191 -31 c 0,9,10
 142 -31 142 -31 107.5 5 c 128,-1,11
 73 41 73 41 73 92 c 0,0,1
EndSplineSet
Colour: ffffff
EndChar

StartChar: egrave
Encoding: 232 232 188
Width: 383
VWidth: 0
Flags: HMW
LayerCount: 2
Fore
SplineSet
73 92 m 0,0,1
 73 140 73 140 108 172.5 c 128,-1,2
 143 205 143 205 191 205 c 0,3,4
 241 205 241 205 277 171.5 c 128,-1,5
 313 138 313 138 313 90 c 0,6,7
 313 40 313 40 277 4.5 c 128,-1,8
 241 -31 241 -31 191 -31 c 0,9,10
 142 -31 142 -31 107.5 5 c 128,-1,11
 73 41 73 41 73 92 c 0,0,1
EndSplineSet
Colour: ffffff
EndChar

StartChar: eight
Encoding: 56 56 189
Width: 982
VWidth: 1651
Flags: HMW
LayerCount: 2
Back
SplineSet
494 542 m 1,0,1
 463 517 463 517 433 492 c 0,2,3
 397 461 397 461 377 438 c 0,4,5
 357 414 357 414 339 368 c 0,6,7
 324 329 324 329 324 274 c 0,8,9
 324 230 324 230 337 197 c 0,10,11
 353 157 353 157 377 129 c 0,12,13
 400 102 400 102 433 83 c 0,14,15
 466 64 466 64 502 64 c 0,16,17
 626 64 626 64 684 122 c 0,18,19
 740 178 740 178 740 272 c 0,20,21
 740 310 740 310 718 344 c 0,22,23
 689 388 689 388 662 413 c 0,24,25
 605 465 605 465 585 479 c 1,26,27
 567 493 567 493 494 542 c 1,0,1
159 236 m 0,28,29
 159 338 159 338 231 419 c 0,30,31
 303 500 303 500 443 576 c 1,32,-1
 444 585 l 1,33,34
 411 607 411 607 393 624 c 0,35,36
 360 655 360 655 340 680 c 0,37,38
 319 706 319 706 301 753 c 0,39,40
 286 792 286 792 286 836 c 0,41,42
 286 902 286 902 317 961 c 0,43,44
 349 1022 349 1022 400 1067 c 0,45,46
 451 1112 451 1112 522 1143 c 0,47,48
 591 1173 591 1173 667 1173 c 0,49,50
 730 1173 730 1173 781 1153 c 0,51,52
 832 1133 832 1133 865 1103 c 0,53,54
 897 1074 897 1074 917 1027 c 0,55,56
 935 985 935 985 935 935 c 0,57,58
 935 885 935 885 917 839 c 0,59,60
 899 794 899 794 869 751 c 0,61,62
 842 714 842 714 796 679 c 0,63,64
 759 651 759 651 707 631 c 1,65,-1
 704 621 l 1,66,67
 797 557 797 557 849 484 c 0,68,69
 903 409 903 409 903 327 c 0,70,71
 903 258 903 258 872 195 c 0,72,73
 842 133 842 133 779 81 c 0,74,75
 721 34 721 34 636 3 c 0,76,77
 555 -26 555 -26 446 -26 c 0,78,79
 384.5 -26 384.5 -26 332 -8 c 0,80,81
 275 11 275 11 241 43 c 0,82,83
 204 77 204 77 182 126 c 0,84,85
 159 177 159 177 159 236 c 0,28,29
646 661 m 1,86,87
 679 678 679 678 710 704 c 0,88,89
 738 727 738 727 755 756 c 0,90,91
 774 788 774 788 781 822 c 0,92,93
 789 862 789 862 789 907 c 0,94,95
 789 994 789 994 745 1045 c 0,96,97
 700 1098 700 1098 633 1098 c 0,98,99
 586.5 1098 586.5 1098 552 1080 c 0,100,101
 514 1060 514 1060 492 1037 c 0,102,103
 469 1013 469 1013 456 978 c 0,104,105
 443 944 443 944 443 913 c 0,106,107
 443 836 443 836 499 776 c 0,108,109
 553 718 553 718 646 661 c 1,86,87
EndSplineSet
Fore
SplineSet
266 955 m 0,0,1
 266 886 266 886 327 813.5 c 128,-1,2
 388 741 388 741 497 678 c 1,3,4
 554 711 554 711 577.5 757 c 128,-1,5
 601 803 601 803 601 890 c 0,6,7
 601 996 601 996 553 1060 c 128,-1,8
 505 1124 505 1124 426 1124 c 128,-1,9
 347 1124 347 1124 306.5 1073.5 c 128,-1,10
 266 1023 266 1023 266 955 c 0,0,1
243 304 m 0,11,12
 243 189 243 189 307.5 125 c 128,-1,13
 372 61 372 61 461 61 c 0,14,15
 536 61 536 61 582 105 c 128,-1,16
 628 149 628 149 628 236 c 0,17,18
 628 363 628 363 354 533 c 1,19,20
 298 483 298 483 283 462 c 0,21,22
 243 407 243 407 243 304 c 0,11,12
54 280 m 0,23,24
 54 364 54 364 110 434.5 c 128,-1,25
 166 505 166 505 287 575 c 1,26,-1
 287 584 l 1,27,28
 232 621 232 621 194.5 656.5 c 128,-1,29
 157 692 157 692 128.5 751 c 128,-1,30
 100 810 100 810 100 879 c 0,31,32
 100 1007 100 1007 203.5 1104 c 128,-1,33
 307 1201 307 1201 451 1201 c 0,34,35
 591 1201 591 1201 680.5 1121.5 c 128,-1,36
 770 1042 770 1042 770 926 c 0,37,38
 770 838 770 838 710.5 753.5 c 128,-1,39
 651 669 651 669 567 639 c 1,40,-1
 564 629 l 1,41,42
 629 582 629 582 664.5 552 c 128,-1,43
 700 522 700 522 735 481.5 c 128,-1,44
 770 441 770 441 784 397.5 c 128,-1,45
 798 354 798 354 798 300 c 0,46,47
 798 156 798 156 693.5 64.5 c 128,-1,48
 589 -27 589 -27 396 -27 c 0,49,50
 253 -27 253 -27 153.5 57 c 128,-1,51
 54 141 54 141 54 280 c 0,23,24
EndSplineSet
Substitution2: "'sups' Superscript lookup 0 subtable" eight.superior
Colour: ffffff
EndChar

StartChar: eight.osf
Encoding: 65539 -1 190
Width: 804
VWidth: 0
Flags: HMW
LayerCount: 2
Fore
SplineSet
249 977 m 0,0,1
 249 894 249 894 305.5 814.5 c 128,-1,2
 362 735 362 735 466 676 c 1,3,4
 492 704 492 704 507.5 727.5 c 128,-1,5
 523 751 523 751 537.5 798.5 c 128,-1,6
 552 846 552 846 552 906 c 0,7,8
 552 993 552 993 508.5 1058.5 c 128,-1,9
 465 1124 465 1124 390 1124 c 0,10,11
 331 1124 331 1124 290 1080.5 c 128,-1,12
 249 1037 249 1037 249 977 c 0,0,1
220 304 m 0,13,14
 220 212 220 212 274.5 139 c 128,-1,15
 329 66 329 66 406 66 c 0,16,17
 493 66 493 66 543.5 117 c 128,-1,18
 594 168 594 168 594 266 c 0,19,20
 594 340 594 340 525.5 408 c 128,-1,21
 457 476 457 476 330 555 c 1,22,23
 287 523 287 523 253.5 451 c 128,-1,24
 220 379 220 379 220 304 c 0,13,14
55 280 m 0,25,26
 55 454 55 454 271 589 c 1,27,-1
 271 598 l 1,28,29
 206 637 206 637 153 716 c 128,-1,30
 100 795 100 795 100 887 c 0,31,32
 100 1014 100 1014 193.5 1107.5 c 128,-1,33
 287 1201 287 1201 417 1201 c 0,34,35
 545 1201 545 1201 622.5 1129 c 128,-1,36
 700 1057 700 1057 700 943 c 0,37,38
 700 768 700 768 534 645 c 1,39,-1
 534 636 l 1,40,41
 752 500 752 500 752 308 c 0,42,43
 752 168 752 168 641 70.5 c 128,-1,44
 530 -27 530 -27 360 -27 c 0,45,46
 221 -27 221 -27 138 55.5 c 128,-1,47
 55 138 55 138 55 280 c 0,25,26
EndSplineSet
Colour: ffffff
EndChar

StartChar: ellipsis
Encoding: 8230 8230 191
Width: 1301
VWidth: 0
Flags: HMW
LayerCount: 2
Fore
SplineSet
991 92 m 0,0,1
 991 140 991 140 1026 172.5 c 128,-1,2
 1061 205 1061 205 1109 205 c 0,3,4
 1159 205 1159 205 1195 171.5 c 128,-1,5
 1231 138 1231 138 1231 90 c 0,6,7
 1231 40 1231 40 1195 4.5 c 128,-1,8
 1159 -31 1159 -31 1109 -31 c 0,9,10
 1060 -31 1060 -31 1025.5 5 c 128,-1,11
 991 41 991 41 991 92 c 0,0,1
519 92 m 0,12,13
 519 139 519 139 554 172 c 128,-1,14
 589 205 589 205 638 205 c 0,15,16
 688 205 688 205 723.5 171.5 c 128,-1,17
 759 138 759 138 759 90 c 0,18,19
 759 40 759 40 723.5 4.5 c 128,-1,20
 688 -31 688 -31 638 -31 c 0,21,22
 589 -31 589 -31 554 5.5 c 128,-1,23
 519 42 519 42 519 92 c 0,12,13
74 92 m 0,24,25
 74 139 74 139 109 172 c 128,-1,26
 144 205 144 205 193 205 c 0,27,28
 243 205 243 205 278 171.5 c 128,-1,29
 313 138 313 138 313 90 c 0,30,31
 313 40 313 40 278 4.5 c 128,-1,32
 243 -31 243 -31 193 -31 c 0,33,34
 144 -31 144 -31 109 5.5 c 128,-1,35
 74 42 74 42 74 92 c 0,24,25
EndSplineSet
Colour: ffffff
EndChar

StartChar: emacron
Encoding: 275 275 192
Width: 383
VWidth: 0
Flags: HMW
LayerCount: 2
Fore
SplineSet
73 92 m 0,0,1
 73 140 73 140 108 172.5 c 128,-1,2
 143 205 143 205 191 205 c 0,3,4
 241 205 241 205 277 171.5 c 128,-1,5
 313 138 313 138 313 90 c 0,6,7
 313 40 313 40 277 4.5 c 128,-1,8
 241 -31 241 -31 191 -31 c 0,9,10
 142 -31 142 -31 107.5 5 c 128,-1,11
 73 41 73 41 73 92 c 0,0,1
EndSplineSet
Colour: ffffff
EndChar

StartChar: emdash
Encoding: 8212 8212 193
Width: 1306
VWidth: 0
Flags: HMW
LayerCount: 2
Fore
SplineSet
87 409 m 1,0,-1
 102 513 l 1,1,-1
 1223 520 l 1,2,-1
 1207 415 l 1,3,-1
 87 409 l 1,0,-1
EndSplineSet
Colour: ffffff
EndChar

StartChar: emptyset
Encoding: 8709 8709 194
Width: 1038
VWidth: 0
Flags: HMW
LayerCount: 2
Back
SplineSet
65.1133 108.86 m 5,0,-1
 222.808 229.93 l 1,1,-1
 247.225 243.156 l 1,2,-1
 1035.7 950.239 l 1,3,-1
 1056.05 977.709 l 1,4,-1
 1183.22 1115.06 l 1,5,-1
 1246.3 1019.42 l 1,6,-1
 1101.83 906.492 l 1,7,-1
 1083.52 901.405 l 1,8,-1
 285.886 186.182 l 1,9,-1
 268.59 159.73 l 1,10,-1
 128.19 12.209 l 1,11,-1
 65.1133 108.86 l 5,0,-1
90.5469 557.527 m 4,12,13
 90.5469 674.065 90.5469 674.065 139.683 786.612 c 0
 188.82 899.158 188.82 899.158 268.225 982.13 c 0
 347.63 1065.1 347.63 1065.1 453.167 1116.02 c 0
 558.703 1166.94 558.703 1166.94 666.389 1166.94 c 0,14,15
 795.106 1166.94 795.106 1166.94 903.003 1119.29 c 0
 1010.9 1071.64 1010.9 1071.64 1083.36 989.207 c 0
 1155.83 906.772 1155.83 906.772 1195.97 795.192 c 0
 1236.12 683.611 1236.12 683.611 1236.12 556.511 c 0,16,17
 1236.12 435.707 1236.12 435.707 1195.62 326.207 c 0
 1155.12 216.707 1155.12 216.707 1082.81 133.891 c 0
 1010.5 51.0742 1010.5 51.0742 902.487 2.13718 c 0
 794.47 -46.7998 794.47 -46.7998 667.406 -46.7998 c 0,18,19
 548.196 -46.7998 548.196 -46.7998 442.598 -3.37709 c 0
 336.999 40.0456 336.999 40.0456 259.081 117.515 c 0
 181.163 194.985 181.163 194.985 135.855 309.088 c 0
 90.5469 423.19 90.5469 423.19 90.5469 557.527 c 4,12,13
200.426 556.511 m 4,20,21
 200.426 457.334 200.426 457.334 226.894 371.749 c 0
 253.361 286.164 253.361 286.164 298.682 225.165 c 0
 344.003 164.165 344.003 164.165 403.886 120.544 c 0
 463.77 76.9237 463.77 76.9237 531.102 55.7577 c 0
 598.434 34.5918 598.434 34.5918 668.424 34.5918 c 0,22,23
 768.577 34.5918 768.577 34.5918 851.554 67.6901 c 0
 934.53 100.788 934.53 100.788 995.862 164.736 c 0
 1057.19 228.683 1057.19 228.683 1091.21 329.062 c 0
 1125.23 429.441 1125.23 429.441 1125.23 557.527 c 0,24,25
 1125.23 681.083 1125.23 681.083 1087.61 781.947 c 0
 1050 882.81 1050 882.81 986.06 947.067 c 0
 922.122 1011.32 922.122 1011.32 839.975 1045.89 c 0
 757.828 1080.46 757.828 1080.46 666.389 1080.46 c 0,26,27
 567.785 1080.46 567.785 1080.46 482.086 1042.99 c 0
 396.386 1005.53 396.386 1005.53 334.113 938.282 c 0
 271.84 871.038 271.84 871.038 236.133 772.34 c 0
 200.426 673.642 200.426 673.642 200.426 556.511 c 4,20,21
EndSplineSet
Fore
SplineSet
72 444 m 0,0,1
 72 568 72 568 137.5 680.5 c 128,-1,2
 203 793 203 793 309.5 861 c 128,-1,3
 416 929 416 929 530 929 c 0,4,5
 717 929 717 929 841 809 c 1,6,-1
 928 906 l 1,7,-1
 1013 785 l 1,8,-1
 916 712 l 1,9,10
 984 594 984 594 984 443 c 0,11,12
 984 314 984 314 929.5 205 c 128,-1,13
 875 96 875 96 770 29.5 c 128,-1,14
 665 -37 665 -37 531 -37 c 0,15,16
 440 -37 440 -37 359 -5.5 c 128,-1,17
 278 26 278 26 216 85 c 1,18,-1
 123 -17 l 1,19,-1
 38 105 l 1,20,-1
 141 179 l 1,21,22
 72 295 72 295 72 444 c 0,0,1
296 188 m 1,23,24
 341 134 341 134 402.5 105.5 c 128,-1,25
 464 77 464 77 531 77 c 0,26,27
 672 77 672 77 756.5 168.5 c 128,-1,28
 841 260 841 260 841 444 c 0,29,30
 841 557 841 557 801 641 c 1,31,-1
 296 188 l 1,23,24
257 248 m 1,32,-1
 763 702 l 1,33,34
 720 756 720 756 659.5 783.5 c 128,-1,35
 599 811 599 811 530 811 c 0,36,37
 392 811 392 811 303.5 712.5 c 128,-1,38
 215 614 215 614 215 443 c 0,39,40
 215 332 215 332 257 248 c 1,32,-1
EndSplineSet
Colour: ffffff
EndChar

StartChar: endash
Encoding: 8211 8211 195
Width: 795
VWidth: 0
Flags: HMW
LayerCount: 2
Fore
SplineSet
87 409 m 1,0,-1
 102 513 l 1,1,-1
 713 520 l 1,2,-1
 697 415 l 1,3,-1
 87 409 l 1,0,-1
EndSplineSet
Colour: ffffff
EndChar

StartChar: eng
Encoding: 331 331 196
Width: 383
VWidth: 0
Flags: HMW
LayerCount: 2
Fore
SplineSet
73 92 m 0,0,1
 73 140 73 140 108 172.5 c 128,-1,2
 143 205 143 205 191 205 c 0,3,4
 241 205 241 205 277 171.5 c 128,-1,5
 313 138 313 138 313 90 c 0,6,7
 313 40 313 40 277 4.5 c 128,-1,8
 241 -31 241 -31 191 -31 c 0,9,10
 142 -31 142 -31 107.5 5 c 128,-1,11
 73 41 73 41 73 92 c 0,0,1
EndSplineSet
Colour: ffffff
EndChar

StartChar: eogonek
Encoding: 281 281 197
Width: 383
VWidth: 0
Flags: HMW
LayerCount: 2
Fore
SplineSet
73 92 m 0,0,1
 73 140 73 140 108 172.5 c 128,-1,2
 143 205 143 205 191 205 c 0,3,4
 241 205 241 205 277 171.5 c 128,-1,5
 313 138 313 138 313 90 c 0,6,7
 313 40 313 40 277 4.5 c 128,-1,8
 241 -31 241 -31 191 -31 c 0,9,10
 142 -31 142 -31 107.5 5 c 128,-1,11
 73 41 73 41 73 92 c 0,0,1
EndSplineSet
Colour: ffffff
EndChar

StartChar: equal
Encoding: 61 61 198
Width: 809
VWidth: 0
Flags: HMW
LayerCount: 2
Back
SplineSet
162 424 m 1,0,-1
 776 424 l 1,1,-1
 748 319 l 1,2,-1
 134 319 l 1,3,-1
 162 424 l 1,0,-1
203 664 m 1,4,-1
 817 664 l 1,5,-1
 789 558 l 1,6,-1
 175 558 l 1,7,-1
 203 664 l 1,4,-1
EndSplineSet
Fore
SplineSet
95 559 m 1,0,-1
 105 663 l 1,1,-1
 721 663 l 1,2,-1
 709 559 l 1,3,-1
 95 559 l 1,0,-1
92 319 m 1,4,-1
 102 424 l 1,5,-1
 717 424 l 1,6,-1
 706 319 l 1,7,-1
 92 319 l 1,4,-1
EndSplineSet
Colour: ffffff
EndChar

StartChar: eth
Encoding: 240 240 199
Width: 383
VWidth: 0
Flags: HMW
LayerCount: 2
Fore
SplineSet
73 92 m 0,0,1
 73 140 73 140 108 172.5 c 128,-1,2
 143 205 143 205 191 205 c 0,3,4
 241 205 241 205 277 171.5 c 128,-1,5
 313 138 313 138 313 90 c 0,6,7
 313 40 313 40 277 4.5 c 128,-1,8
 241 -31 241 -31 191 -31 c 0,9,10
 142 -31 142 -31 107.5 5 c 128,-1,11
 73 41 73 41 73 92 c 0,0,1
EndSplineSet
Colour: ffffff
EndChar

StartChar: exclam
Encoding: 33 33 200
Width: 412
VWidth: 0
Flags: HMW
LayerCount: 2
Back
SplineSet
345 363 m 1,0,-1
 344 357 l 1,1,-1
 258 377 l 1,2,-1
 258 380 l 1,3,4
 278 625 278 625 304.5 897 c 0
 331 1169 331 1169 344 1250 c 1,5,-1
 344 1253 l 1,6,7
 353 1272 353 1272 399.5 1282.5 c 0
 446 1293 446 1293 482 1293 c 0,8,9
 506 1293 506 1293 524.5 1283.5 c 0
 543 1274 543 1274 540 1253 c 0,10,11
 504 1018 504 1018 345 363 c 1,0,-1
383 91 m 1,12,13
 374 38 374 38 332 1 c 0
 290 -36 290 -36 238 -36 c 0,14,15
 186 -36 186 -36 155.5 1.5 c 0
 125 39 125 39 134 92 c 1,16,17
 141 142 141 142 183 176 c 0
 225 210 225 210 276 210 c 0,18,19
 328 210 328 210 359 175.5 c 0
 390 141 390 141 383 91 c 1,12,13
EndSplineSet
Fore
SplineSet
109 1245 m 0,0,1
 109 1270 109 1270 152 1281 c 128,-1,2
 195 1292 195 1292 240 1292 c 0,3,4
 304 1292 304 1292 304 1253 c 0,5,6
 304 1086 304 1086 249 357 c 1,7,-1
 162 376 l 1,8,9
 157 483 157 483 133 815 c 128,-1,10
 109 1147 109 1147 109 1245 c 0,0,1
83 92 m 0,11,12
 83 142 83 142 119.5 176 c 128,-1,13
 156 210 156 210 206 210 c 0,14,15
 257 210 257 210 294 175 c 128,-1,16
 331 140 331 140 331 90 c 0,17,18
 331 37 331 37 294.5 0.5 c 128,-1,19
 258 -36 258 -36 206 -36 c 128,-1,20
 154 -36 154 -36 118.5 1.5 c 128,-1,21
 83 39 83 39 83 92 c 0,11,12
EndSplineSet
Colour: ffffff
EndChar

StartChar: exclamdown
Encoding: 161 161 201
Width: 383
VWidth: 0
Flags: HMW
LayerCount: 2
Back
SplineSet
284 533 m 1,0,-1
 286 540 l 1,1,-1
 372 520 l 1,2,-1
 372 517 l 1,3,4
 353 279 353 279 324 -6.5 c 0
 295 -292 295 -292 282 -375 c 1,5,-1
 282 -378 l 1,6,7
 273 -397 273 -397 226.5 -407.5 c 0
 180 -418 180 -418 144 -418 c 0,8,9
 120 -418 120 -418 101.5 -408.5 c 0
 83 -399 83 -399 86 -378 c 0,10,11
 126 -119 126 -119 284 533 c 1,0,-1
243 784 m 1,12,13
 252 837 252 837 294 874.5 c 0
 336 912 336 912 388 912 c 0,14,15
 440 912 440 912 470.5 874 c 0
 501 836 501 836 492 783 c 1,16,17
 485 733 485 733 443 699.5 c 0
 401 666 401 666 350 666 c 0,18,19
 298 666 298 666 267 700 c 0
 236 734 236 734 243 784 c 1,12,13
EndSplineSet
Fore
SplineSet
73 92 m 0,0,1
 73 140 73 140 108 172.5 c 128,-1,2
 143 205 143 205 191 205 c 0,3,4
 241 205 241 205 277 171.5 c 128,-1,5
 313 138 313 138 313 90 c 0,6,7
 313 40 313 40 277 4.5 c 128,-1,8
 241 -31 241 -31 191 -31 c 0,9,10
 142 -31 142 -31 107.5 5 c 128,-1,11
 73 41 73 41 73 92 c 0,0,1
EndSplineSet
Colour: ffffff
EndChar

StartChar: f
Encoding: 102 102 202
Width: 694
VWidth: 0
Flags: HMW
LayerCount: 2
Fore
SplineSet
35 0 m 1,0,-1
 47 73 l 1,1,-1
 199 116 l 1,2,-1
 199 784 l 1,3,-1
 50 784 l 1,4,-1
 62 857 l 1,5,-1
 200 879 l 1,6,7
 212 982 212 982 252 1066 c 128,-1,8
 292 1150 292 1150 347 1200.5 c 128,-1,9
 402 1251 402 1251 461 1277.5 c 128,-1,10
 520 1304 520 1304 575 1304 c 0,11,12
 659 1304 659 1304 710.5 1275 c 128,-1,13
 762 1246 762 1246 762 1189 c 0,14,15
 762 1155 762 1155 732 1121.5 c 128,-1,16
 702 1088 702 1088 673 1077 c 1,17,18
 635 1124 635 1124 587 1161 c 128,-1,19
 539 1198 539 1198 497 1198 c 0,20,21
 436 1198 436 1198 403.5 1150 c 128,-1,22
 371 1102 371 1102 368 981 c 2,23,-1
 366 873 l 1,24,-1
 623 873 l 1,25,-1
 611 784 l 1,26,-1
 366 784 l 1,27,-1
 366 121 l 1,28,-1
 611 83 l 1,29,-1
 604 0 l 1,30,-1
 35 0 l 1,0,-1
EndSplineSet
Colour: ffffff
EndChar

StartChar: five
Encoding: 53 53 203
Width: 982
VWidth: 1651
Flags: HMW
LayerCount: 2
Back
SplineSet
266 41 m 1,0,1
 488 63 488 63 614 145 c 0,2,3
 740 227 740 227 740 358 c 0,4,5
 740 480 740 480 644 555 c 0,6,7
 549 629 549 629 327 644 c 1,8,-1
 522 1141 l 1,9,-1
 960 1169 l 1,10,-1
 915 1016 l 1,11,-1
 553 997 l 1,12,-1
 471 784 l 1,13,14
 587 776 587 776 669 748 c 0,15,16
 753 719 753 719 813 670 c 0,17,18
 869 624 869 624 898 562 c 0,19,20
 928 498 928 498 928 423 c 0,21,22
 928 343 928 343 888 261 c 0,23,24
 848 179 848 179 770 116 c 0,25,26
 692 53 692 53 565 7 c 0,27,28
 442 -38 442 -38 271 -48 c 1,29,-1
 266 41 l 1,0,1
EndSplineSet
Fore
SplineSet
-19 74 m 1,0,-1
 7 387 l 1,1,-1
 92 368 l 1,2,-1
 113 155 l 1,3,4
 170 67 170 67 304 67 c 0,5,6
 399 67 399 67 456 128 c 128,-1,7
 513 189 513 189 513 290 c 0,8,9
 513 440 513 440 400.5 513.5 c 128,-1,10
 288 587 288 587 57 602 c 1,11,-1
 176 1169 l 1,12,-1
 645 1198 l 1,13,-1
 619 1016 l 1,14,-1
 232 1000 l 1,15,-1
 196 762 l 1,16,17
 309 756 309 756 395.5 731 c 128,-1,18
 482 706 482 706 537 669.5 c 128,-1,19
 592 633 592 633 626.5 581.5 c 128,-1,20
 661 530 661 530 675 475 c 128,-1,21
 689 420 689 420 689 354 c 0,22,23
 689 202 689 202 564.5 88.5 c 128,-1,24
 440 -25 440 -25 260 -25 c 0,25,26
 76 -25 76 -25 -19 74 c 1,0,-1
EndSplineSet
Substitution2: "'sups' Superscript lookup 0 subtable" five.superior
Colour: ffffff
EndChar

StartChar: five.osf
Encoding: 65540 -1 204
Width: 700
VWidth: 0
Flags: HMW
LayerCount: 2
Fore
SplineSet
-66 -159 m 0,0,1
 -66 -105 -66 -105 -38.5 -69.5 c 128,-1,2
 -11 -34 -11 -34 34 -26 c 1,3,4
 48 -56 48 -56 68 -84.5 c 128,-1,5
 88 -113 88 -113 115.5 -142 c 128,-1,6
 143 -171 143 -171 179.5 -188.5 c 128,-1,7
 216 -206 216 -206 255 -206 c 0,8,9
 357 -206 357 -206 418 -134 c 128,-1,10
 479 -62 479 -62 479 80 c 0,11,12
 479 380 479 380 76 426 c 1,13,-1
 179 934 l 1,14,-1
 623 974 l 1,15,-1
 598 811 l 1,16,-1
 240 788 l 1,17,-1
 209 570 l 1,18,19
 434 548 434 548 548.5 435.5 c 128,-1,20
 663 323 663 323 663 145 c 0,21,22
 663 42 663 42 604 -59.5 c 128,-1,23
 545 -161 545 -161 436.5 -229 c 128,-1,24
 328 -297 328 -297 202 -297 c 0,25,26
 72 -297 72 -297 3 -253.5 c 128,-1,27
 -66 -210 -66 -210 -66 -159 c 0,0,1
EndSplineSet
Colour: ffffff
EndChar

StartChar: four
Encoding: 52 52 205
Width: 982
VWidth: 1651
Flags: HMW
LayerCount: 2
Back
SplineSet
585 348 m 1,0,-1
 109 348 l 1,1,-1
 97 421 l 1,2,-1
 806 1166 l 1,3,-1
 865 1148 l 1,4,5
 863 1138 863 1138 858 1104 c 0
 853 1070 853 1070 849 1050 c 0,6,7
 839 994 839 994 829 931 c 0,8,9
 817 855 817 855 809 801 c 0,10,11
 798 731 798 731 791 667 c 1,12,-1
 763 467 l 1,13,-1
 1009 467 l 1,14,-1
 976 345 l 1,15,-1
 745 345 l 1,16,-1
 700 15 l 1,17,-1
 532 -12 l 1,18,-1
 585 348 l 1,0,-1
657 888 m 1,19,-1
 269 467 l 1,20,-1
 598 467 l 1,21,-1
 657 888 l 1,19,-1
EndSplineSet
Fore
SplineSet
164 479 m 1,0,-1
 493 479 l 1,1,-1
 493 912 l 1,2,-1
 164 479 l 1,0,-1
-21 431 m 1,3,-1
 621 1194 l 1,4,-1
 686 1176 l 1,5,6
 676 978 676 978 676 683 c 2,7,-1
 676 479 l 1,8,-1
 931 479 l 1,9,-1
 915 346 l 1,10,-1
 676 346 l 1,11,-1
 676 105 l 1,12,-1
 865 73 l 1,13,-1
 855 0 l 1,14,-1
 274 0 l 1,15,-1
 281 66 l 1,16,-1
 496 111 l 1,17,-1
 496 349 l 1,18,-1
 2 349 l 1,19,-1
 -21 431 l 1,3,-1
EndSplineSet
Substitution2: "'sups' Superscript lookup 0 subtable" four.superior
Colour: ffffff
EndChar

StartChar: four.osf
Encoding: 65541 -1 206
Width: 940
VWidth: 0
Flags: HMW
LayerCount: 2
Fore
SplineSet
169 211 m 1,0,-1
 499 211 l 1,1,-1
 499 676 l 1,2,-1
 169 211 l 1,0,-1
-9 164 m 1,3,-1
 618 986 l 1,4,-1
 683 968 l 1,5,6
 673 770 673 770 673 432 c 2,7,-1
 673 211 l 1,8,-1
 927 211 l 1,9,-1
 910 86 l 1,10,-1
 675 86 l 1,11,-1
 675 -267 l 1,12,-1
 500 -304 l 1,13,-1
 500 89 l 1,14,-1
 14 89 l 1,15,-1
 -9 164 l 1,3,-1
EndSplineSet
Colour: ffffff
EndChar

StartChar: fraction
Encoding: 8260 8260 207
Width: 1736
VWidth: 0
Flags: HMW
LayerCount: 2
Fore
SplineSet
123 -10 m 1,0,-1
 530 588 l 1,1,-1
 921 1210 l 1,2,-1
 1087 1207 l 1,3,-1
 1085 1178 l 1,4,-1
 684 591 l 1,5,-1
 313 -32 l 1,6,-1
 123 -10 l 1,0,-1
EndSplineSet
Colour: ffffff
EndChar

StartChar: g
Encoding: 103 103 208
Width: 890
VWidth: 0
Flags: HMW
LayerCount: 2
Fore
SplineSet
252 608 m 0,0,1
 252 510 252 510 304.5 445 c 128,-1,2
 357 380 357 380 417 380 c 0,3,4
 564 380 564 380 564 580 c 0,5,6
 564 670 564 670 519.5 746.5 c 128,-1,7
 475 823 475 823 402 823 c 0,8,9
 327 823 327 823 289.5 766 c 128,-1,10
 252 709 252 709 252 608 c 0,0,1
200 -108 m 0,11,12
 200 -279 200 -279 440 -279 c 0,13,14
 547 -279 547 -279 611.5 -236 c 128,-1,15
 676 -193 676 -193 676 -100 c 0,16,17
 676 -36 676 -36 622.5 -16.5 c 128,-1,18
 569 3 569 3 426 3 c 2,19,-1
 252 3 l 1,20,21
 250 2 250 2 246.5 0.5 c 128,-1,22
 243 -1 243 -1 234 -9.5 c 128,-1,23
 225 -18 225 -18 218 -29 c 128,-1,24
 211 -40 211 -40 205.5 -61 c 128,-1,25
 200 -82 200 -82 200 -108 c 0,11,12
24 -162 m 0,26,27
 24 -130 24 -130 40 -101 c 128,-1,28
 56 -72 56 -72 88 -46.5 c 128,-1,29
 120 -21 120 -21 136 -10.5 c 128,-1,30
 152 0 152 0 184 18 c 1,31,-1
 184 27 l 1,32,33
 138 49 138 49 113 85 c 128,-1,34
 88 121 88 121 88 164 c 0,35,36
 88 203 88 203 142 253.5 c 128,-1,37
 196 304 196 304 255 328 c 1,38,-1
 255 335 l 1,39,40
 208 347 208 347 150 422.5 c 128,-1,41
 92 498 92 498 92 589 c 0,42,43
 92 711 92 711 195 803.5 c 128,-1,44
 298 896 298 896 426 896 c 0,45,46
 548 896 548 896 636 833 c 1,47,-1
 851 849 l 1,48,-1
 871 826 l 1,49,-1
 832 715 l 1,50,-1
 816 715 l 1,51,-1
 693 755 l 1,52,-1
 693 738 l 1,53,54
 727 665 727 665 727 599 c 0,55,56
 727 512 727 512 673.5 441.5 c 128,-1,57
 620 371 620 371 543.5 336 c 128,-1,58
 467 301 467 301 389 301 c 0,59,60
 336 301 336 301 299 311 c 1,61,62
 249 259 249 259 249 223 c 0,63,64
 249 188 249 188 286.5 169.5 c 128,-1,65
 324 151 324 151 432 151 c 2,66,-1
 568 151 l 2,67,68
 630 151 630 151 674.5 143.5 c 128,-1,69
 719 136 719 136 760.5 116 c 128,-1,70
 802 96 802 96 823.5 54.5 c 128,-1,71
 845 13 845 13 845 -50 c 0,72,73
 845 -135 845 -135 778 -213.5 c 128,-1,74
 711 -292 711 -292 604.5 -339 c 128,-1,75
 498 -386 498 -386 386 -386 c 0,76,77
 313 -386 313 -386 251.5 -375 c 128,-1,78
 190 -364 190 -364 137 -339 c 128,-1,79
 84 -314 84 -314 54 -269 c 128,-1,80
 24 -224 24 -224 24 -162 c 0,26,27
EndSplineSet
Colour: ffffff
EndChar

StartChar: gbreve
Encoding: 287 287 209
Width: 383
VWidth: 0
Flags: HMW
LayerCount: 2
Fore
SplineSet
73 92 m 0,0,1
 73 140 73 140 108 172.5 c 128,-1,2
 143 205 143 205 191 205 c 0,3,4
 241 205 241 205 277 171.5 c 128,-1,5
 313 138 313 138 313 90 c 0,6,7
 313 40 313 40 277 4.5 c 128,-1,8
 241 -31 241 -31 191 -31 c 0,9,10
 142 -31 142 -31 107.5 5 c 128,-1,11
 73 41 73 41 73 92 c 0,0,1
EndSplineSet
Colour: ffffff
EndChar

StartChar: gcommaaccent
Encoding: 291 291 210
Width: 383
VWidth: 0
Flags: HMW
LayerCount: 2
Fore
SplineSet
73 92 m 0,0,1
 73 140 73 140 108 172.5 c 128,-1,2
 143 205 143 205 191 205 c 0,3,4
 241 205 241 205 277 171.5 c 128,-1,5
 313 138 313 138 313 90 c 0,6,7
 313 40 313 40 277 4.5 c 128,-1,8
 241 -31 241 -31 191 -31 c 0,9,10
 142 -31 142 -31 107.5 5 c 128,-1,11
 73 41 73 41 73 92 c 0,0,1
EndSplineSet
Colour: ffffff
EndChar

StartChar: gdotaccent
Encoding: 289 289 211
Width: 383
VWidth: 0
Flags: HMW
LayerCount: 2
Fore
SplineSet
73 92 m 0,0,1
 73 140 73 140 108 172.5 c 128,-1,2
 143 205 143 205 191 205 c 0,3,4
 241 205 241 205 277 171.5 c 128,-1,5
 313 138 313 138 313 90 c 0,6,7
 313 40 313 40 277 4.5 c 128,-1,8
 241 -31 241 -31 191 -31 c 0,9,10
 142 -31 142 -31 107.5 5 c 128,-1,11
 73 41 73 41 73 92 c 0,0,1
EndSplineSet
Colour: ffffff
EndChar

StartChar: germandbls
Encoding: 223 223 212
Width: 383
VWidth: 0
Flags: HMW
LayerCount: 2
Fore
SplineSet
73 92 m 0,0,1
 73 140 73 140 108 172.5 c 128,-1,2
 143 205 143 205 191 205 c 0,3,4
 241 205 241 205 277 171.5 c 128,-1,5
 313 138 313 138 313 90 c 0,6,7
 313 40 313 40 277 4.5 c 128,-1,8
 241 -31 241 -31 191 -31 c 0,9,10
 142 -31 142 -31 107.5 5 c 128,-1,11
 73 41 73 41 73 92 c 0,0,1
EndSplineSet
Colour: ffffff
EndChar

StartChar: grave
Encoding: 96 96 213
Width: 535
VWidth: 0
Flags: HMW
LayerCount: 2
Fore
SplineSet
122 1659 m 1,0,-1
 237 1697 l 1,1,-1
 369 1364 l 1,2,-1
 313 1329 l 1,3,-1
 122 1659 l 1,0,-1
EndSplineSet
Colour: ffffff
EndChar

StartChar: greater
Encoding: 62 62 214
Width: 727
VWidth: 0
Flags: MW
LayerCount: 2
Back
SplineSet
718 428 m 1,0,-1
 83 -83 l 1,1,-1
 31 -13 l 1,2,-1
 487 454 l 1,3,-1
 195 902 l 1,4,-1
 263 973 l 1,5,-1
 722 456 l 1,6,-1
 718 428 l 1,0,-1
EndSplineSet
Fore
SplineSet
59 -13 m 1,0,-1
 519 434 l 1,1,-1
 79 900 l 1,2,-1
 135 973 l 1,3,-1
 755 472 l 1,4,-1
 756 415 l 1,5,-1
 122 -83 l 1,6,-1
 59 -13 l 1,0,-1
EndSplineSet
Colour: ffffff
EndChar

StartChar: greaterequal
Encoding: 8805 8805 215
Width: 729
VWidth: 0
Flags: HMW
LayerCount: 2
Fore
SplineSet
77 -13 m 1,0,-1
 458 454 l 1,1,-1
 96 900 l 1,2,-1
 153 973 l 1,3,-1
 693 455 l 1,4,-1
 694 428 l 1,5,-1
 138 -83 l 1,6,-1
 77 -13 l 1,0,-1
44 -267 m 1,7,-1
 61 -164 l 1,8,-1
 670 -157 l 1,9,-1
 654 -261 l 1,10,-1
 44 -267 l 1,7,-1
EndSplineSet
Colour: ffffff
EndChar

StartChar: guillemotleft
Encoding: 171 171 216
Width: 383
VWidth: 0
Flags: HMW
LayerCount: 2
Back
SplineSet
401 469 m 1,0,-1
 725 821 l 1,1,-1
 760 761 l 1,2,-1
 547 461 l 1,3,-1
 664 140 l 1,4,-1
 601 78 l 1,5,-1
 400 449 l 1,6,-1
 401 469 l 1,0,-1
154 469 m 1,7,-1
 477 821 l 1,8,-1
 512 761 l 1,9,-1
 299 461 l 1,10,-1
 416 140 l 1,11,-1
 353 78 l 1,12,-1
 152 449 l 1,13,-1
 154 469 l 1,7,-1
EndSplineSet
Fore
SplineSet
73 92 m 0,0,1
 73 140 73 140 108 172.5 c 128,-1,2
 143 205 143 205 191 205 c 0,3,4
 241 205 241 205 277 171.5 c 128,-1,5
 313 138 313 138 313 90 c 0,6,7
 313 40 313 40 277 4.5 c 128,-1,8
 241 -31 241 -31 191 -31 c 0,9,10
 142 -31 142 -31 107.5 5 c 128,-1,11
 73 41 73 41 73 92 c 0,0,1
EndSplineSet
Colour: ffffff
EndChar

StartChar: guillemotright
Encoding: 187 187 217
Width: 383
VWidth: 0
Flags: HMW
LayerCount: 2
Fore
SplineSet
73 92 m 0,0,1
 73 140 73 140 108 172.5 c 128,-1,2
 143 205 143 205 191 205 c 0,3,4
 241 205 241 205 277 171.5 c 128,-1,5
 313 138 313 138 313 90 c 0,6,7
 313 40 313 40 277 4.5 c 128,-1,8
 241 -31 241 -31 191 -31 c 0,9,10
 142 -31 142 -31 107.5 5 c 128,-1,11
 73 41 73 41 73 92 c 0,0,1
EndSplineSet
Colour: ffffff
EndChar

StartChar: guilsinglleft
Encoding: 8249 8249 218
Width: 396
VWidth: 0
Flags: HMW
LayerCount: 2
Fore
SplineSet
23 469 m 1,0,-1
 292 820 l 1,1,-1
 335 761 l 1,2,-1
 171 461 l 1,3,-1
 338 141 l 1,4,-1
 286 77 l 1,5,-1
 24 449 l 1,6,-1
 23 469 l 1,0,-1
EndSplineSet
Colour: ffffff
EndChar

StartChar: guilsinglright
Encoding: 8250 8250 219
Width: 397
VWidth: 0
Flags: HMW
LayerCount: 2
Fore
SplineSet
61 141 m 1,0,-1
 228 461 l 1,1,-1
 64 761 l 1,2,-1
 108 820 l 1,3,-1
 376 469 l 1,4,-1
 374 449 l 1,5,-1
 113 77 l 1,6,-1
 61 141 l 1,0,-1
EndSplineSet
Colour: ffffff
EndChar

StartChar: h
Encoding: 104 104 220
Width: 1029
VWidth: 0
Flags: HMW
LayerCount: 2
Fore
SplineSet
10 0 m 1,0,-1
 21 79 l 1,1,-1
 175 116 l 1,2,-1
 175 1117 l 1,3,-1
 15 1171 l 1,4,-1
 27 1247 l 1,5,-1
 316 1269 l 1,6,-1
 341 1245 l 1,7,-1
 341 850 l 1,8,-1
 325 744 l 1,9,-1
 335 744 l 1,10,11
 476 900 476 900 629 900 c 0,12,13
 684 900 684 900 725.5 886.5 c 128,-1,14
 767 873 767 873 801.5 841 c 128,-1,15
 836 809 836 809 854 748 c 128,-1,16
 872 687 872 687 872 599 c 2,17,-1
 872 114 l 1,18,-1
 1017 79 l 1,19,-1
 1005 0 l 1,20,-1
 556 0 l 1,21,-1
 568 74 l 1,22,-1
 703 114 l 1,23,-1
 706 580 l 2,24,25
 706 677 706 677 655 720.5 c 128,-1,26
 604 764 604 764 534 764 c 0,27,28
 426 764 426 764 341 675 c 1,29,-1
 341 116 l 1,30,-1
 487 80 l 1,31,-1
 475 0 l 1,32,-1
 10 0 l 1,0,-1
EndSplineSet
Colour: ffffff
EndChar

StartChar: hbar
Encoding: 295 295 221
Width: 383
VWidth: 0
Flags: HMW
LayerCount: 2
Fore
SplineSet
73 92 m 0,0,1
 73 140 73 140 108 172.5 c 128,-1,2
 143 205 143 205 191 205 c 0,3,4
 241 205 241 205 277 171.5 c 128,-1,5
 313 138 313 138 313 90 c 0,6,7
 313 40 313 40 277 4.5 c 128,-1,8
 241 -31 241 -31 191 -31 c 0,9,10
 142 -31 142 -31 107.5 5 c 128,-1,11
 73 41 73 41 73 92 c 0,0,1
EndSplineSet
Colour: ffffff
EndChar

StartChar: hungarumlaut
Encoding: 733 733 222
Width: 383
VWidth: 0
Flags: HMW
LayerCount: 2
Fore
SplineSet
73 92 m 0,0,1
 73 140 73 140 108 172.5 c 128,-1,2
 143 205 143 205 191 205 c 0,3,4
 241 205 241 205 277 171.5 c 128,-1,5
 313 138 313 138 313 90 c 0,6,7
 313 40 313 40 277 4.5 c 128,-1,8
 241 -31 241 -31 191 -31 c 0,9,10
 142 -31 142 -31 107.5 5 c 128,-1,11
 73 41 73 41 73 92 c 0,0,1
EndSplineSet
Colour: ffffff
EndChar

StartChar: hyphen
Encoding: 45 45 223
Width: 581
VWidth: 0
Flags: HMW
LayerCount: 2
Back
SplineSet
170 499 m 1,0,-1
 580 517 l 1,1,-1
 553 416 l 1,2,-1
 142 398 l 1,3,-1
 170 499 l 1,0,-1
EndSplineSet
Fore
SplineSet
81 398 m 1,0,-1
 92 498 l 1,1,-1
 500 517 l 1,2,-1
 489 415 l 1,3,-1
 81 398 l 1,0,-1
EndSplineSet
Colour: ffffff
EndChar

StartChar: i
Encoding: 105 105 224
Width: 539
VWidth: 0
Flags: HMW
LayerCount: 2
Fore
SplineSet
156 1194 m 0,0,1
 156 1241 156 1241 191.5 1273.5 c 128,-1,2
 227 1306 227 1306 275 1306 c 0,3,4
 325 1306 325 1306 361 1273 c 128,-1,5
 397 1240 397 1240 397 1192 c 0,6,7
 397 1142 397 1142 361 1106 c 128,-1,8
 325 1070 325 1070 275 1070 c 0,9,10
 226 1070 226 1070 191 1106.5 c 128,-1,11
 156 1143 156 1143 156 1194 c 0,0,1
37 0 m 1,12,-1
 49 79 l 1,13,-1
 200 116 l 1,14,-1
 200 731 l 1,15,-1
 49 786 l 1,16,-1
 62 862 l 1,17,-1
 343 885 l 1,18,-1
 368 860 l 1,19,-1
 368 116 l 1,20,-1
 528 80 l 1,21,-1
 517 0 l 1,22,-1
 37 0 l 1,12,-1
EndSplineSet
Colour: ffffff
EndChar

StartChar: iacute
Encoding: 237 237 225
Width: 383
VWidth: 0
Flags: HMW
LayerCount: 2
Fore
SplineSet
73 92 m 0,0,1
 73 140 73 140 108 172.5 c 128,-1,2
 143 205 143 205 191 205 c 0,3,4
 241 205 241 205 277 171.5 c 128,-1,5
 313 138 313 138 313 90 c 0,6,7
 313 40 313 40 277 4.5 c 128,-1,8
 241 -31 241 -31 191 -31 c 0,9,10
 142 -31 142 -31 107.5 5 c 128,-1,11
 73 41 73 41 73 92 c 0,0,1
EndSplineSet
Colour: ffffff
EndChar

StartChar: icaron
Encoding: 464 464 226
Width: 383
VWidth: 0
Flags: HMW
LayerCount: 2
Fore
SplineSet
73 92 m 0,0,1
 73 140 73 140 108 172.5 c 128,-1,2
 143 205 143 205 191 205 c 0,3,4
 241 205 241 205 277 171.5 c 128,-1,5
 313 138 313 138 313 90 c 0,6,7
 313 40 313 40 277 4.5 c 128,-1,8
 241 -31 241 -31 191 -31 c 0,9,10
 142 -31 142 -31 107.5 5 c 128,-1,11
 73 41 73 41 73 92 c 0,0,1
EndSplineSet
Colour: ffffff
EndChar

StartChar: icircumflex
Encoding: 238 238 227
Width: 383
VWidth: 0
Flags: HMW
LayerCount: 2
Fore
SplineSet
73 92 m 0,0,1
 73 140 73 140 108 172.5 c 128,-1,2
 143 205 143 205 191 205 c 0,3,4
 241 205 241 205 277 171.5 c 128,-1,5
 313 138 313 138 313 90 c 0,6,7
 313 40 313 40 277 4.5 c 128,-1,8
 241 -31 241 -31 191 -31 c 0,9,10
 142 -31 142 -31 107.5 5 c 128,-1,11
 73 41 73 41 73 92 c 0,0,1
EndSplineSet
Colour: ffffff
EndChar

StartChar: idieresis
Encoding: 239 239 228
Width: 383
VWidth: 0
Flags: HMW
LayerCount: 2
Fore
SplineSet
73 92 m 0,0,1
 73 140 73 140 108 172.5 c 128,-1,2
 143 205 143 205 191 205 c 0,3,4
 241 205 241 205 277 171.5 c 128,-1,5
 313 138 313 138 313 90 c 0,6,7
 313 40 313 40 277 4.5 c 128,-1,8
 241 -31 241 -31 191 -31 c 0,9,10
 142 -31 142 -31 107.5 5 c 128,-1,11
 73 41 73 41 73 92 c 0,0,1
EndSplineSet
Colour: ffffff
EndChar

StartChar: igrave
Encoding: 236 236 229
Width: 383
VWidth: 0
Flags: HMW
LayerCount: 2
Fore
SplineSet
73 92 m 0,0,1
 73 140 73 140 108 172.5 c 128,-1,2
 143 205 143 205 191 205 c 0,3,4
 241 205 241 205 277 171.5 c 128,-1,5
 313 138 313 138 313 90 c 0,6,7
 313 40 313 40 277 4.5 c 128,-1,8
 241 -31 241 -31 191 -31 c 0,9,10
 142 -31 142 -31 107.5 5 c 128,-1,11
 73 41 73 41 73 92 c 0,0,1
EndSplineSet
Colour: ffffff
EndChar

StartChar: imacron
Encoding: 299 299 230
Width: 383
VWidth: 0
Flags: HMW
LayerCount: 2
Fore
SplineSet
73 92 m 0,0,1
 73 140 73 140 108 172.5 c 128,-1,2
 143 205 143 205 191 205 c 0,3,4
 241 205 241 205 277 171.5 c 128,-1,5
 313 138 313 138 313 90 c 0,6,7
 313 40 313 40 277 4.5 c 128,-1,8
 241 -31 241 -31 191 -31 c 0,9,10
 142 -31 142 -31 107.5 5 c 128,-1,11
 73 41 73 41 73 92 c 0,0,1
EndSplineSet
Colour: ffffff
EndChar

StartChar: infinity
Encoding: 8734 8734 231
Width: 1361
VWidth: 0
Flags: HMW
LayerCount: 2
Fore
SplineSet
734 608 m 1,0,1
 799 492 799 492 885 427 c 128,-1,2
 971 362 971 362 1059 362 c 0,3,4
 1125 362 1125 362 1172 411 c 128,-1,5
 1219 460 1219 460 1219 525 c 0,6,7
 1219 606 1219 606 1147 657.5 c 128,-1,8
 1075 709 1075 709 983 709 c 0,9,10
 919 709 919 709 866.5 691 c 128,-1,11
 814 673 814 673 790 655.5 c 128,-1,12
 766 638 766 638 734 608 c 1,0,1
151 540 m 0,13,14
 151 466 151 466 221 414 c 128,-1,15
 291 362 291 362 380 362 c 0,16,17
 455 362 455 362 528 392.5 c 128,-1,18
 601 423 601 423 632 464 c 1,19,20
 542 593 542 593 477 657 c 128,-1,21
 412 721 412 721 343 721 c 0,22,23
 249 721 249 721 200 672.5 c 128,-1,24
 151 624 151 624 151 540 c 0,13,14
62 497 m 0,25,26
 62 660 62 660 156 766.5 c 128,-1,27
 250 873 250 873 384 873 c 0,28,29
 477 873 477 873 551 827.5 c 128,-1,30
 625 782 625 782 690 676 c 1,31,-1
 700 679 l 1,32,33
 840 869 840 869 1023 869 c 0,34,35
 1145 869 1145 869 1223.5 780.5 c 128,-1,36
 1302 692 1302 692 1302 552 c 0,37,38
 1302 411 1302 411 1202 308 c 128,-1,39
 1102 205 1102 205 964 205 c 0,40,41
 793 205 793 205 675 406 c 1,42,-1
 666 406 l 1,43,44
 539 203 539 203 357 203 c 0,45,46
 220 203 220 203 141 283 c 128,-1,47
 62 363 62 363 62 497 c 0,25,26
EndSplineSet
Colour: ffffff
EndChar

StartChar: integral
Encoding: 8747 8747 232
Width: 879
VWidth: 0
Flags: HMW
LayerCount: 2
Fore
SplineSet
-55 -270 m 1,0,1
 -54 -236 -54 -236 -24.5 -202 c 128,-1,2
 5 -168 5 -168 34 -157 c 1,3,4
 134 -279 134 -279 209 -279 c 0,5,6
 270 -279 270 -279 303.5 -230.5 c 128,-1,7
 337 -182 337 -182 340 -61 c 1,8,-1
 344 786 l 2,9,10
 345 894 345 894 370.5 984 c 128,-1,11
 396 1074 396 1074 436 1132 c 128,-1,12
 476 1190 476 1190 526.5 1230 c 128,-1,13
 577 1270 577 1270 625.5 1287 c 128,-1,14
 674 1304 674 1304 719 1304 c 0,15,16
 803 1304 803 1304 854.5 1275 c 128,-1,17
 906 1246 906 1246 906 1189 c 0,18,19
 906 1155 906 1155 875.5 1122 c 128,-1,20
 845 1089 845 1089 816 1077 c 1,21,22
 778 1124 778 1124 730.5 1161 c 128,-1,23
 683 1198 683 1198 641 1198 c 0,24,25
 581 1198 581 1198 547.5 1150.5 c 128,-1,26
 514 1103 514 1103 510 981 c 1,27,-1
 508 117 l 2,28,29
 508 7 508 7 482 -82.5 c 128,-1,30
 456 -172 456 -172 416.5 -227 c 128,-1,31
 377 -282 377 -282 325.5 -319 c 128,-1,32
 274 -356 274 -356 226 -370.5 c 128,-1,33
 178 -385 178 -385 132 -385 c 0,34,35
 48 -385 48 -385 -3.5 -356 c 128,-1,36
 -55 -327 -55 -327 -55 -270 c 1,0,1
EndSplineSet
Colour: ffffff
EndChar

StartChar: iogonek
Encoding: 303 303 233
Width: 383
VWidth: 0
Flags: HMW
LayerCount: 2
Fore
SplineSet
73 92 m 0,0,1
 73 140 73 140 108 172.5 c 128,-1,2
 143 205 143 205 191 205 c 0,3,4
 241 205 241 205 277 171.5 c 128,-1,5
 313 138 313 138 313 90 c 0,6,7
 313 40 313 40 277 4.5 c 128,-1,8
 241 -31 241 -31 191 -31 c 0,9,10
 142 -31 142 -31 107.5 5 c 128,-1,11
 73 41 73 41 73 92 c 0,0,1
EndSplineSet
Colour: ffffff
EndChar

StartChar: j
Encoding: 106 106 234
Width: 463
VWidth: 0
Flags: HMW
LayerCount: 2
Fore
SplineSet
139 1189 m 0,0,1
 139 1239 139 1239 175.5 1273.5 c 128,-1,2
 212 1308 212 1308 263 1308 c 0,3,4
 313 1308 313 1308 348.5 1272.5 c 128,-1,5
 384 1237 384 1237 384 1188 c 0,6,7
 384 1137 384 1137 348 1100 c 128,-1,8
 312 1063 312 1063 262 1063 c 128,-1,9
 212 1063 212 1063 175.5 1100.5 c 128,-1,10
 139 1138 139 1138 139 1189 c 0,0,1
-34 -295 m 1,11,12
 3 -268 3 -268 31 -241.5 c 128,-1,13
 59 -215 59 -215 90 -173.5 c 128,-1,14
 121 -132 121 -132 141 -85.5 c 128,-1,15
 161 -39 161 -39 174 27.5 c 128,-1,16
 187 94 187 94 187 172 c 2,17,-1
 187 731 l 1,18,-1
 37 786 l 1,19,-1
 52 866 l 1,20,-1
 331 887 l 1,21,-1
 356 862 l 1,22,-1
 356 151 l 2,23,24
 356 -193 356 -193 61 -359 c 1,25,-1
 15 -383 l 1,26,-1
 -34 -295 l 1,11,12
EndSplineSet
Colour: ffffff
EndChar

StartChar: k
Encoding: 107 107 235
Width: 972
VWidth: 0
Flags: HMW
LayerCount: 2
Fore
SplineSet
365 432 m 1,0,-1
 365 452 l 1,1,-1
 624 777 l 1,2,-1
 491 817 l 1,3,-1
 501 893 l 1,4,-1
 927 893 l 1,5,-1
 913 819 l 1,6,-1
 764 777 l 1,7,-1
 527 487 l 1,8,-1
 606 386 l 2,9,10
 631 354 631 354 671 301.5 c 128,-1,11
 711 249 711 249 728.5 226.5 c 128,-1,12
 746 204 746 204 775 171.5 c 128,-1,13
 804 139 804 139 824.5 125.5 c 128,-1,14
 845 112 845 112 872.5 99.5 c 128,-1,15
 900 87 900 87 931 83 c 2,16,-1
 971 77 l 1,17,-1
 960 0 l 1,18,19
 889 -19 889 -19 841 -19 c 0,20,21
 747 -19 747 -19 675 44 c 128,-1,22
 603 107 603 107 470 287 c 1,23,-1
 365 432 l 1,0,-1
10 0 m 1,24,-1
 21 79 l 1,25,-1
 174 116 l 1,26,-1
 174 1108 l 1,27,-1
 16 1161 l 1,28,-1
 28 1237 l 1,29,-1
 316 1260 l 1,30,-1
 341 1235 l 1,31,-1
 341 116 l 1,32,-1
 500 80 l 1,33,-1
 488 0 l 1,34,-1
 10 0 l 1,24,-1
EndSplineSet
Colour: ffffff
EndChar

StartChar: kcommaaccent
Encoding: 311 311 236
Width: 383
VWidth: 0
Flags: HMW
LayerCount: 2
Fore
SplineSet
73 92 m 0,0,1
 73 140 73 140 108 172.5 c 128,-1,2
 143 205 143 205 191 205 c 0,3,4
 241 205 241 205 277 171.5 c 128,-1,5
 313 138 313 138 313 90 c 0,6,7
 313 40 313 40 277 4.5 c 128,-1,8
 241 -31 241 -31 191 -31 c 0,9,10
 142 -31 142 -31 107.5 5 c 128,-1,11
 73 41 73 41 73 92 c 0,0,1
EndSplineSet
Colour: ffffff
EndChar

StartChar: l
Encoding: 108 108 237
Width: 510
VWidth: 0
Flags: HMW
LayerCount: 2
Fore
SplineSet
10 0 m 1,0,-1
 21 79 l 1,1,-1
 174 116 l 1,2,-1
 174 1117 l 1,3,-1
 16 1171 l 1,4,-1
 28 1247 l 1,5,-1
 316 1269 l 1,6,-1
 341 1245 l 1,7,-1
 341 116 l 1,8,-1
 500 80 l 1,9,-1
 488 0 l 1,10,-1
 10 0 l 1,0,-1
EndSplineSet
Colour: ffffff
EndChar

StartChar: lacute
Encoding: 314 314 238
Width: 383
VWidth: 0
Flags: HMW
LayerCount: 2
Fore
SplineSet
73 92 m 0,0,1
 73 140 73 140 108 172.5 c 128,-1,2
 143 205 143 205 191 205 c 0,3,4
 241 205 241 205 277 171.5 c 128,-1,5
 313 138 313 138 313 90 c 0,6,7
 313 40 313 40 277 4.5 c 128,-1,8
 241 -31 241 -31 191 -31 c 0,9,10
 142 -31 142 -31 107.5 5 c 128,-1,11
 73 41 73 41 73 92 c 0,0,1
EndSplineSet
Colour: ffffff
EndChar

StartChar: lcaron
Encoding: 318 318 239
Width: 383
VWidth: 0
Flags: HMW
LayerCount: 2
Fore
SplineSet
73 92 m 0,0,1
 73 140 73 140 108 172.5 c 128,-1,2
 143 205 143 205 191 205 c 0,3,4
 241 205 241 205 277 171.5 c 128,-1,5
 313 138 313 138 313 90 c 0,6,7
 313 40 313 40 277 4.5 c 128,-1,8
 241 -31 241 -31 191 -31 c 0,9,10
 142 -31 142 -31 107.5 5 c 128,-1,11
 73 41 73 41 73 92 c 0,0,1
EndSplineSet
Colour: ffffff
EndChar

StartChar: lcommaaccent
Encoding: 316 316 240
Width: 383
VWidth: 0
Flags: HMW
LayerCount: 2
Fore
SplineSet
73 92 m 0,0,1
 73 140 73 140 108 172.5 c 128,-1,2
 143 205 143 205 191 205 c 0,3,4
 241 205 241 205 277 171.5 c 128,-1,5
 313 138 313 138 313 90 c 0,6,7
 313 40 313 40 277 4.5 c 128,-1,8
 241 -31 241 -31 191 -31 c 0,9,10
 142 -31 142 -31 107.5 5 c 128,-1,11
 73 41 73 41 73 92 c 0,0,1
EndSplineSet
Colour: ffffff
EndChar

StartChar: less
Encoding: 60 60 241
Width: 713
VWidth: 0
Flags: MW
LayerCount: 2
Fore
SplineSet
756 -13 m 1,0,-1
 693 -83 l 1,1,-1
 59 415 l 1,2,-1
 60 472 l 1,3,-1
 680 973 l 1,4,-1
 736 900 l 1,5,-1
 296 434 l 1,6,-1
 756 -13 l 1,0,-1
EndSplineSet
Colour: ffffff
EndChar

StartChar: lessequal
Encoding: 8804 8804 242
Width: 729
VWidth: 0
Flags: HMW
LayerCount: 2
Fore
SplineSet
61 -267 m 1,0,-1
 77 -164 l 1,1,-1
 688 -157 l 1,2,-1
 672 -261 l 1,3,-1
 61 -267 l 1,0,-1
37 428 m 1,4,-1
 40 455 l 1,5,-1
 578 973 l 1,6,-1
 636 900 l 1,7,-1
 274 454 l 1,8,-1
 655 -13 l 1,9,-1
 593 -83 l 1,10,-1
 37 428 l 1,4,-1
EndSplineSet
Colour: ffffff
EndChar

StartChar: logicalnot
Encoding: 172 172 243
Width: 383
VWidth: 0
Flags: HMW
LayerCount: 2
Back
SplineSet
200 664 m 1,0,-1
 945 664 l 1,1,-1
 897 350 l 1,2,-1
 788 332 l 1,3,-1
 824 558 l 1,4,-1
 172 558 l 1,5,-1
 200 664 l 1,0,-1
EndSplineSet
Fore
SplineSet
73 92 m 0,0,1
 73 140 73 140 108 172.5 c 128,-1,2
 143 205 143 205 191 205 c 0,3,4
 241 205 241 205 277 171.5 c 128,-1,5
 313 138 313 138 313 90 c 0,6,7
 313 40 313 40 277 4.5 c 128,-1,8
 241 -31 241 -31 191 -31 c 0,9,10
 142 -31 142 -31 107.5 5 c 128,-1,11
 73 41 73 41 73 92 c 0,0,1
EndSplineSet
Colour: ffffff
EndChar

StartChar: lozenge
Encoding: 9674 9674 244
Width: 943
VWidth: 0
Flags: HMW
LayerCount: 2
Fore
SplineSet
148 474 m 1,0,-1
 472 799 l 1,1,-1
 796 472 l 1,2,-1
 474 135 l 1,3,-1
 148 474 l 1,0,-1
EndSplineSet
Colour: ffffff
EndChar

StartChar: lslash
Encoding: 322 322 245
Width: 383
VWidth: 0
Flags: HMW
LayerCount: 2
Fore
SplineSet
73 92 m 0,0,1
 73 140 73 140 108 172.5 c 128,-1,2
 143 205 143 205 191 205 c 0,3,4
 241 205 241 205 277 171.5 c 128,-1,5
 313 138 313 138 313 90 c 0,6,7
 313 40 313 40 277 4.5 c 128,-1,8
 241 -31 241 -31 191 -31 c 0,9,10
 142 -31 142 -31 107.5 5 c 128,-1,11
 73 41 73 41 73 92 c 0,0,1
EndSplineSet
Colour: ffffff
EndChar

StartChar: m
Encoding: 109 109 246
Width: 1584
VWidth: 0
Flags: HMW
LayerCount: 2
Fore
SplineSet
43 0 m 1,0,-1
 53 74 l 1,1,-1
 203 114 l 1,2,-1
 203 719 l 1,3,-1
 43 770 l 1,4,-1
 53 845 l 1,5,-1
 357 887 l 1,6,-1
 375 866 l 1,7,-1
 357 740 l 1,8,-1
 366 740 l 1,9,10
 419 806 419 806 498.5 851 c 128,-1,11
 578 896 578 896 666 896 c 0,12,13
 742 896 742 896 803.5 856 c 128,-1,14
 865 816 865 816 887 731 c 1,15,-1
 899 731 l 1,16,17
 952 799 952 799 1028.5 843.5 c 128,-1,18
 1105 888 1105 888 1194 888 c 0,19,20
 1430 888 1430 888 1430 609 c 2,21,-1
 1430 116 l 1,22,-1
 1568 80 l 1,23,-1
 1555 1 l 1,24,-1
 1130 1 l 1,25,-1
 1137 74 l 1,26,-1
 1262 114 l 1,27,-1
 1262 585 l 2,28,29
 1262 660 1262 660 1217 710 c 128,-1,30
 1172 760 1172 760 1094 760 c 0,31,32
 1034 760 1034 760 990.5 733.5 c 128,-1,33
 947 707 947 707 903 660 c 1,34,-1
 903 114 l 1,35,-1
 1051 79 l 1,36,-1
 1041 0 l 1,37,-1
 598 0 l 1,38,-1
 609 74 l 1,39,-1
 740 114 l 1,40,-1
 740 585 l 2,41,42
 740 663 740 663 691 711.5 c 128,-1,43
 642 760 642 760 569 760 c 0,44,45
 448 760 448 760 372 673 c 1,46,-1
 372 114 l 1,47,-1
 515 79 l 1,48,-1
 504 0 l 1,49,-1
 43 0 l 1,0,-1
EndSplineSet
Colour: ffffff
EndChar

StartChar: macron
Encoding: 175 175 247
Width: 383
VWidth: 0
Flags: HMW
LayerCount: 2
Fore
SplineSet
73 92 m 0,0,1
 73 140 73 140 108 172.5 c 128,-1,2
 143 205 143 205 191 205 c 0,3,4
 241 205 241 205 277 171.5 c 128,-1,5
 313 138 313 138 313 90 c 0,6,7
 313 40 313 40 277 4.5 c 128,-1,8
 241 -31 241 -31 191 -31 c 0,9,10
 142 -31 142 -31 107.5 5 c 128,-1,11
 73 41 73 41 73 92 c 0,0,1
EndSplineSet
Colour: ffffff
EndChar

StartChar: minus
Encoding: 8722 8722 248
Width: 821
VWidth: 0
Flags: HMW
LayerCount: 2
Fore
SplineSet
99 409 m 1,0,-1
 116 513 l 1,1,-1
 726 520 l 1,2,-1
 709 415 l 1,3,-1
 99 409 l 1,0,-1
EndSplineSet
Colour: ffffff
EndChar

StartChar: mu
Encoding: 956 956 249
Width: 1008
VWidth: 0
Flags: HMW
LayerCount: 2
Fore
SplineSet
28 790 m 1,0,-1
 40 870 l 1,1,-1
 309 892 l 1,2,-1
 334 866 l 1,3,-1
 334 314 l 2,4,5
 334 105 334 105 487 105 c 0,6,7
 529 105 529 105 567.5 120 c 128,-1,8
 606 135 606 135 621.5 146.5 c 128,-1,9
 637 158 637 158 675 188 c 1,10,-1
 675 731 l 1,11,-1
 513 773 l 1,12,-1
 523 863 l 1,13,-1
 818 892 l 1,14,-1
 839 866 l 1,15,-1
 839 213 l 2,16,17
 839 176 839 176 844.5 153.5 c 128,-1,18
 850 131 850 131 868.5 117.5 c 128,-1,19
 887 104 887 104 897.5 100 c 128,-1,20
 908 96 908 96 941 89 c 0,21,22
 946 88 946 88 948 87 c 2,23,-1
 993 77 l 1,24,-1
 985 -6 l 1,25,26
 911 -24 911 -24 832 -24 c 0,27,28
 760 -24 760 -24 723 16 c 128,-1,29
 686 56 686 56 686 121 c 2,30,-1
 686 129 l 1,31,-1
 675 129 l 1,32,33
 605 51 605 51 537 13.5 c 128,-1,34
 469 -24 469 -24 387 -24 c 0,35,36
 293 -24 293 -24 246 37 c 1,37,-1
 239 37 l 1,38,39
 249 -24 249 -24 253 -86 c 2,40,-1
 271 -388 l 1,41,-1
 138 -362 l 1,42,43
 138 -360 138 -360 140.5 -309.5 c 128,-1,44
 143 -259 143 -259 145.5 -193 c 128,-1,45
 148 -127 148 -127 151.5 -33.5 c 128,-1,46
 155 60 155 60 158 148.5 c 128,-1,47
 161 237 161 237 163 331 c 128,-1,48
 165 425 165 425 165 494 c 2,49,-1
 165 736 l 1,50,-1
 28 790 l 1,0,-1
EndSplineSet
Colour: ffffff
EndChar

StartChar: multiply
Encoding: 215 215 250
Width: 383
VWidth: 0
Flags: HMW
LayerCount: 2
Fore
SplineSet
73 92 m 0,0,1
 73 140 73 140 108 172.5 c 128,-1,2
 143 205 143 205 191 205 c 0,3,4
 241 205 241 205 277 171.5 c 128,-1,5
 313 138 313 138 313 90 c 0,6,7
 313 40 313 40 277 4.5 c 128,-1,8
 241 -31 241 -31 191 -31 c 0,9,10
 142 -31 142 -31 107.5 5 c 128,-1,11
 73 41 73 41 73 92 c 0,0,1
EndSplineSet
Colour: ffffff
EndChar

StartChar: n
Encoding: 110 110 251
Width: 1060
VWidth: 0
Flags: HMW
LayerCount: 2
Fore
SplineSet
37 0 m 1,0,-1
 47 73 l 1,1,-1
 198 114 l 1,2,-1
 198 721 l 1,3,-1
 44 773 l 1,4,-1
 54 849 l 1,5,-1
 352 888 l 1,6,-1
 369 869 l 1,7,-1
 352 741 l 1,8,-1
 362 741 l 1,9,10
 419 809 419 809 497 854 c 128,-1,11
 575 899 575 899 663 899 c 0,12,13
 780 899 780 899 842 825 c 128,-1,14
 904 751 904 751 904 616 c 2,15,-1
 904 114 l 1,16,-1
 1048 79 l 1,17,-1
 1038 0 l 1,18,-1
 589 0 l 1,19,-1
 599 73 l 1,20,-1
 737 114 l 1,21,-1
 737 577 l 2,22,23
 737 670 737 670 689.5 715.5 c 128,-1,24
 642 761 642 761 563 761 c 0,25,26
 443 761 443 761 366 675 c 1,27,-1
 366 114 l 1,28,-1
 515 79 l 1,29,-1
 501 0 l 1,30,-1
 37 0 l 1,0,-1
EndSplineSet
Colour: ffffff
EndChar

StartChar: nacute
Encoding: 324 324 252
Width: 383
VWidth: 0
Flags: HMW
LayerCount: 2
Fore
SplineSet
73 92 m 0,0,1
 73 140 73 140 108 172.5 c 128,-1,2
 143 205 143 205 191 205 c 0,3,4
 241 205 241 205 277 171.5 c 128,-1,5
 313 138 313 138 313 90 c 0,6,7
 313 40 313 40 277 4.5 c 128,-1,8
 241 -31 241 -31 191 -31 c 0,9,10
 142 -31 142 -31 107.5 5 c 128,-1,11
 73 41 73 41 73 92 c 0,0,1
EndSplineSet
Colour: ffffff
EndChar

StartChar: nbspace
Encoding: 160 160 253
Width: 383
VWidth: 0
Flags: HMW
LayerCount: 2
Fore
SplineSet
73 92 m 0,0,1
 73 140 73 140 108 172.5 c 128,-1,2
 143 205 143 205 191 205 c 0,3,4
 241 205 241 205 277 171.5 c 128,-1,5
 313 138 313 138 313 90 c 0,6,7
 313 40 313 40 277 4.5 c 128,-1,8
 241 -31 241 -31 191 -31 c 0,9,10
 142 -31 142 -31 107.5 5 c 128,-1,11
 73 41 73 41 73 92 c 0,0,1
EndSplineSet
Colour: ffffff
EndChar

StartChar: ncaron
Encoding: 328 328 254
Width: 383
VWidth: 0
Flags: HMW
LayerCount: 2
Fore
SplineSet
73 92 m 0,0,1
 73 140 73 140 108 172.5 c 128,-1,2
 143 205 143 205 191 205 c 0,3,4
 241 205 241 205 277 171.5 c 128,-1,5
 313 138 313 138 313 90 c 0,6,7
 313 40 313 40 277 4.5 c 128,-1,8
 241 -31 241 -31 191 -31 c 0,9,10
 142 -31 142 -31 107.5 5 c 128,-1,11
 73 41 73 41 73 92 c 0,0,1
EndSplineSet
Colour: ffffff
EndChar

StartChar: ncommaaccent
Encoding: 326 326 255
Width: 383
VWidth: 0
Flags: HMW
LayerCount: 2
Fore
SplineSet
73 92 m 0,0,1
 73 140 73 140 108 172.5 c 128,-1,2
 143 205 143 205 191 205 c 0,3,4
 241 205 241 205 277 171.5 c 128,-1,5
 313 138 313 138 313 90 c 0,6,7
 313 40 313 40 277 4.5 c 128,-1,8
 241 -31 241 -31 191 -31 c 0,9,10
 142 -31 142 -31 107.5 5 c 128,-1,11
 73 41 73 41 73 92 c 0,0,1
EndSplineSet
Colour: ffffff
EndChar

StartChar: nine
Encoding: 57 57 256
Width: 982
VWidth: 1651
Flags: HMW
LayerCount: 2
Back
SplineSet
745 562 m 1,0,1
 721 535 721 535 692 517 c 0,2,3
 655 494 655 494 626 484 c 0,4,5
 573 466 573 466 555 462 c 0,6,7
 525 456 525 456 487 456 c 0,8,9
 424 456 424 456 373 479 c 0,10,11
 320 503 320 503 289 538 c 0,12,13
 258 573 258 573 238 631 c 0,14,15
 220 684 220 684 220 740 c 0,16,17
 220 828 220 828 261 912 c 0,18,19
 298 988 298 988 365 1050 c 0,20,21
 433 1113 433 1113 509 1146 c 0,22,23
 592 1182 592 1182 662 1182 c 0,24,25
 748 1182 748 1182 806 1153 c 0,26,27
 865 1124 865 1124 903 1073 c 0,28,29
 944 1019 944 1019 960 958 c 0,30,31
 978 890 978 890 978 819 c 0,32,33
 978 669 978 669 925 527 c 0,34,35
 872 384 872 384 779 272 c 0,36,37
 683 156 683 156 555 79 c 0,38,39
 427 2 427 2 266 -26 c 1,40,-1
 253 46 l 1,41,42
 383 85 383 85 464 134 c 0,43,44
 551 186.5 551 186.5 611 251 c 0,45,46
 675 320 675 320 707 393 c 0,47,48
 741 471 741 471 761 562 c 1,49,-1
 745 562 l 1,0,1
644 1103 m 0,50,51
 577 1103 577 1103 528 1078 c 0,52,53
 481 1054 481 1054 449 1011 c 0,54,55
 418 970 418 970 403 912 c 0,56,57
 388 855 388 855 388 788 c 0,58,59
 388 743 388 743 400 704 c 0,60,61
 414 659 414 659 434 631 c 0,62,63
 455 602 455 602 492 581 c 0,64,65
 526 562 526 562 573 562 c 0,66,67
 604 562 604 562 628 568 c 0,68,69
 665 577 665 577 685 585 c 0,70,71
 716 597 716 597 737 611 c 0,72,73
 758 625 758 625 775 647 c 1,74,75
 783 669 783 669 796 723 c 0,76,77
 806 766 806 766 806 837 c 0,78,79
 806 888 806 888 794 938 c 0,80,81
 782 987 782 987 761 1022 c 0,82,83
 739 1058 739 1058 710 1080 c 0,84,85
 679 1103 679 1103 644 1103 c 0,50,51
EndSplineSet
Fore
SplineSet
240 845 m 0,0,1
 240 772 240 772 256.5 714 c 128,-1,2
 273 656 273 656 317.5 615.5 c 128,-1,3
 362 575 362 575 429 575 c 0,4,5
 481 575 481 575 529 599.5 c 128,-1,6
 577 624 577 624 600 662 c 1,7,8
 609 714 609 714 609 806 c 0,9,10
 609 937 609 937 559 1033.5 c 128,-1,11
 509 1130 509 1130 426 1130 c 0,12,13
 321 1130 321 1130 280.5 1059.5 c 128,-1,14
 240 989 240 989 240 845 c 0,0,1
40 802 m 0,15,16
 40 890 40 890 74.5 968 c 128,-1,17
 109 1046 109 1046 164.5 1098.5 c 128,-1,18
 220 1151 220 1151 290 1181 c 128,-1,19
 360 1211 360 1211 432 1211 c 0,20,21
 509 1211 509 1211 572.5 1187 c 128,-1,22
 636 1163 636 1163 680 1121 c 128,-1,23
 724 1079 724 1079 754.5 1022 c 128,-1,24
 785 965 785 965 799 900 c 128,-1,25
 813 835 813 835 813 764 c 0,26,27
 813 565 813 565 738.5 397.5 c 128,-1,28
 664 230 664 230 523.5 117.5 c 128,-1,29
 383 5 383 5 198 -27 c 1,30,-1
 175 47 l 1,31,32
 294 82 294 82 375.5 134.5 c 128,-1,33
 457 187 457 187 502.5 257.5 c 128,-1,34
 548 328 548 328 568.5 401.5 c 128,-1,35
 589 475 589 475 597 575 c 1,36,-1
 584 575 l 1,37,38
 485 466 485 466 340 466 c 0,39,40
 196 466 196 466 118 553 c 128,-1,41
 40 640 40 640 40 802 c 0,15,16
EndSplineSet
Substitution2: "'sups' Superscript lookup 0 subtable" nine.superior
Colour: ffffff
EndChar

StartChar: nine.osf
Encoding: 65542 -1 257
Width: 778
VWidth: 0
Flags: HMW
LayerCount: 2
Fore
SplineSet
208 607 m 0,0,1
 208 469 208 469 251 403.5 c 128,-1,2
 294 338 294 338 387 338 c 0,3,4
 438 338 438 338 482 362 c 128,-1,5
 526 386 526 386 550 424 c 1,6,7
 557 464 557 464 557 565 c 0,8,9
 557 649 557 649 536.5 722 c 128,-1,10
 516 795 516 795 473.5 843 c 128,-1,11
 431 891 431 891 375 891 c 0,12,13
 208 891 208 891 208 607 c 0,0,1
25 581 m 0,14,15
 25 743 25 743 134.5 857.5 c 128,-1,16
 244 972 244 972 390 972 c 0,17,18
 485 972 485 972 555.5 935 c 128,-1,19
 626 898 626 898 666 833.5 c 128,-1,20
 706 769 706 769 725 691 c 128,-1,21
 744 613 744 613 744 521 c 0,22,23
 744 356 744 356 664.5 189.5 c 128,-1,24
 585 23 585 23 447.5 -103.5 c 128,-1,25
 310 -230 310 -230 148 -282 c 1,26,-1
 125 -208 l 1,27,28
 209 -172 209 -172 276.5 -122 c 128,-1,29
 344 -72 344 -72 387.5 -20 c 128,-1,30
 431 32 431 32 463.5 96.5 c 128,-1,31
 496 161 496 161 513.5 216.5 c 128,-1,32
 531 272 531 272 544 338 c 1,33,-1
 532 338 l 1,34,35
 495 288 495 288 437 259 c 128,-1,36
 379 230 379 230 314 230 c 0,37,38
 170 230 170 230 97.5 320 c 128,-1,39
 25 410 25 410 25 581 c 0,14,15
EndSplineSet
Colour: ffffff
EndChar

StartChar: notequal
Encoding: 8800 8800 258
Width: 755
VWidth: 0
Flags: HMW
LayerCount: 2
Fore
SplineSet
20 554 m 1,0,-1
 32 659 l 1,1,-1
 455 659 l 1,2,-1
 600 868 l 1,3,-1
 722 871 l 1,4,-1
 577 659 l 1,5,-1
 742 659 l 1,6,-1
 731 554 l 1,7,-1
 503 554 l 1,8,-1
 403 419 l 1,9,-1
 740 419 l 1,10,-1
 729 314 l 1,11,-1
 335 314 l 1,12,-1
 159 58 l 1,13,-1
 37 53 l 1,14,-1
 216 314 l 1,15,-1
 17 314 l 1,16,-1
 29 419 l 1,17,-1
 298 419 l 1,18,-1
 394 554 l 1,19,-1
 20 554 l 1,0,-1
EndSplineSet
Colour: ffffff
EndChar

StartChar: ntilde
Encoding: 241 241 259
Width: 383
VWidth: 0
Flags: HMW
LayerCount: 2
Fore
SplineSet
73 92 m 0,0,1
 73 140 73 140 108 172.5 c 128,-1,2
 143 205 143 205 191 205 c 0,3,4
 241 205 241 205 277 171.5 c 128,-1,5
 313 138 313 138 313 90 c 0,6,7
 313 40 313 40 277 4.5 c 128,-1,8
 241 -31 241 -31 191 -31 c 0,9,10
 142 -31 142 -31 107.5 5 c 128,-1,11
 73 41 73 41 73 92 c 0,0,1
EndSplineSet
Colour: ffffff
EndChar

StartChar: numbersign
Encoding: 35 35 260
Width: 913
VWidth: 0
Flags: HMW
LayerCount: 2
Fore
SplineSet
-22 326 m 1,0,-1
 11 451 l 1,1,-1
 254 451 l 1,2,-1
 293 711 l 1,3,-1
 49 711 l 1,4,-1
 83 836 l 1,5,-1
 312 836 l 1,6,-1
 359 1149 l 1,7,-1
 475 1159 l 1,8,-1
 427 836 l 1,9,-1
 616 836 l 1,10,-1
 663 1149 l 1,11,-1
 781 1158 l 1,12,-1
 733 836 l 1,13,-1
 992 836 l 1,14,-1
 961 711 l 1,15,-1
 714 711 l 1,16,-1
 675 451 l 1,17,-1
 917 451 l 1,18,-1
 886 326 l 1,19,-1
 656 326 l 1,20,-1
 604 -19 l 1,21,-1
 487 -26 l 1,22,-1
 540 326 l 1,23,-1
 351 326 l 1,24,-1
 299 -19 l 1,25,-1
 182 -26 l 1,26,-1
 235 326 l 1,27,-1
 -22 326 l 1,0,-1
558 451 m 1,28,-1
 597 711 l 1,29,-1
 408 711 l 1,30,-1
 369 451 l 1,31,-1
 558 451 l 1,28,-1
EndSplineSet
Colour: ffffff
EndChar

StartChar: o
Encoding: 111 111 261
Width: 934
VWidth: 0
Flags: HMW
LayerCount: 2
Fore
SplineSet
230 497 m 0,0,1
 230 416 230 416 244.5 343 c 128,-1,2
 259 270 259 270 289 207 c 128,-1,3
 319 144 319 144 372.5 107 c 128,-1,4
 426 70 426 70 497 70 c 0,5,6
 596 70 596 70 650 156.5 c 128,-1,7
 704 243 704 243 704 359 c 0,8,9
 704 438 704 438 689.5 512 c 128,-1,10
 675 586 675 586 646 652 c 128,-1,11
 617 718 617 718 565 758 c 128,-1,12
 513 798 513 798 445 798 c 0,13,14
 373 798 373 798 323 754.5 c 128,-1,15
 273 711 273 711 251.5 645 c 128,-1,16
 230 579 230 579 230 497 c 0,0,1
52 426 m 0,17,18
 52 536 52 536 88.5 628 c 128,-1,19
 125 720 125 720 186 779 c 128,-1,20
 247 838 247 838 325 870.5 c 128,-1,21
 403 903 403 903 487 903 c 0,22,23
 670 903 670 903 776 776.5 c 128,-1,24
 882 650 882 650 882 441 c 0,25,26
 882 235 882 235 761.5 104 c 128,-1,27
 641 -27 641 -27 463 -27 c 0,28,29
 270 -27 270 -27 161 100 c 128,-1,30
 52 227 52 227 52 426 c 0,17,18
EndSplineSet
Colour: ffffff
EndChar

StartChar: oacute
Encoding: 243 243 262
Width: 383
VWidth: 0
Flags: HMW
LayerCount: 2
Fore
SplineSet
73 92 m 0,0,1
 73 140 73 140 108 172.5 c 128,-1,2
 143 205 143 205 191 205 c 0,3,4
 241 205 241 205 277 171.5 c 128,-1,5
 313 138 313 138 313 90 c 0,6,7
 313 40 313 40 277 4.5 c 128,-1,8
 241 -31 241 -31 191 -31 c 0,9,10
 142 -31 142 -31 107.5 5 c 128,-1,11
 73 41 73 41 73 92 c 0,0,1
EndSplineSet
Colour: ffffff
EndChar

StartChar: ocaron
Encoding: 466 466 263
Width: 383
VWidth: 0
Flags: HMW
LayerCount: 2
Fore
SplineSet
73 92 m 0,0,1
 73 140 73 140 108 172.5 c 128,-1,2
 143 205 143 205 191 205 c 0,3,4
 241 205 241 205 277 171.5 c 128,-1,5
 313 138 313 138 313 90 c 0,6,7
 313 40 313 40 277 4.5 c 128,-1,8
 241 -31 241 -31 191 -31 c 0,9,10
 142 -31 142 -31 107.5 5 c 128,-1,11
 73 41 73 41 73 92 c 0,0,1
EndSplineSet
Colour: ffffff
EndChar

StartChar: ocircumflex
Encoding: 244 244 264
Width: 383
VWidth: 0
Flags: HMW
LayerCount: 2
Fore
SplineSet
73 92 m 0,0,1
 73 140 73 140 108 172.5 c 128,-1,2
 143 205 143 205 191 205 c 0,3,4
 241 205 241 205 277 171.5 c 128,-1,5
 313 138 313 138 313 90 c 0,6,7
 313 40 313 40 277 4.5 c 128,-1,8
 241 -31 241 -31 191 -31 c 0,9,10
 142 -31 142 -31 107.5 5 c 128,-1,11
 73 41 73 41 73 92 c 0,0,1
EndSplineSet
Colour: ffffff
EndChar

StartChar: odieresis
Encoding: 246 246 265
Width: 383
VWidth: 0
Flags: HMW
LayerCount: 2
Fore
SplineSet
73 92 m 0,0,1
 73 140 73 140 108 172.5 c 128,-1,2
 143 205 143 205 191 205 c 0,3,4
 241 205 241 205 277 171.5 c 128,-1,5
 313 138 313 138 313 90 c 0,6,7
 313 40 313 40 277 4.5 c 128,-1,8
 241 -31 241 -31 191 -31 c 0,9,10
 142 -31 142 -31 107.5 5 c 128,-1,11
 73 41 73 41 73 92 c 0,0,1
EndSplineSet
Colour: ffffff
EndChar

StartChar: oe
Encoding: 339 339 266
Width: 383
VWidth: 0
Flags: HMW
LayerCount: 2
Fore
SplineSet
73 92 m 0,0,1
 73 140 73 140 108 172.5 c 128,-1,2
 143 205 143 205 191 205 c 0,3,4
 241 205 241 205 277 171.5 c 128,-1,5
 313 138 313 138 313 90 c 0,6,7
 313 40 313 40 277 4.5 c 128,-1,8
 241 -31 241 -31 191 -31 c 0,9,10
 142 -31 142 -31 107.5 5 c 128,-1,11
 73 41 73 41 73 92 c 0,0,1
EndSplineSet
Colour: ffffff
EndChar

StartChar: ogonek
Encoding: 731 731 267
Width: 383
VWidth: 0
Flags: HMW
LayerCount: 2
Fore
SplineSet
73 92 m 0,0,1
 73 140 73 140 108 172.5 c 128,-1,2
 143 205 143 205 191 205 c 0,3,4
 241 205 241 205 277 171.5 c 128,-1,5
 313 138 313 138 313 90 c 0,6,7
 313 40 313 40 277 4.5 c 128,-1,8
 241 -31 241 -31 191 -31 c 0,9,10
 142 -31 142 -31 107.5 5 c 128,-1,11
 73 41 73 41 73 92 c 0,0,1
EndSplineSet
Colour: ffffff
EndChar

StartChar: ograve
Encoding: 242 242 268
Width: 383
VWidth: 0
Flags: HMW
LayerCount: 2
Fore
SplineSet
73 92 m 0,0,1
 73 140 73 140 108 172.5 c 128,-1,2
 143 205 143 205 191 205 c 0,3,4
 241 205 241 205 277 171.5 c 128,-1,5
 313 138 313 138 313 90 c 0,6,7
 313 40 313 40 277 4.5 c 128,-1,8
 241 -31 241 -31 191 -31 c 0,9,10
 142 -31 142 -31 107.5 5 c 128,-1,11
 73 41 73 41 73 92 c 0,0,1
EndSplineSet
Colour: ffffff
EndChar

StartChar: ohungarumlaut
Encoding: 337 337 269
Width: 383
VWidth: 0
Flags: HMW
LayerCount: 2
Fore
SplineSet
73 92 m 0,0,1
 73 140 73 140 108 172.5 c 128,-1,2
 143 205 143 205 191 205 c 0,3,4
 241 205 241 205 277 171.5 c 128,-1,5
 313 138 313 138 313 90 c 0,6,7
 313 40 313 40 277 4.5 c 128,-1,8
 241 -31 241 -31 191 -31 c 0,9,10
 142 -31 142 -31 107.5 5 c 128,-1,11
 73 41 73 41 73 92 c 0,0,1
EndSplineSet
Colour: ffffff
EndChar

StartChar: omacron
Encoding: 333 333 270
Width: 383
VWidth: 0
Flags: HMW
LayerCount: 2
Fore
SplineSet
73 92 m 0,0,1
 73 140 73 140 108 172.5 c 128,-1,2
 143 205 143 205 191 205 c 0,3,4
 241 205 241 205 277 171.5 c 128,-1,5
 313 138 313 138 313 90 c 0,6,7
 313 40 313 40 277 4.5 c 128,-1,8
 241 -31 241 -31 191 -31 c 0,9,10
 142 -31 142 -31 107.5 5 c 128,-1,11
 73 41 73 41 73 92 c 0,0,1
EndSplineSet
Colour: ffffff
EndChar

StartChar: one
Encoding: 49 49 271
Width: 982
VWidth: 1651
Flags: HMW
LayerCount: 2
Back
SplineSet
599 111 m 1,0,-1
 860 81 l 1,1,-1
 841 0 l 1,2,-1
 130 0 l 1,3,-1
 149 73 l 1,4,-1
 431 117 l 1,5,-1
 557 1006 l 1,6,-1
 292 1006 l 1,7,-1
 309 1082 l 1,8,-1
 720 1156 l 1,9,-1
 746 1156 l 1,10,-1
 599 111 l 1,0,-1
EndSplineSet
Fore
SplineSet
40 0 m 1,0,-1
 47 74 l 1,1,-1
 311 121 l 1,2,-1
 311 1031 l 1,3,-1
 61 1031 l 1,4,-1
 67 1108 l 1,5,-1
 488 1185 l 1,6,-1
 515 1185 l 1,7,-1
 515 114 l 1,8,-1
 777 83 l 1,9,-1
 767 0 l 1,10,-1
 40 0 l 1,0,-1
EndSplineSet
Substitution2: "'sups' Superscript lookup 0 subtable" one.superior
Colour: ffffff
EndChar

StartChar: one.osf
Encoding: 65543 -1 272
Width: 588
VWidth: 0
Flags: HMW
LayerCount: 2
Fore
SplineSet
35 0 m 1,0,-1
 44 74 l 1,1,-1
 228 121 l 1,2,-1
 228 802 l 1,3,-1
 55 805 l 1,4,-1
 64 882 l 1,5,-1
 368 956 l 1,6,-1
 396 956 l 1,7,-1
 396 114 l 1,8,-1
 585 80 l 1,9,-1
 575 0 l 1,10,-1
 35 0 l 1,0,-1
EndSplineSet
Colour: ffffff
EndChar

StartChar: onehalf
Encoding: 189 189 273
Width: 383
VWidth: 0
Flags: HMW
LayerCount: 2
Fore
SplineSet
73 92 m 0,0,1
 73 140 73 140 108 172.5 c 128,-1,2
 143 205 143 205 191 205 c 0,3,4
 241 205 241 205 277 171.5 c 128,-1,5
 313 138 313 138 313 90 c 0,6,7
 313 40 313 40 277 4.5 c 128,-1,8
 241 -31 241 -31 191 -31 c 0,9,10
 142 -31 142 -31 107.5 5 c 128,-1,11
 73 41 73 41 73 92 c 0,0,1
EndSplineSet
Colour: ffffff
EndChar

StartChar: onequarter
Encoding: 188 188 274
Width: 383
VWidth: 0
Flags: HMW
LayerCount: 2
Fore
SplineSet
73 92 m 0,0,1
 73 140 73 140 108 172.5 c 128,-1,2
 143 205 143 205 191 205 c 0,3,4
 241 205 241 205 277 171.5 c 128,-1,5
 313 138 313 138 313 90 c 0,6,7
 313 40 313 40 277 4.5 c 128,-1,8
 241 -31 241 -31 191 -31 c 0,9,10
 142 -31 142 -31 107.5 5 c 128,-1,11
 73 41 73 41 73 92 c 0,0,1
EndSplineSet
Colour: ffffff
EndChar

StartChar: one.superior
Encoding: 185 185 275
Width: 383
VWidth: 0
Flags: HMW
LayerCount: 2
Fore
SplineSet
73 92 m 0,0,1
 73 140 73 140 108 172.5 c 128,-1,2
 143 205 143 205 191 205 c 0,3,4
 241 205 241 205 277 171.5 c 128,-1,5
 313 138 313 138 313 90 c 0,6,7
 313 40 313 40 277 4.5 c 128,-1,8
 241 -31 241 -31 191 -31 c 0,9,10
 142 -31 142 -31 107.5 5 c 128,-1,11
 73 41 73 41 73 92 c 0,0,1
EndSplineSet
Colour: ffffff
EndChar

StartChar: ordfeminine
Encoding: 170 170 276
Width: 383
VWidth: 0
Flags: HMW
LayerCount: 2
Back
SplineSet
128.2 378.4 m 0,0,1
 128.2 423.961 128.2 423.961 149.722 465.334 c 0
 171.244 506.706 171.244 506.706 214.228 542.116 c 0
 257.213 577.526 257.213 577.526 329.922 601.434 c 0
 402.631 625.342 402.631 625.342 497 632 c 1,2,-1
 497 676 l 2,3,4
 497 719.329 497 719.329 490.124 755.409 c 0
 483.247 791.489 483.247 791.489 467.876 822.828 c 0
 452.506 854.168 452.506 854.168 423.824 871.884 c 0
 395.141 889.6 395.141 889.6 355.4 889.6 c 0,5,6
 341.31 889.6 341.31 889.6 330.764 888.173 c 0
 320.217 886.747 320.217 886.747 311.793 881.305 c 0
 303.369 875.863 303.369 875.863 297.753 871.604 c 0
 292.138 867.345 292.138 867.345 287.525 854.964 c 0
 282.911 842.582 282.911 842.582 280.398 834.441 c 0
 277.885 826.299 277.885 826.299 275.254 805.928 c 0
 272.623 785.558 272.623 785.558 271.383 772.484 c 0
 270.143 759.41 270.143 759.41 267.691 730.448 c 0
 266.975 721.959 266.975 721.959 266.6 717.6 c 1,7,8
 250.085 717.6 250.085 717.6 238.327 718.463 c 0
 226.569 719.325 226.569 719.325 209.568 723.899 c 0
 192.567 728.473 192.567 728.473 181.904 736.677 c 0
 171.242 744.881 171.242 744.881 163.321 761.121 c 0
 155.4 777.362 155.4 777.362 155.4 800 c 0,9,10
 155.4 841.391 155.4 841.391 200.947 880.415 c 0
 246.494 919.438 246.494 919.438 309.853 941.719 c 0
 373.212 964 373.212 964 429 964 c 0,11,12
 534.545 964 534.545 964 580.572 905.3 c 0
 626.6 846.601 626.6 846.601 626.6 718.4 c 2,13,-1
 626.6 428 l 2,14,15
 626.6 372.07 626.6 372.07 643.842 350.88 c 0
 661.083 329.69 661.083 329.69 716.2 320.8 c 1,16,-1
 756.2 313.6 l 1,17,-1
 745.8 244.8 l 1,18,19
 739.768 244.03 739.768 244.03 702.34 236.815 c 0
 664.912 229.6 664.912 229.6 637 229.6 c 0,20,21
 573.523 229.6 573.523 229.6 543.262 262.202 c 0
 513 294.803 513 294.803 513 336.8 c 2,22,-1
 513 348.8 l 1,23,-1
 504.2 348.8 l 1,24,25
 494.61 329.976 494.61 329.976 478.54 311.05 c 0
 462.47 292.125 462.47 292.125 436.448 271.387 c 0
 410.426 250.65 410.426 250.65 370.815 237.725 c 0
 331.204 224.8 331.204 224.8 285 224.8 c 0,26,27
 219.136 224.8 219.136 224.8 173.668 266.307 c 0
 128.2 307.815 128.2 307.815 128.2 378.4 c 0,0,1
268.2 416 m 0,28,29
 268.2 382.021 268.2 382.021 292.44 352.611 c 0
 316.679 323.2 316.679 323.2 357.8 323.2 c 0,30,31
 395.929 323.2 395.929 323.2 434.523 345.411 c 0
 473.118 367.623 473.118 367.623 497 394.4 c 1,32,-1
 497 586.4 l 1,33,34
 372.352 561.813 372.352 561.813 320.276 519.594 c 0
 268.2 477.374 268.2 477.374 268.2 416 c 0,28,29
EndSplineSet
Fore
SplineSet
73 92 m 0,0,1
 73 140 73 140 108 172.5 c 128,-1,2
 143 205 143 205 191 205 c 0,3,4
 241 205 241 205 277 171.5 c 128,-1,5
 313 138 313 138 313 90 c 0,6,7
 313 40 313 40 277 4.5 c 128,-1,8
 241 -31 241 -31 191 -31 c 0,9,10
 142 -31 142 -31 107.5 5 c 128,-1,11
 73 41 73 41 73 92 c 0,0,1
EndSplineSet
Colour: ffffff
EndChar

StartChar: ordmasculine
Encoding: 186 186 277
Width: 383
VWidth: 0
Flags: HMW
LayerCount: 2
Fore
SplineSet
73 92 m 0,0,1
 73 140 73 140 108 172.5 c 128,-1,2
 143 205 143 205 191 205 c 0,3,4
 241 205 241 205 277 171.5 c 128,-1,5
 313 138 313 138 313 90 c 0,6,7
 313 40 313 40 277 4.5 c 128,-1,8
 241 -31 241 -31 191 -31 c 0,9,10
 142 -31 142 -31 107.5 5 c 128,-1,11
 73 41 73 41 73 92 c 0,0,1
EndSplineSet
Colour: ffffff
EndChar

StartChar: oslash
Encoding: 248 248 278
Width: 383
VWidth: 0
Flags: HMW
LayerCount: 2
Fore
SplineSet
73 92 m 0,0,1
 73 140 73 140 108 172.5 c 128,-1,2
 143 205 143 205 191 205 c 0,3,4
 241 205 241 205 277 171.5 c 128,-1,5
 313 138 313 138 313 90 c 0,6,7
 313 40 313 40 277 4.5 c 128,-1,8
 241 -31 241 -31 191 -31 c 0,9,10
 142 -31 142 -31 107.5 5 c 128,-1,11
 73 41 73 41 73 92 c 0,0,1
EndSplineSet
Colour: ffffff
EndChar

StartChar: otilde
Encoding: 245 245 279
Width: 383
VWidth: 0
Flags: HMW
LayerCount: 2
Fore
SplineSet
73 92 m 0,0,1
 73 140 73 140 108 172.5 c 128,-1,2
 143 205 143 205 191 205 c 0,3,4
 241 205 241 205 277 171.5 c 128,-1,5
 313 138 313 138 313 90 c 0,6,7
 313 40 313 40 277 4.5 c 128,-1,8
 241 -31 241 -31 191 -31 c 0,9,10
 142 -31 142 -31 107.5 5 c 128,-1,11
 73 41 73 41 73 92 c 0,0,1
EndSplineSet
Colour: ffffff
EndChar

StartChar: overline
Encoding: 8254 8254 280
Width: 517
VWidth: 0
Flags: HMW
LayerCount: 2
Fore
SplineSet
33 1302 m 1,0,-1
 46 1403 l 1,1,-1
 487 1403 l 1,2,-1
 474 1302 l 1,3,-1
 33 1302 l 1,0,-1
EndSplineSet
Colour: ffffff
EndChar

StartChar: p
Encoding: 112 112 281
Width: 968
VWidth: 0
Flags: HMW
LayerCount: 2
Fore
SplineSet
13 -372 m 1,0,-1
 19 -294 l 1,1,-1
 172 -256 l 1,2,-1
 172 722 l 1,3,-1
 18 768 l 1,4,-1
 30 845 l 1,5,-1
 321 882 l 1,6,-1
 342 863 l 1,7,-1
 328 734 l 1,8,-1
 335 734 l 1,9,10
 383 801 383 801 453 850 c 128,-1,11
 523 899 523 899 611 899 c 0,12,13
 747 899 747 899 830.5 792 c 128,-1,14
 914 685 914 685 914 467 c 0,15,16
 914 254 914 254 788 117.5 c 128,-1,17
 662 -19 662 -19 469 -19 c 0,18,19
 425 -19 425 -19 375 -10 c 1,20,-1
 369 111 l 1,21,22
 403 98 403 98 433 93.5 c 128,-1,23
 463 89 463 89 522 89 c 0,24,25
 623 89 623 89 677 175 c 128,-1,26
 731 261 731 261 731 406 c 0,27,28
 731 768 731 768 540 768 c 0,29,30
 433 768 433 768 335 666 c 1,31,-1
 335 -257 l 1,32,-1
 491 -292 l 1,33,-1
 479 -372 l 1,34,-1
 13 -372 l 1,0,-1
EndSplineSet
Colour: ffffff
EndChar

StartChar: paragraph
Encoding: 182 182 282
Width: 383
VWidth: 0
Flags: HMW
LayerCount: 2
Back
SplineSet
307.25 1058.08 m 0,0,1
 307.25 1166.82 307.25 1166.82 356.879 1262.02 c 0
 406.507 1357.23 406.507 1357.23 489.013 1422.18 c 0
 571.519 1487.14 571.519 1487.14 679.899 1524.41 c 0
 788.279 1561.69 788.279 1561.69 904.456 1561.69 c 2,2,-1
 1133.37 1561.69 l 1,3,-1
 1133.37 1.01758 l 1,4,-1
 728.449 1.01758 l 1,5,-1
 735.57 52.9043 l 1,6,-1
 1007.21 91.5645 l 1,7,-1
 1007.21 1486.4 l 1,8,9
 955.327 1489.46 955.327 1489.46 915.647 1489.46 c 0,10,11
 679.698 1489.46 679.698 1489.46 576.392 1384.11 c 0
 473.085 1278.75 473.085 1278.75 473.085 1053 c 0,12,13
 473.085 972.472 473.085 972.472 503.138 901.386 c 0
 533.192 830.3 533.192 830.3 587.771 777.161 c 0
 642.35 724.021 642.35 724.021 724.579 693.17 c 0
 806.808 662.319 806.808 662.319 905.475 662.319 c 1,14,-1
 883.092 599.24 l 1,15,16
 779.706 599.24 779.706 599.24 697.207 611.554 c 0
 614.708 623.868 614.708 623.868 539.903 655.514 c 0
 465.098 687.16 465.098 687.16 415.301 738.101 c 0
 365.503 789.042 365.503 789.042 336.376 869.963 c 0
 307.25 950.884 307.25 950.884 307.25 1058.08 c 0,0,1
1203.57 1561.69 m 1,17,-1
 1559.65 1561.69 l 1,18,-1
 1553.55 1514.89 l 1,19,-1
 1332.78 1485.38 l 1,20,-1
 1332.78 80.373 l 1,21,-1
 1572.88 57.9912 l 1,22,-1
 1560.67 -2.03418 l 1,23,-1
 1203.57 1.01758 l 1,24,-1
 1203.57 1561.69 l 1,17,-1
EndSplineSet
Fore
SplineSet
73 92 m 0,0,1
 73 140 73 140 108 172.5 c 128,-1,2
 143 205 143 205 191 205 c 0,3,4
 241 205 241 205 277 171.5 c 128,-1,5
 313 138 313 138 313 90 c 0,6,7
 313 40 313 40 277 4.5 c 128,-1,8
 241 -31 241 -31 191 -31 c 0,9,10
 142 -31 142 -31 107.5 5 c 128,-1,11
 73 41 73 41 73 92 c 0,0,1
EndSplineSet
Colour: ffffff
EndChar

StartChar: parenleft
Encoding: 40 40 283
Width: 477
VWidth: 0
Flags: HMW
LayerCount: 2
Back
SplineSet
401 -317 m 1,0,-1
 322 -375 l 1,1,2
 304 -355 304 -355 292.5 -341 c 0
 281 -327 281 -327 250 -282 c 0
 219 -237 219 -237 198.5 -193.5 c 0
 178 -150 178 -150 153.5 -78.5 c 0
 129 -7 129 -7 117.5 67 c 0
 106 141 106 141 105 240.5 c 0
 104 340 104 340 121 446 c 0,3,4
 203 966 203 966 585 1255 c 1,5,-1
 624 1189 l 1,6,7
 576 1138 576 1138 537.5 1084 c 0
 499 1030 499 1030 451 942.5 c 0
 403 855 403 855 364 730.5 c 0
 325 606 325 606 301 456 c 0,8,9
 236 48 236 48 401 -317 c 1,0,-1
EndSplineSet
Fore
SplineSet
49 445 m 0,0,1
 49 553 49 553 65 652.5 c 128,-1,2
 81 752 81 752 103.5 825 c 128,-1,3
 126 898 126 898 161.5 967 c 128,-1,4
 197 1036 197 1036 225 1078 c 128,-1,5
 253 1120 253 1120 291 1162 c 128,-1,6
 329 1204 329 1204 346 1219.5 c 128,-1,7
 363 1235 363 1235 386 1255 c 1,8,-1
 436 1189 l 1,9,10
 405 1148 405 1148 380.5 1109.5 c 128,-1,11
 356 1071 356 1071 325.5 1004 c 128,-1,12
 295 937 295 937 275 864 c 128,-1,13
 255 791 255 791 241 684 c 128,-1,14
 227 577 227 577 227 455 c 0,15,16
 227 51 227 51 449 -317 c 1,17,-1
 381 -375 l 1,18,19
 360 -355 360 -355 346 -341 c 128,-1,20
 332 -327 332 -327 294 -282 c 128,-1,21
 256 -237 256 -237 228.5 -194 c 128,-1,22
 201 -151 201 -151 165 -79.5 c 128,-1,23
 129 -8 129 -8 105.5 66 c 128,-1,24
 82 140 82 140 65.5 239.5 c 128,-1,25
 49 339 49 339 49 445 c 0,0,1
EndSplineSet
Colour: ffffff
EndChar

StartChar: parenright
Encoding: 41 41 284
Width: 477
VWidth: 0
Flags: HMW
LayerCount: 2
Back
SplineSet
-25 -317 m 1,0,-1
 35 -375 l 1,1,2
 58 -356 58 -356 75.5 -341 c 0
 93 -326 93 -326 137.5 -281.5 c 0
 182 -237 182 -237 217 -193.5 c 0
 252 -150 252 -150 299 -78.5 c 0
 346 -7 346 -7 381 67 c 0
 416 141 416 141 448 240.5 c 0
 480 340 480 340 497 446 c 0,3,4
 514 554 514 554 514 653.5 c 0
 514 753 514 753 502.5 826 c 0
 491 899 491 899 467 967.5 c 0
 443 1036 443 1036 421 1078 c 0
 399 1120 399 1120 368 1162 c 0
 337 1204 337 1204 322 1220 c 0
 307 1236 307 1236 287 1255 c 1,5,-1
 228 1189 l 1,6,7
 253 1148 253 1148 271 1110 c 0
 289 1072 289 1072 309 1005 c 0
 329 938 329 938 337.5 865 c 0
 346 792 346 792 342.5 685 c 0
 339 578 339 578 320 456 c 0,8,9
 255 48 255 48 -25 -317 c 1,0,-1
EndSplineSet
Fore
SplineSet
44 1189 m 1,0,-1
 93 1255 l 1,1,2
 116 1235 116 1235 133 1219.5 c 128,-1,3
 150 1204 150 1204 188 1162 c 128,-1,4
 226 1120 226 1120 254.5 1078 c 128,-1,5
 283 1036 283 1036 318 967 c 128,-1,6
 353 898 353 898 376 825 c 128,-1,7
 399 752 399 752 415 652.5 c 128,-1,8
 431 553 431 553 431 445 c 0,9,10
 431 339 431 339 414.5 239.5 c 128,-1,11
 398 140 398 140 374.5 66 c 128,-1,12
 351 -8 351 -8 315 -79.5 c 128,-1,13
 279 -151 279 -151 251.5 -194 c 128,-1,14
 224 -237 224 -237 186 -282 c 128,-1,15
 148 -327 148 -327 134 -341 c 128,-1,16
 120 -355 120 -355 99 -375 c 1,17,-1
 30 -317 l 1,18,19
 253 53 253 53 253 455 c 0,20,21
 253 577 253 577 239 684 c 128,-1,22
 225 791 225 791 205 864 c 128,-1,23
 185 937 185 937 154.5 1004 c 128,-1,24
 124 1071 124 1071 99.5 1109.5 c 128,-1,25
 75 1148 75 1148 44 1189 c 1,0,-1
EndSplineSet
Colour: ffffff
EndChar

StartChar: partialdiff
Encoding: 8706 8706 285
Width: 897
VWidth: 0
Flags: HMW
LayerCount: 2
Fore
SplineSet
227 498 m 0,0,1
 227 316 227 316 295 193 c 128,-1,2
 363 70 363 70 466 70 c 0,3,4
 576 70 576 70 620 160 c 128,-1,5
 664 250 664 250 664 424 c 128,-1,6
 664 598 664 598 590 727 c 128,-1,7
 516 856 516 856 423 856 c 0,8,9
 318 856 318 856 272.5 771.5 c 128,-1,10
 227 687 227 687 227 498 c 0,0,1
49 451 m 0,11,12
 49 668 49 668 164 808 c 128,-1,13
 279 948 279 948 442 948 c 0,14,15
 485 948 485 948 531 927.5 c 128,-1,16
 577 907 577 907 597 857 c 1,17,-1
 604 859 l 1,18,19
 587 942 587 942 500.5 1080.5 c 128,-1,20
 414 1219 414 1219 317 1302 c 1,21,-1
 433 1302 l 1,22,23
 568 1225 568 1225 661.5 1087.5 c 128,-1,24
 755 950 755 950 796.5 793 c 128,-1,25
 838 636 838 636 838 465 c 0,26,27
 838 241 838 241 724 107 c 128,-1,28
 610 -27 610 -27 443 -27 c 0,29,30
 343 -27 343 -27 265.5 13 c 128,-1,31
 188 53 188 53 141.5 121.5 c 128,-1,32
 95 190 95 190 72 273.5 c 128,-1,33
 49 357 49 357 49 451 c 0,11,12
EndSplineSet
Colour: ffffff
EndChar

StartChar: percent
Encoding: 37 37 286
Width: 1736
VWidth: 0
Flags: HMW
LayerCount: 2
Fore
SplineSet
812 277 m 0,0,1
 812 180 812 180 840 106 c 128,-1,2
 868 32 868 32 920 32 c 0,3,4
 1021 32 1021 32 1021 279 c 0,5,6
 1021 344 1021 344 1011.5 399 c 128,-1,7
 1002 454 1002 454 977.5 494 c 128,-1,8
 953 534 953 534 917 534 c 0,9,10
 887 534 887 534 865 510.5 c 128,-1,11
 843 487 843 487 832 447.5 c 128,-1,12
 821 408 821 408 816.5 366 c 128,-1,13
 812 324 812 324 812 277 c 0,0,1
647 277 m 0,14,15
 647 399 647 399 734 494.5 c 128,-1,16
 821 590 821 590 917 590 c 0,17,18
 1025 590 1025 590 1103 498.5 c 128,-1,19
 1181 407 1181 407 1181 274 c 0,20,21
 1181 152 1181 152 1096.5 58 c 128,-1,22
 1012 -36 1012 -36 920 -36 c 0,23,24
 818 -36 818 -36 732.5 53 c 128,-1,25
 647 142 647 142 647 277 c 0,14,15
123 -10 m 1,26,-1
 530 588 l 1,27,-1
 867 1123 l 1,28,-1
 491 1137 l 1,29,30
 525 1102 525 1102 545.5 1024 c 128,-1,31
 566 946 566 946 566 898 c 0,32,33
 566 775 566 775 478 679 c 128,-1,34
 390 583 390 583 297 583 c 0,35,36
 195 583 195 583 112 672 c 128,-1,37
 29 761 29 761 29 898 c 0,38,39
 29 1020 29 1020 117 1115.5 c 128,-1,40
 205 1211 205 1211 301 1211 c 0,41,42
 321 1211 321 1211 330 1208 c 1,43,-1
 340 1142 l 1,44,45
 310 1154 310 1154 295 1154 c 0,46,47
 258 1154 258 1154 234 1112 c 128,-1,48
 210 1070 210 1070 202 1016 c 128,-1,49
 194 962 194 962 194 898 c 0,50,51
 194 798 194 798 220 723.5 c 128,-1,52
 246 649 246 649 297 649 c 0,53,54
 402 649 402 649 402 898 c 0,55,56
 402 1082 402 1082 364 1198 c 1,57,-1
 921 1210 l 1,58,-1
 1087 1207 l 1,59,-1
 1085 1178 l 1,60,-1
 684 591 l 1,61,-1
 313 -32 l 1,62,-1
 123 -10 l 1,26,-1
EndSplineSet
Colour: ffffff
EndChar

StartChar: period
Encoding: 46 46 287
Width: 383
VWidth: 0
Flags: HMW
LayerCount: 2
Back
SplineSet
235 215 m 3,0,1
 280 215 280 215 307.5 182.5 c 0
 335 150 335 150 335 107 c 0,2,3
 335 45 335 45 295.5 6 c 0
 256 -33 256 -33 198 -33 c 0,4,5
 159 -33 159 -33 125.5 1 c 0
 92 35 92 35 92 74 c 0,6,7
 92 133 92 133 134 174 c 0
 176 215 176 215 235 215 c 3,0,1
EndSplineSet
Fore
SplineSet
73 92 m 0,0,1
 73 140 73 140 108 172.5 c 128,-1,2
 143 205 143 205 191 205 c 0,3,4
 241 205 241 205 277 171.5 c 128,-1,5
 313 138 313 138 313 90 c 0,6,7
 313 40 313 40 277 4.5 c 128,-1,8
 241 -31 241 -31 191 -31 c 0,9,10
 142 -31 142 -31 107.5 5 c 128,-1,11
 73 41 73 41 73 92 c 0,0,1
EndSplineSet
Colour: ffffff
EndChar

StartChar: periodcentered
Encoding: 183 183 288
Width: 383
VWidth: 0
Flags: HMW
LayerCount: 2
Back
SplineSet
390 1237 m 0,0,1
 348 1237 348 1237 320.5 1204 c 0
 293 1171 293 1171 286 1125 c 0,2,3
 278 1075 278 1075 297.5 1035.5 c 0
 317 996 317 996 362 996 c 0,4,5
 402 996 402 996 428.5 1025.5 c 0
 455 1055 455 1055 464 1110 c 0,6,7
 472 1161 472 1161 453.5 1199 c 0
 435 1237 435 1237 390 1237 c 0,0,1
408 1285 m 0,8,9
 479 1285 479 1285 514 1240 c 0
 549 1195 549 1195 538 1123 c 1,10,11
 526 1052 526 1052 471 1000 c 0
 416 948 416 948 342 948 c 0,12,13
 272 948 272 948 236 992.5 c 0
 200 1037 200 1037 213 1113 c 0,14,15
 224 1183 224 1183 281 1234 c 0
 338 1285 338 1285 408 1285 c 0,8,9
EndSplineSet
Fore
SplineSet
73 92 m 0,0,1
 73 140 73 140 108 172.5 c 128,-1,2
 143 205 143 205 191 205 c 0,3,4
 241 205 241 205 277 171.5 c 128,-1,5
 313 138 313 138 313 90 c 0,6,7
 313 40 313 40 277 4.5 c 128,-1,8
 241 -31 241 -31 191 -31 c 0,9,10
 142 -31 142 -31 107.5 5 c 128,-1,11
 73 41 73 41 73 92 c 0,0,1
EndSplineSet
Colour: ffffff
EndChar

StartChar: perthousand
Encoding: 8240 8240 289
Width: 1853
VWidth: 0
Flags: HMW
LayerCount: 2
Fore
SplineSet
1415 275 m 0,0,1
 1415 178 1415 178 1443 104 c 128,-1,2
 1471 30 1471 30 1523 30 c 0,3,4
 1624 30 1624 30 1624 277 c 0,5,6
 1624 342 1624 342 1614.5 397 c 128,-1,7
 1605 452 1605 452 1581 491.5 c 128,-1,8
 1557 531 1557 531 1521 531 c 0,9,10
 1481 531 1481 531 1456 489 c 128,-1,11
 1431 447 1431 447 1423 393.5 c 128,-1,12
 1415 340 1415 340 1415 275 c 0,0,1
1250 275 m 0,13,14
 1250 397 1250 397 1337.5 492.5 c 128,-1,15
 1425 588 1425 588 1521 588 c 0,16,17
 1629 588 1629 588 1707 496 c 128,-1,18
 1785 404 1785 404 1785 271 c 0,19,20
 1785 149 1785 149 1700 55.5 c 128,-1,21
 1615 -38 1615 -38 1523 -38 c 0,22,23
 1421 -38 1421 -38 1335.5 51 c 128,-1,24
 1250 140 1250 140 1250 275 c 0,13,14
812 277 m 0,25,26
 812 180 812 180 840 106 c 128,-1,27
 868 32 868 32 920 32 c 0,28,29
 1021 32 1021 32 1021 279 c 0,30,31
 1021 344 1021 344 1011.5 399 c 128,-1,32
 1002 454 1002 454 977.5 494 c 128,-1,33
 953 534 953 534 917 534 c 0,34,35
 887 534 887 534 865 510.5 c 128,-1,36
 843 487 843 487 832 447.5 c 128,-1,37
 821 408 821 408 816.5 366 c 128,-1,38
 812 324 812 324 812 277 c 0,25,26
647 277 m 0,39,40
 647 399 647 399 734 494.5 c 128,-1,41
 821 590 821 590 917 590 c 0,42,43
 1025 590 1025 590 1103 498.5 c 128,-1,44
 1181 407 1181 407 1181 274 c 0,45,46
 1181 152 1181 152 1096.5 58 c 128,-1,47
 1012 -36 1012 -36 920 -36 c 0,48,49
 818 -36 818 -36 732.5 53 c 128,-1,50
 647 142 647 142 647 277 c 0,39,40
123 -10 m 1,51,-1
 530 588 l 1,52,-1
 867 1123 l 1,53,-1
 491 1137 l 1,54,55
 525 1102 525 1102 545.5 1024 c 128,-1,56
 566 946 566 946 566 898 c 0,57,58
 566 775 566 775 478 679 c 128,-1,59
 390 583 390 583 297 583 c 0,60,61
 195 583 195 583 112 672 c 128,-1,62
 29 761 29 761 29 898 c 0,63,64
 29 1020 29 1020 117 1115.5 c 128,-1,65
 205 1211 205 1211 301 1211 c 0,66,67
 321 1211 321 1211 330 1208 c 1,68,-1
 340 1142 l 1,69,70
 310 1154 310 1154 295 1154 c 0,71,72
 258 1154 258 1154 234 1112 c 128,-1,73
 210 1070 210 1070 202 1016 c 128,-1,74
 194 962 194 962 194 898 c 0,75,76
 194 798 194 798 220 723.5 c 128,-1,77
 246 649 246 649 297 649 c 0,78,79
 402 649 402 649 402 898 c 0,80,81
 402 1082 402 1082 364 1198 c 1,82,-1
 921 1210 l 1,83,-1
 1087 1207 l 1,84,-1
 1085 1178 l 1,85,-1
 684 591 l 1,86,-1
 313 -32 l 1,87,-1
 123 -10 l 1,51,-1
EndSplineSet
Colour: ffffff
EndChar

StartChar: plus
Encoding: 43 43 290
Width: 648
VWidth: 0
Flags: HMW
LayerCount: 2
Back
SplineSet
477 410 m 1,0,-1
 443 173 l 1,1,-1
 334 185 l 1,2,-1
 368 410 l 1,3,-1
 147 410 l 1,4,-1
 175 510 l 1,5,-1
 385 510 l 1,6,-1
 421 742 l 1,7,-1
 527 730 l 1,8,-1
 494 510 l 1,9,-1
 713 510 l 1,10,-1
 685 410 l 1,11,-1
 477 410 l 1,0,-1
EndSplineSet
Fore
SplineSet
50 409 m 1,0,-1
 62 510 l 1,1,-1
 271 510 l 1,2,-1
 271 741 l 1,3,-1
 380 729 l 1,4,-1
 381 510 l 1,5,-1
 601 510 l 1,6,-1
 589 409 l 1,7,-1
 381 409 l 1,8,-1
 383 174 l 1,9,-1
 271 185 l 1,10,-1
 271 409 l 1,11,-1
 50 409 l 1,0,-1
EndSplineSet
Colour: ffffff
EndChar

StartChar: plusminus
Encoding: 177 177 291
Width: 383
VWidth: 0
Flags: HMW
LayerCount: 2
Back
SplineSet
117 117 m 5,0,-1
 730 124 l 1,1,-1
 697 20 l 1,2,-1
 84 13 l 1,3,-1
 117 117 l 5,0,-1
576.938 476 m 1,4,-1
 505.4 239 l 1,5,-1
 398.301 251 l 1,6,-1
 467.938 476 l 1,7,-1
 246.938 476 l 1,8,-1
 290.775 576 l 1,9,-1
 500.775 576 l 1,10,-1
 573.521 808 l 1,11,-1
 677.62 796 l 1,12,-1
 609.775 576 l 1,13,-1
 828.775 576 l 1,14,-1
 784.938 476 l 1,15,-1
 576.938 476 l 1,4,-1
EndSplineSet
Fore
SplineSet
73 92 m 0,0,1
 73 140 73 140 108 172.5 c 128,-1,2
 143 205 143 205 191 205 c 0,3,4
 241 205 241 205 277 171.5 c 128,-1,5
 313 138 313 138 313 90 c 0,6,7
 313 40 313 40 277 4.5 c 128,-1,8
 241 -31 241 -31 191 -31 c 0,9,10
 142 -31 142 -31 107.5 5 c 128,-1,11
 73 41 73 41 73 92 c 0,0,1
EndSplineSet
Colour: ffffff
EndChar

StartChar: product
Encoding: 8719 8719 292
Width: 1478
VWidth: 0
Flags: HMW
LayerCount: 2
Fore
SplineSet
49 1168 m 1,0,-1
 59 1244 l 1,1,-1
 1426 1244 l 1,2,-1
 1415 1168 l 1,3,-1
 1248 1130 l 1,4,-1
 1248 114 l 1,5,-1
 1430 80 l 1,6,-1
 1419 0 l 1,7,-1
 876 0 l 1,8,-1
 888 74 l 1,9,-1
 1053 121 l 1,10,-1
 1053 1140 l 1,11,-1
 426 1139 l 1,12,-1
 426 114 l 1,13,-1
 611 80 l 1,14,-1
 598 0 l 1,15,-1
 56 0 l 1,16,-1
 64 74 l 1,17,-1
 231 121 l 1,18,-1
 231 1126 l 1,19,-1
 49 1168 l 1,0,-1
EndSplineSet
Colour: ffffff
EndChar

StartChar: q
Encoding: 113 113 293
Width: 955
VWidth: 0
Flags: HMW
LayerCount: 2
Fore
SplineSet
54 412 m 0,0,1
 54 510 54 510 93.5 602 c 128,-1,2
 133 694 133 694 195.5 758.5 c 128,-1,3
 258 823 258 823 337 861.5 c 128,-1,4
 416 900 416 900 494 900 c 0,5,6
 538 900 538 900 587.5 884.5 c 128,-1,7
 637 869 637 869 667 853 c 1,8,-1
 784 892 l 1,9,-1
 813 890 l 1,10,-1
 813 -251 l 1,11,-1
 973 -285 l 1,12,-1
 962 -366 l 1,13,-1
 486 -366 l 1,14,-1
 496 -287 l 1,15,-1
 647 -251 l 1,16,-1
 647 663 l 1,17,18
 616 719 616 719 564.5 760 c 128,-1,19
 513 801 513 801 445 801 c 0,20,21
 351 801 351 801 289.5 712 c 128,-1,22
 228 623 228 623 228 474 c 0,23,24
 228 300 228 300 288.5 202 c 128,-1,25
 349 104 349 104 446 104 c 0,26,27
 476 104 476 104 530.5 116 c 128,-1,28
 585 128 585 128 618 148 c 1,29,-1
 621 73 l 1,30,31
 577 31 577 31 507 5 c 128,-1,32
 437 -21 437 -21 381 -21 c 0,33,34
 239 -21 239 -21 146.5 89.5 c 128,-1,35
 54 200 54 200 54 412 c 0,0,1
EndSplineSet
Colour: ffffff
EndChar

StartChar: question
Encoding: 63 63 294
Width: 642
VWidth: 0
Flags: HMW
LayerCount: 2
Fore
SplineSet
159 92 m 0,0,1
 159 142 159 142 195.5 176 c 128,-1,2
 232 210 232 210 282 210 c 0,3,4
 333 210 333 210 369.5 175 c 128,-1,5
 406 140 406 140 406 90 c 0,6,7
 406 37 406 37 370 0.5 c 128,-1,8
 334 -36 334 -36 282 -36 c 128,-1,9
 230 -36 230 -36 194.5 1.5 c 128,-1,10
 159 39 159 39 159 92 c 0,0,1
47 1152 m 0,11,12
 47 1203 47 1203 92.5 1245 c 128,-1,13
 138 1287 138 1287 243 1287 c 0,14,15
 301 1287 301 1287 362 1255.5 c 128,-1,16
 423 1224 423 1224 473 1169.5 c 128,-1,17
 523 1115 523 1115 555 1033 c 128,-1,18
 587 951 587 951 587 860 c 0,19,20
 587 812 587 812 571 774 c 128,-1,21
 555 736 555 736 529.5 712 c 128,-1,22
 504 688 504 688 473.5 669 c 128,-1,23
 443 650 443 650 412.5 634 c 128,-1,24
 382 618 382 618 356.5 601.5 c 128,-1,25
 331 585 331 585 315 561.5 c 128,-1,26
 299 538 299 538 299 508 c 0,27,28
 299 455 299 455 321 383 c 1,29,-1
 246 366 l 1,30,31
 219 405 219 405 194 468.5 c 128,-1,32
 169 532 169 532 169 585 c 0,33,34
 169 630 169 630 186 664 c 128,-1,35
 203 698 203 698 230 718 c 128,-1,36
 257 738 257 738 289.5 753.5 c 128,-1,37
 322 769 322 769 355 784.5 c 128,-1,38
 388 800 388 800 415 818 c 128,-1,39
 442 836 442 836 459 867 c 128,-1,40
 476 898 476 898 476 939 c 0,41,42
 476 1004 476 1004 419 1058.5 c 128,-1,43
 362 1113 362 1113 313 1113 c 0,44,45
 255 1113 255 1113 204 1094 c 128,-1,46
 153 1075 153 1075 121 1041 c 1,47,48
 93 1052 93 1052 70 1083 c 128,-1,49
 47 1114 47 1114 47 1152 c 0,11,12
EndSplineSet
Colour: ffffff
EndChar

